<svg width="22" height="18" viewBox="0 0 22 18" fill="" xmlns="http://www.w3.org/2000/svg">
<path d="M1.80817 4L9.38699 9.71544C10.0007 10.1783 10.3076 10.4097 10.6413 10.4993C10.9362 10.5785 11.2445 10.5785 11.5394 10.4993C11.8731 10.4097 12.18 10.1783 12.7937 9.71544L20.3725 4M6.26361 17H15.9171C17.4766 17 18.2564 17 18.8521 16.673C19.376 16.3854 19.802 15.9265 20.069 15.362C20.3725 14.7202 20.3725 13.8802 20.3725 12.2V5.8C20.3725 4.11984 20.3725 3.27976 20.069 2.63803C19.802 2.07354 19.376 1.6146 18.8521 1.32698C18.2564 1 17.4766 1 15.9171 1H6.26361C4.70406 1 3.92429 1 3.32862 1.32698C2.80465 1.6146 2.37865 2.07354 2.11168 2.63803C1.80817 3.27976 1.80817 4.11984 1.80817 5.8V12.2C1.80817 13.8802 1.80817 14.7202 2.11168 15.362C2.37865 15.9265 2.80465 16.3854 3.32862 16.673C3.92429 17 4.70406 17 6.26361 17Z" stroke="#FFF" stroke-width="2" stroke-linecap="round" stroke-linejoin="round"/>
</svg>
