<?xml version="1.0" encoding="UTF-8"?>
<svg id="Layer_1" data-name="Layer 1" xmlns="http://www.w3.org/2000/svg" viewBox="0 0 938.73 374.83">
  <defs>
    <style>
      .cls-1 {
        fill: #FFF;
      }

      .cls-2 {
        fill: #b7201e;
      }
    </style>
  </defs>
  <g>
    <path class="cls-2" d="M428.47,64.36c.81,0,1.47-.66,1.47-1.47v-5.23c0-.81-.66-1.47-1.47-1.47h-3.53v-30.59c0-.81.66-1.47,1.47-1.47h2.06c.81,0,1.47-.66,1.47-1.47v-5.23c0-.81-.66-1.47-1.47-1.47h-2.06c-.81,0-1.47-.66-1.47-1.47V1.47c0-.81-.66-1.47-1.47-1.47h-4.77c-.81,0-1.47.66-1.47,1.47v13.04c0,.81-.66,1.47-1.47,1.47h-109.77c-.81,0-1.47-.66-1.47-1.47V1.47c0-.81-.66-1.47-1.47-1.47h-4.77c-.81,0-1.47.66-1.47,1.47v13.04c0,.81-.66,1.47-1.47,1.47h-2.06c-.81,0-1.47.66-1.47,1.47v5.23c0,.81.66,1.47,1.47,1.47h2.06c.81,0,1.47.66,1.47,1.47v30.59h-3.53c-.81,0-1.47.66-1.47,1.47v5.23c0,.81.66,1.47,1.47,1.47h3.53v37.02h-3.53c-.81,0-1.47.66-1.47,1.47v5.23c0,.81.66,1.47,1.47,1.47h3.53v49.04h-3.53c-.81,0-1.47.66-1.47,1.47v5.23c0,.81.66,1.47,1.47,1.47h3.53v49.04h-3.53c-.81,0-1.47.66-1.47,1.47v5.23c0,.81.66,1.47,1.47,1.47h14.76c.81,0,1.47-.66,1.47-1.47v-5.23c0-.81-.66-1.47-1.47-1.47h-3.53v-7.58l23.45-16.77v-10.03l-23.45,16.76v-31.42h3.53c.81,0,1.47-.66,1.47-1.47v-5.23c0-.81-.66-1.47-1.47-1.47h-3.53v-49.04h112.7v106.24h-3.53c-.81,0-1.47.66-1.47,1.47v5.23c0,.81.66,1.47,1.47,1.47h14.76c.81,0,1.47-.66,1.47-1.47v-5.23c0-.81-.66-1.47-1.47-1.47h-3.53v-106.24h3.53c.81,0,1.47-.66,1.47-1.47v-5.23c0-.81-.66-1.47-1.47-1.47h-3.53v-37.02h3.53ZM405.46,24.14l-45.83,32.77-45.83-32.77h91.67ZM308.07,56.2h-3.53v-28.64l48.07,34.37-48.07,34.37v-31.94h3.53c.81,0,1.47-.66,1.47-1.47v-5.23c0-.81-.66-1.47-1.47-1.47ZM359.63,66.95l48.16,34.44h-96.32l48.16-34.44ZM417.24,98.11l-50.6-36.18,50.6-36.18v30.45h-3.53c-.81,0-1.47.66-1.47,1.47v5.23c0,.81.66,1.47,1.47,1.47h3.53v33.75Z"/>
    <g>
      <path class="cls-1" d="M646.62,184.71c-.59-3.71-4.5-4.27-7.65-3.87-.68-8.55.92-18.48,0-26.86-.55-5.03-3.7-8.73-8.19-10.73-9.19-4.09-21.26-5.19-30.65-9.24-7.37-10.74-12.67-24.12-20.08-34.66-3.76-5.36-8.43-8.21-15-9.04l-51.58.06c-.45.09-.55.44-.76.78-1.5,2.43-.25,14.35-.28,17.91-.14,21.35-.55,42.74-.32,64.1h-7.67l-.43-35.83-.08-6.11h-192.58c-1.33,0-3.93,2.56-4.24,3.94-.93,4.08,1.98,6.22,5.55,7.11.6,7.75-.91,16.92-.03,24.5.14,1.19.35,2.46,1.28,3.32h21.74v23.27c0,1.34,4.29,2.23,5.45,2.26,4.35.12,9.19-.64,13.76-.5.86.03,1.51.18,2.27.54,4.14-27.46,40.59-37.13,56.39-13.16,1.43,2.17,2.43,4.3,3.11,6.4.66,2.05,1.02,4.08,1.19,6.11h31.73c4.64-.03,9.29-.03,13.93,0,12.93.07,25.86.29,38.76.46,1.77.03,9.36-1.06,10.18.16.27,3.19.53,5.11,4.1,5.61l46.76.05c-.47-13.07,8.4-26.93,20.96-30.95,5.85-1.87,14.19-1.89,20.07-.11,12.76,3.89,21.46,17.9,20.35,31.06,5.75-.5,12.55.66,18.17.01,2.37-.28,3.57-1.48,3.84-3.84.3-2.58.35-10.3-.04-12.77ZM361.74,159.36h-40.42v-17.39h40.42v17.39ZM425.17,141.97h69.05v17.39h-69.05v-17.39ZM370.44,159.36v-17.39h46.55v17.39h-46.55ZM546.39,136.34h-11c-1.69,0-2.64-1.78-2.82-3.31-.64-5.4-.64-20.71,0-26.11.1-.85,1.01-3.31,1.8-3.31h11.25l.77.77v31.97ZM552.27,136.34l-.77-.77v-31.97h14.07c2.52,0,4.33,2.29,5.59,4.13,3.75,5.48,7.88,13.57,11.12,19.56,1.59,2.93,3.24,5.96,4.52,9.04h-34.53Z"/>
      <path class="cls-1" d="M387.85,175.38c-13.38,0-24.21,10.84-24.21,24.21s10.84,24.21,24.21,24.21,24.21-10.84,24.21-24.21-10.84-24.21-24.21-24.21ZM387.81,210.24c-5.84,0-10.58-4.74-10.58-10.58s4.74-10.58,10.58-10.58,10.58,4.74,10.58,10.58-4.74,10.58-10.58,10.58Z"/>
      <path class="cls-1" d="M594.28,175.39c-13.38,0-24.22,10.84-24.22,24.22s10.84,24.22,24.22,24.22,24.23-10.84,24.23-24.22-10.85-24.22-24.23-24.22ZM594.43,210.29c-5.87,0-10.63-4.76-10.63-10.62s4.76-10.63,10.63-10.63,10.62,4.76,10.62,10.63-4.76,10.62-10.62,10.62Z"/>
    </g>
    <path class="cls-1" d="M444.09,223.46c-.55-.15-2.07-2.03-2.19-2.82-.92-6.49,10.39-9.21,10.57-9.97-.16-7.61.11-15.23-.01-22.84-.41-25.26-.37-51.11-1.91-76.07l1.88-21.39c-7.4,2.43-16.17-.56-15.42-9.52.57-6.89,11.29-29.79,16.72-34.07,5.35-4.23,9.55-2.99,14.82-4.99,5.07-1.93.03-6.47-.94-9.61-.76-2.45-1.22-11.05-1.63-11.68-.18-.27-2.2-.56-2.97-1.05-3.33-2.16.9-2.95,1.85-4.26,1.79-2.46,1.46-5.71,5.22-8.39,4.25-3.03,12.39-2.54,16.1,1.24,2.77,2.82,2.18,6.04,3.54,8.84.75,1.53,2.8,2.1,2.34,4.15l-3.68.65c.23,3.74-.56,7.41-1.76,10.93-.57,1.68-2.42,2.74-1.9,4.68.16.57,2.99,3.99,3.65,4.45,6.52,4.56,13.6,1.83,16.88,12.21,2.12,6.73-1.03,24.94-4.41,31.25-8.13,15.22-22.8,6.91-34.77,2.97-.61-.2-1.99-.85-1.86.32,9.77,4.16,22.07,10.8,32.18,4.34-1.98,6.07.72,13.2.02,18.9-1.69,13.81,1.51,30.74,3.08,45.16,1.75,16.05,4.31,32.2,5.57,48.29.31,3.92-.43,9.02.04,12.35.16,1.16,1.14,2.11,1.16,3.12.07,4.54-7.49,2.83-10.14,2.76-1.99-.05-8.96.75-9.53-.99-1.13-4.81,1.53-7.55,3.32-11.43l-17.02-74.84-3.2,81.89c-.12,3.01-2.59,5.39-5.6,5.39h-19.99ZM453.69,64.99l-1.79,10.12.94.93c5.34.54,10.6-1.16,15.96-.48,4.07.52,12.26,4.97,15.83,3.34,3.66-1.67,2.37-10.94,3.1-14.53-2.04.99-3.24,11.69-4.07,11.8l-28.73-3.14-1.23-8.04Z"/>
  </g>
  <g>
    <path class="cls-1" d="M0,370.29v-14.62h5c1.67,0,3.05.3,4.13.91,1.09.61,1.89,1.46,2.42,2.55.53,1.09.79,2.38.79,3.85s-.26,2.76-.79,3.85-1.33,1.94-2.42,2.55c-1.09.61-2.46.91-4.13.91H0ZM2.77,367.87h2.07c1.19,0,2.12-.2,2.8-.58.68-.39,1.16-.95,1.45-1.68.29-.73.43-1.6.43-2.62s-.14-1.91-.43-2.64c-.29-.73-.77-1.29-1.45-1.68-.68-.39-1.61-.58-2.8-.58h-2.07v9.8Z"/>
    <path class="cls-1" d="M19.07,370.54c-1.04,0-1.96-.22-2.76-.67-.8-.44-1.42-1.07-1.88-1.88s-.68-1.73-.68-2.78.22-2.04.67-2.87c.44-.83,1.07-1.48,1.87-1.95.8-.47,1.73-.71,2.8-.71s1.9.22,2.67.67c.77.45,1.37,1.06,1.8,1.83.44.77.66,1.65.66,2.62v.47c0,.17-.01.35-.04.53h-8.45v-1.73h5.68c-.04-.65-.28-1.18-.71-1.57-.43-.39-.97-.58-1.61-.58-.48,0-.92.11-1.31.32-.4.22-.71.54-.94.98-.23.44-.35.99-.35,1.66v.6c0,.57.11,1.06.33,1.47s.52.73.91.95c.39.22.83.33,1.32.33s.93-.12,1.27-.34c.34-.23.6-.53.78-.89h2.83c-.21.66-.53,1.25-.98,1.79-.45.54-1.01.96-1.66,1.27-.66.31-1.39.47-2.22.47ZM16.63,359.04v-2.11l4.61-2.38h.06v2.23l-4.68,2.26Z"/>
    <path class="cls-1" d="M25.7,370.29v-10.36h2.42l.25,1.65h.06c.31-.63.75-1.1,1.3-1.42.55-.32,1.2-.48,1.94-.48.51,0,.97.07,1.39.21.42.14.8.36,1.13.65.33.29.6.67.82,1.13h.06c.38-.63.86-1.11,1.45-1.46s1.29-.52,2.12-.52,1.52.18,2.1.55c.58.37,1.03.91,1.34,1.62.31.71.47,1.59.47,2.63v5.81h-2.75v-5.56c0-.86-.16-1.52-.49-1.98-.33-.46-.85-.69-1.56-.69-.45,0-.84.1-1.18.31-.34.21-.6.52-.79.92-.19.4-.29.91-.29,1.5v5.49h-2.75v-5.56c0-.86-.16-1.52-.49-1.98s-.85-.69-1.56-.69c-.41,0-.79.11-1.13.34-.34.23-.61.56-.81.98-.2.42-.3.94-.3,1.56v5.35h-2.77Z"/>
    <path class="cls-1" d="M49.24,370.54c-.98,0-1.87-.23-2.67-.69-.79-.46-1.42-1.1-1.88-1.92-.46-.82-.69-1.76-.69-2.82s.23-2.01.7-2.83c.47-.81,1.09-1.45,1.89-1.91.79-.46,1.67-.69,2.65-.69s1.87.23,2.67.69,1.42,1.1,1.88,1.91.69,1.76.69,2.83-.23,2.02-.7,2.83c-.47.81-1.09,1.45-1.88,1.91s-1.67.69-2.66.69ZM49.22,368.16c.45,0,.86-.12,1.22-.34.36-.23.66-.57.88-1.02.23-.45.34-1.01.34-1.68s-.11-1.25-.34-1.7c-.23-.45-.52-.79-.88-1.01-.36-.22-.76-.33-1.18-.33s-.84.11-1.21.33c-.37.22-.66.56-.88,1.01-.22.45-.33,1.02-.33,1.7s.11,1.23.33,1.68c.22.45.51.79.87,1.02.36.23.76.34,1.18.34Z"/>
    <path class="cls-1" d="M56.05,370.29v-10.36h2.38l.23,1.69h.06c.33-.6.78-1.07,1.35-1.42.57-.35,1.28-.52,2.11-.52s1.57.18,2.15.55c.59.37,1.04.91,1.34,1.62.31.71.46,1.59.46,2.63v5.81h-2.75v-5.56c0-.86-.17-1.52-.51-1.98s-.89-.69-1.64-.69c-.47,0-.88.11-1.25.34-.37.23-.66.56-.86.98s-.31.94-.31,1.56v5.35h-2.77Z"/>
    <path class="cls-1" d="M72.55,370.29c-.72,0-1.36-.12-1.9-.34-.54-.23-.96-.61-1.26-1.15-.3-.54-.45-1.27-.45-2.2v-4.39h-1.74v-2.28h1.74l.31-2.82h2.46v2.82h2.71v2.28h-2.71v4.43c0,.49.1.83.31,1.01.21.19.55.28,1.05.28h1.29v2.36h-1.8Z"/>
    <path class="cls-1" d="M79.03,370.54c-.82,0-1.5-.14-2.03-.42-.53-.28-.93-.65-1.18-1.13-.25-.47-.38-.99-.38-1.57,0-.64.16-1.2.48-1.69.32-.49.81-.87,1.47-1.14.66-.27,1.48-.41,2.48-.41h2.56c0-.52-.07-.94-.22-1.27-.14-.33-.36-.58-.66-.74-.29-.16-.67-.24-1.12-.24-.53,0-.99.12-1.36.35-.38.24-.61.61-.71,1.13h-2.69c.08-.76.33-1.43.75-1.98.42-.56.97-.99,1.66-1.3.69-.31,1.47-.46,2.35-.46.98,0,1.83.16,2.54.49.71.33,1.26.81,1.64,1.44.38.63.57,1.4.57,2.31v6.37h-2.32l-.29-1.61h-.06c-.19.31-.41.57-.66.8-.25.23-.51.42-.8.57-.29.15-.6.27-.95.35-.35.08-.71.13-1.1.13ZM79.9,368.37c.37,0,.7-.07.98-.2s.53-.31.73-.53c.2-.22.36-.48.47-.78.12-.3.2-.61.24-.93h-2.13c-.42,0-.77.05-1.04.16-.27.1-.46.25-.58.44-.12.19-.18.41-.18.66s.06.47.18.65c.12.18.3.32.53.41s.5.14.8.14Z"/>
    <path class="cls-1" d="M91.67,374.83c-.97,0-1.82-.12-2.55-.37-.73-.24-1.3-.6-1.7-1.07-.4-.47-.61-1.04-.61-1.72,0-.47.12-.92.37-1.34s.61-.8,1.09-1.14c.48-.34,1.07-.64,1.76-.89l1.01,1.38c-.6.21-1.04.46-1.31.76s-.41.63-.41.99c0,.29.1.54.3.74s.48.35.83.46c.36.1.77.16,1.23.16s.83-.06,1.15-.17c.31-.11.56-.27.73-.47.17-.2.26-.44.26-.72,0-.36-.13-.65-.39-.87s-.77-.35-1.52-.41c-.7-.05-1.31-.14-1.85-.24-.53-.1-1-.23-1.4-.38-.4-.15-.75-.31-1.04-.49-.29-.18-.52-.36-.7-.54v-.48l2.19-2.32,1.7.63-2.3,2.53.76-1.27c.14.07.28.13.42.19.14.06.33.11.55.17.23.06.51.11.86.17s.79.1,1.32.15c.9.08,1.64.25,2.21.5.57.25,1,.59,1.27,1.02.27.43.41.96.41,1.59,0,.57-.17,1.12-.5,1.64-.34.52-.84.95-1.53,1.29-.68.34-1.56.51-2.62.51ZM91.69,367.22c-.86,0-1.6-.17-2.23-.5s-1.1-.79-1.44-1.36c-.33-.57-.5-1.2-.5-1.9s.17-1.33.5-1.9c.33-.57.81-1.03,1.44-1.37s1.36-.51,2.23-.51,1.6.17,2.22.51,1.1.8,1.43,1.37c.33.57.49,1.2.49,1.9s-.16,1.33-.49,1.9c-.33.57-.8,1.02-1.43,1.36s-1.36.5-2.22.5ZM91.67,365.15c.53,0,.97-.14,1.3-.43.33-.29.5-.71.5-1.26s-.17-.97-.5-1.25c-.34-.28-.76-.42-1.28-.42s-.97.14-1.31.42c-.34.28-.51.7-.51,1.25s.17.98.51,1.26c.34.29.77.43,1.29.43ZM93.35,361.86l-.45-1.92h4.27v1.57l-3.81.36Z"/>
    <path class="cls-1" d="M103.64,370.54c-1.04,0-1.96-.22-2.76-.67-.8-.44-1.42-1.07-1.88-1.88s-.68-1.73-.68-2.78.22-2.04.67-2.87c.44-.83,1.07-1.48,1.87-1.95.8-.47,1.73-.71,2.8-.71s1.9.22,2.67.67c.77.45,1.37,1.06,1.8,1.83.44.77.66,1.65.66,2.62v.47c0,.17-.01.35-.04.53h-8.45v-1.73h5.68c-.04-.65-.28-1.18-.71-1.57-.43-.39-.97-.58-1.61-.58-.48,0-.92.11-1.31.32-.4.22-.71.54-.94.98-.23.44-.35.99-.35,1.66v.6c0,.57.11,1.06.33,1.47s.52.73.91.95c.39.22.83.33,1.32.33s.93-.12,1.27-.34c.34-.23.6-.53.78-.89h2.83c-.21.66-.53,1.25-.98,1.79-.45.54-1.01.96-1.66,1.27-.66.31-1.39.47-2.22.47Z"/>
    <path class="cls-1" d="M119.54,370.54c-1.04,0-1.96-.22-2.76-.67-.8-.44-1.42-1.07-1.88-1.88s-.68-1.73-.68-2.78.22-2.04.67-2.87c.44-.83,1.07-1.48,1.87-1.95.8-.47,1.73-.71,2.8-.71s1.9.22,2.67.67c.77.45,1.37,1.06,1.8,1.83.44.77.66,1.65.66,2.62v.47c0,.17-.01.35-.04.53h-8.45v-1.73h5.68c-.04-.65-.28-1.18-.71-1.57-.43-.39-.97-.58-1.61-.58-.48,0-.92.11-1.31.32-.4.22-.71.54-.94.98-.23.44-.35.99-.35,1.66v.6c0,.57.11,1.06.33,1.47s.52.73.91.95c.39.22.83.33,1.32.33s.93-.12,1.27-.34c.34-.23.6-.53.78-.89h2.83c-.21.66-.53,1.25-.98,1.79-.45.54-1.01.96-1.66,1.27-.66.31-1.39.47-2.22.47ZM117.1,359.04v-2.11l4.61-2.38h.06v2.23l-4.68,2.26Z"/>
    <path class="cls-1" d="M131.2,370.54c-1.08,0-2.02-.23-2.82-.7-.8-.47-1.42-1.11-1.87-1.92-.44-.81-.67-1.75-.67-2.81s.23-1.99.69-2.81c.46-.81,1.09-1.45,1.89-1.92s1.73-.7,2.78-.7c1.31,0,2.42.35,3.32,1.04.9.7,1.47,1.66,1.7,2.88h-2.93c-.11-.49-.36-.87-.75-1.15-.39-.28-.84-.42-1.36-.42-.48,0-.91.12-1.28.37-.38.24-.67.59-.89,1.05-.22.46-.33,1.01-.33,1.65,0,.47.06.9.18,1.26s.3.69.52.95c.23.26.49.47.79.6.3.14.64.21,1.01.21s.68-.06.96-.18c.29-.12.53-.29.74-.52.21-.23.34-.5.41-.82h2.93c-.23,1.2-.8,2.15-1.7,2.86-.9.71-2.01,1.06-3.32,1.06Z"/>
    <path class="cls-1" d="M137.89,370.29v-14.72h2.73v6.06h.06c.36-.63.82-1.11,1.39-1.44.57-.33,1.25-.5,2.03-.5.82,0,1.52.18,2.1.55.58.37,1.02.91,1.32,1.62.3.71.45,1.59.45,2.63v5.81h-2.75v-5.56c0-.86-.17-1.52-.5-1.98-.34-.46-.87-.69-1.61-.69-.48,0-.9.11-1.27.34-.37.23-.66.56-.87.98-.21.42-.32.94-.32,1.56v5.35h-2.77Z"/>
    <path class="cls-1" d="M153.11,370.54c-.82,0-1.5-.14-2.03-.42-.53-.28-.93-.65-1.18-1.13-.25-.47-.38-.99-.38-1.57,0-.64.16-1.2.48-1.69.32-.49.81-.87,1.47-1.14.66-.27,1.48-.41,2.48-.41h2.56c0-.52-.07-.94-.22-1.27-.14-.33-.36-.58-.66-.74-.29-.16-.67-.24-1.12-.24-.53,0-.99.12-1.36.35-.38.24-.61.61-.71,1.13h-2.69c.08-.76.33-1.43.75-1.98.42-.56.97-.99,1.66-1.3.69-.31,1.47-.46,2.35-.46.98,0,1.83.16,2.54.49.71.33,1.26.81,1.64,1.44.38.63.57,1.4.57,2.31v6.37h-2.32l-.29-1.61h-.06c-.19.31-.41.57-.66.8-.25.23-.51.42-.8.57-.29.15-.6.27-.95.35-.35.08-.71.13-1.1.13ZM153.97,368.37c.37,0,.7-.07.98-.2s.53-.31.73-.53c.2-.22.36-.48.47-.78.12-.3.2-.61.24-.93h-2.13c-.42,0-.77.05-1.04.16-.27.1-.46.25-.58.44-.12.19-.18.41-.18.66s.06.47.18.65c.12.18.3.32.53.41s.5.14.8.14Z"/>
    <path class="cls-1" d="M160.34,362.21v-2.28h6.3v2.28h-6.3ZM161.74,370.29v-11.15c0-.88.14-1.57.43-2.09.29-.52.7-.89,1.23-1.13.53-.24,1.16-.35,1.89-.35h1.15v2.36h-.72c-.44,0-.75.09-.93.26-.19.17-.28.48-.28.91v11.19h-2.77Z"/>
    <path class="cls-1" d="M171.01,370.54c-.82,0-1.5-.14-2.03-.42-.53-.28-.93-.65-1.18-1.13-.25-.47-.38-.99-.38-1.57,0-.64.16-1.2.48-1.69.32-.49.81-.87,1.47-1.14.66-.27,1.48-.41,2.48-.41h2.56c0-.52-.07-.94-.22-1.27-.14-.33-.36-.58-.66-.74-.29-.16-.67-.24-1.12-.24-.53,0-.99.12-1.36.35-.38.24-.61.61-.71,1.13h-2.69c.08-.76.33-1.43.75-1.98.42-.56.97-.99,1.66-1.3.69-.31,1.47-.46,2.35-.46.98,0,1.83.16,2.54.49.71.33,1.26.81,1.64,1.44.38.63.57,1.4.57,2.31v6.37h-2.32l-.29-1.61h-.06c-.19.31-.41.57-.66.8-.25.23-.51.42-.8.57-.29.15-.6.27-.95.35-.35.08-.71.13-1.1.13ZM171.87,368.37c.37,0,.7-.07.98-.2s.53-.31.73-.53c.2-.22.36-.48.47-.78.12-.3.2-.61.24-.93h-2.13c-.42,0-.77.05-1.04.16-.27.1-.46.25-.58.44-.12.19-.18.41-.18.66s.06.47.18.65c.12.18.3.32.53.41s.5.14.8.14Z"/>
    <path class="cls-1" d="M182.8,370.54c-.85,0-1.57-.18-2.15-.54-.59-.36-1.04-.9-1.35-1.62s-.47-1.6-.47-2.64v-5.81h2.77v5.56c0,.86.17,1.52.51,1.98.34.46.88.69,1.62.69.48,0,.9-.12,1.26-.34.36-.23.65-.56.85-.99.21-.43.31-.95.31-1.55v-5.35h2.77v10.36h-2.38l-.23-1.67h-.06c-.31.58-.76,1.05-1.33,1.4-.57.35-1.28.52-2.11.52Z"/>
    <path class="cls-1" d="M195.33,370.54c-.96,0-1.8-.23-2.52-.7-.72-.47-1.29-1.11-1.69-1.93-.4-.82-.6-1.76-.6-2.8s.2-1.98.6-2.8c.4-.82.97-1.47,1.71-1.93.74-.47,1.6-.7,2.58-.7.78,0,1.46.15,2.04.46.58.31,1.04.69,1.36,1.15v-5.72h2.77v14.72h-2.36l-.19-1.73h-.06c-.25.4-.55.75-.9,1.05s-.76.52-1.21.69-.96.25-1.54.25ZM196.09,368.18c.56,0,1.05-.13,1.47-.4s.74-.63.97-1.09c.23-.46.35-1,.35-1.61s-.12-1.13-.35-1.59c-.23-.46-.56-.82-.97-1.09-.42-.26-.91-.4-1.47-.4s-1.03.13-1.45.4c-.42.26-.74.63-.97,1.09-.23.46-.35.99-.35,1.59s.12,1.15.35,1.61c.23.46.56.82.97,1.09s.9.4,1.45.4Z"/>
    <path class="cls-1" d="M206.92,370.54c-.82,0-1.5-.14-2.03-.42-.53-.28-.93-.65-1.18-1.13-.25-.47-.38-.99-.38-1.57,0-.64.16-1.2.48-1.69.32-.49.81-.87,1.47-1.14.66-.27,1.48-.41,2.48-.41h2.56c0-.52-.07-.94-.22-1.27-.14-.33-.36-.58-.66-.74-.29-.16-.67-.24-1.12-.24-.53,0-.99.12-1.36.35-.38.24-.61.61-.71,1.13h-2.69c.08-.76.33-1.43.75-1.98.42-.56.97-.99,1.66-1.3.69-.31,1.47-.46,2.35-.46.98,0,1.83.16,2.54.49.71.33,1.26.81,1.64,1.44.38.63.57,1.4.57,2.31v6.37h-2.32l-.29-1.61h-.06c-.19.31-.41.57-.66.8-.25.23-.51.42-.8.57-.29.15-.6.27-.95.35-.35.08-.71.13-1.1.13ZM207.78,368.37c.37,0,.7-.07.98-.2s.53-.31.73-.53c.2-.22.36-.48.47-.78.12-.3.2-.61.24-.93h-2.13c-.42,0-.77.05-1.04.16-.27.1-.46.25-.58.44-.12.19-.18.41-.18.66s.06.47.18.65c.12.18.3.32.53.41s.5.14.8.14Z"/>
    <path class="cls-1" d="M219.55,374.83c-.97,0-1.82-.12-2.55-.37-.73-.24-1.3-.6-1.7-1.07-.4-.47-.61-1.04-.61-1.72,0-.47.12-.92.37-1.34s.61-.8,1.09-1.14c.48-.34,1.07-.64,1.76-.89l1.01,1.38c-.6.21-1.04.46-1.31.76s-.41.63-.41.99c0,.29.1.54.3.74s.48.35.83.46c.36.1.77.16,1.23.16s.83-.06,1.15-.17c.31-.11.56-.27.73-.47.17-.2.26-.44.26-.72,0-.36-.13-.65-.39-.87s-.77-.35-1.52-.41c-.7-.05-1.31-.14-1.85-.24-.53-.1-1-.23-1.4-.38-.4-.15-.75-.31-1.04-.49-.29-.18-.52-.36-.7-.54v-.48l2.19-2.32,1.7.63-2.3,2.53.76-1.27c.14.07.28.13.42.19.14.06.33.11.55.17.23.06.51.11.86.17s.79.1,1.32.15c.9.08,1.64.25,2.21.5.57.25,1,.59,1.27,1.02.27.43.41.96.41,1.59,0,.57-.17,1.12-.5,1.64-.34.52-.84.95-1.53,1.29-.68.34-1.56.51-2.62.51ZM219.57,367.22c-.86,0-1.6-.17-2.23-.5s-1.1-.79-1.44-1.36c-.33-.57-.5-1.2-.5-1.9s.17-1.33.5-1.9c.33-.57.81-1.03,1.44-1.37s1.36-.51,2.23-.51,1.6.17,2.22.51,1.1.8,1.43,1.37c.33.57.49,1.2.49,1.9s-.16,1.33-.49,1.9c-.33.57-.8,1.02-1.43,1.36s-1.36.5-2.22.5ZM219.55,365.15c.53,0,.97-.14,1.3-.43.33-.29.5-.71.5-1.26s-.17-.97-.5-1.25c-.34-.28-.76-.42-1.28-.42s-.97.14-1.31.42c-.34.28-.51.7-.51,1.25s.17.98.51,1.26c.34.29.77.43,1.29.43ZM221.23,361.86l-.45-1.92h4.27v1.57l-3.81.36Z"/>
    <path class="cls-1" d="M231.52,370.54c-1.04,0-1.96-.22-2.76-.67-.8-.44-1.42-1.07-1.88-1.88s-.68-1.73-.68-2.78.22-2.04.67-2.87c.44-.83,1.07-1.48,1.87-1.95.8-.47,1.73-.71,2.8-.71s1.9.22,2.67.67c.77.45,1.37,1.06,1.8,1.83.44.77.66,1.65.66,2.62v.47c0,.17-.01.35-.04.53h-8.45v-1.73h5.68c-.04-.65-.28-1.18-.71-1.57-.43-.39-.97-.58-1.61-.58-.48,0-.92.11-1.31.32-.4.22-.71.54-.94.98-.23.44-.35.99-.35,1.66v.6c0,.57.11,1.06.33,1.47s.52.73.91.95c.39.22.83.33,1.32.33s.93-.12,1.27-.34c.34-.23.6-.53.78-.89h2.83c-.21.66-.53,1.25-.98,1.79-.45.54-1.01.96-1.66,1.27-.66.31-1.39.47-2.22.47Z"/>
    <path class="cls-2" d="M243.09,365.43v-2.36h8.65v2.36h-8.65Z"/>
    <path class="cls-1" d="M258.61,370.29v-14.62h3.57l4.18,9.55h.06l4.14-9.55h3.55v14.62h-2.77v-10.11h-.06l-3.59,8.02h-2.69l-3.57-8.02h-.06v10.11h-2.77Z"/>
    <path class="cls-1" d="M281.01,370.54c-.98,0-1.87-.23-2.67-.69-.79-.46-1.42-1.1-1.88-1.92-.46-.82-.69-1.76-.69-2.82s.23-2.01.7-2.83c.47-.81,1.09-1.45,1.89-1.91.79-.46,1.67-.69,2.65-.69s1.87.23,2.67.69,1.42,1.1,1.88,1.91.69,1.76.69,2.83-.23,2.02-.7,2.83c-.47.81-1.09,1.45-1.88,1.91s-1.67.69-2.66.69ZM280.99,368.16c.45,0,.86-.12,1.22-.34.36-.23.66-.57.88-1.02.23-.45.34-1.01.34-1.68s-.11-1.25-.34-1.7c-.23-.45-.52-.79-.88-1.01-.36-.22-.76-.33-1.18-.33s-.84.11-1.21.33c-.37.22-.66.56-.88,1.01-.22.45-.33,1.02-.33,1.7s.11,1.23.33,1.68c.22.45.51.79.87,1.02.36.23.76.34,1.18.34Z"/>
    <path class="cls-1" d="M287.82,370.29v-10.36h2.38l.23,1.69h.06c.33-.6.78-1.07,1.35-1.42.57-.35,1.28-.52,2.11-.52s1.57.18,2.15.55c.59.37,1.04.91,1.34,1.62.31.71.46,1.59.46,2.63v5.81h-2.75v-5.56c0-.86-.17-1.52-.51-1.98s-.89-.69-1.64-.69c-.47,0-.88.11-1.25.34-.37.23-.66.56-.86.98s-.31.94-.31,1.56v5.35h-2.77Z"/>
    <path class="cls-1" d="M304.32,370.29c-.72,0-1.36-.12-1.9-.34-.54-.23-.96-.61-1.26-1.15-.3-.54-.45-1.27-.45-2.2v-4.39h-1.74v-2.28h1.74l.31-2.82h2.46v2.82h2.71v2.28h-2.71v4.43c0,.49.1.83.31,1.01.21.19.55.28,1.05.28h1.29v2.36h-1.8Z"/>
    <path class="cls-1" d="M310.81,370.54c-.82,0-1.5-.14-2.03-.42-.53-.28-.93-.65-1.18-1.13-.25-.47-.38-.99-.38-1.57,0-.64.16-1.2.48-1.69.32-.49.81-.87,1.47-1.14.66-.27,1.48-.41,2.48-.41h2.56c0-.52-.07-.94-.22-1.27-.14-.33-.36-.58-.66-.74-.29-.16-.67-.24-1.12-.24-.53,0-.99.12-1.36.35-.38.24-.61.61-.71,1.13h-2.69c.08-.76.33-1.43.75-1.98.42-.56.97-.99,1.66-1.3.69-.31,1.47-.46,2.35-.46.98,0,1.83.16,2.54.49.71.33,1.26.81,1.64,1.44.38.63.57,1.4.57,2.31v6.37h-2.32l-.29-1.61h-.06c-.19.31-.41.57-.66.8-.25.23-.51.42-.8.57-.29.15-.6.27-.95.35-.35.08-.71.13-1.1.13ZM311.67,368.37c.37,0,.7-.07.98-.2s.53-.31.73-.53c.2-.22.36-.48.47-.78.12-.3.2-.61.24-.93h-2.13c-.42,0-.77.05-1.04.16-.27.1-.46.25-.58.44-.12.19-.18.41-.18.66s.06.47.18.65c.12.18.3.32.53.41s.5.14.8.14Z"/>
    <path class="cls-1" d="M323.44,374.83c-.97,0-1.82-.12-2.55-.37-.73-.24-1.3-.6-1.7-1.07-.4-.47-.61-1.04-.61-1.72,0-.47.12-.92.37-1.34s.61-.8,1.09-1.14c.48-.34,1.07-.64,1.76-.89l1.01,1.38c-.6.21-1.04.46-1.31.76s-.41.63-.41.99c0,.29.1.54.3.74s.48.35.83.46c.36.1.77.16,1.23.16s.83-.06,1.15-.17c.31-.11.56-.27.73-.47.17-.2.26-.44.26-.72,0-.36-.13-.65-.39-.87s-.77-.35-1.52-.41c-.7-.05-1.31-.14-1.85-.24-.53-.1-1-.23-1.4-.38-.4-.15-.75-.31-1.04-.49-.29-.18-.52-.36-.7-.54v-.48l2.19-2.32,1.7.63-2.3,2.53.76-1.27c.14.07.28.13.42.19.14.06.33.11.55.17.23.06.51.11.86.17s.79.1,1.32.15c.9.08,1.64.25,2.21.5.57.25,1,.59,1.27,1.02.27.43.41.96.41,1.59,0,.57-.17,1.12-.5,1.64-.34.52-.84.95-1.53,1.29-.68.34-1.56.51-2.62.51ZM323.46,367.22c-.86,0-1.6-.17-2.23-.5s-1.1-.79-1.44-1.36c-.33-.57-.5-1.2-.5-1.9s.17-1.33.5-1.9c.33-.57.81-1.03,1.44-1.37s1.36-.51,2.23-.51,1.6.17,2.22.51,1.1.8,1.43,1.37c.33.57.49,1.2.49,1.9s-.16,1.33-.49,1.9c-.33.57-.8,1.02-1.43,1.36s-1.36.5-2.22.5ZM323.44,365.15c.53,0,.97-.14,1.3-.43.33-.29.5-.71.5-1.26s-.17-.97-.5-1.25c-.34-.28-.76-.42-1.28-.42s-.97.14-1.31.42c-.34.28-.51.7-.51,1.25s.17.98.51,1.26c.34.29.77.43,1.29.43ZM325.12,361.86l-.45-1.92h4.27v1.57l-3.81.36Z"/>
    <path class="cls-1" d="M335.41,370.54c-1.04,0-1.96-.22-2.76-.67-.8-.44-1.42-1.07-1.88-1.88s-.68-1.73-.68-2.78.22-2.04.67-2.87c.44-.83,1.07-1.48,1.87-1.95.8-.47,1.73-.71,2.8-.71s1.9.22,2.67.67c.77.45,1.37,1.06,1.8,1.83.44.77.66,1.65.66,2.62v.47c0,.17-.01.35-.04.53h-8.45v-1.73h5.68c-.04-.65-.28-1.18-.71-1.57-.43-.39-.97-.58-1.61-.58-.48,0-.92.11-1.31.32-.4.22-.71.54-.94.98-.23.44-.35.99-.35,1.66v.6c0,.57.11,1.06.33,1.47s.52.73.91.95c.39.22.83.33,1.32.33s.93-.12,1.27-.34c.34-.23.6-.53.78-.89h2.83c-.21.66-.53,1.25-.98,1.79-.45.54-1.01.96-1.66,1.27-.66.31-1.39.47-2.22.47Z"/>
    <path class="cls-2" d="M346.98,365.43v-2.36h8.65v2.36h-8.65Z"/>
    <path class="cls-1" d="M367.42,370.54c-1.04,0-1.96-.22-2.76-.67-.8-.44-1.43-1.07-1.88-1.88-.45-.81-.68-1.73-.68-2.78s.22-2.04.67-2.87c.44-.83,1.07-1.48,1.87-1.95.8-.47,1.73-.71,2.8-.71,1.01,0,1.9.22,2.67.67.77.45,1.37,1.06,1.8,1.83.44.77.66,1.65.66,2.62v.47c0,.17-.01.35-.04.53h-8.45v-1.73h5.68c-.04-.65-.28-1.18-.71-1.57-.43-.39-.97-.58-1.61-.58-.48,0-.92.11-1.31.32s-.71.54-.94.98c-.23.44-.35.99-.35,1.66v.6c0,.57.11,1.06.33,1.47s.52.73.91.95c.39.22.83.33,1.32.33s.93-.12,1.27-.34c.34-.23.6-.53.78-.89h2.83c-.21.66-.53,1.25-.98,1.79-.45.54-1.01.96-1.66,1.27-.66.31-1.4.47-2.22.47ZM364.99,359.04v-2.11l4.61-2.38h.06v2.23l-4.68,2.26Z"/>
    <path class="cls-1" d="M379.09,370.54c-1.08,0-2.02-.23-2.82-.7-.8-.47-1.42-1.11-1.87-1.92-.44-.81-.67-1.75-.67-2.81s.23-1.99.69-2.81c.46-.81,1.09-1.45,1.89-1.92.8-.47,1.73-.7,2.78-.7,1.31,0,2.42.35,3.32,1.04.9.7,1.47,1.66,1.7,2.88h-2.93c-.11-.49-.36-.87-.75-1.15-.39-.28-.85-.42-1.36-.42-.48,0-.91.12-1.28.37-.38.24-.67.59-.89,1.05s-.33,1.01-.33,1.65c0,.47.06.9.18,1.26.12.37.3.69.52.95.23.26.49.47.79.6.3.14.64.21,1.01.21s.68-.06.96-.18.53-.29.74-.52c.2-.23.34-.5.41-.82h2.93c-.23,1.2-.8,2.15-1.7,2.86-.9.71-2.01,1.06-3.32,1.06Z"/>
    <path class="cls-1" d="M385.78,370.29v-14.72h2.73v6.06h.06c.36-.63.82-1.11,1.39-1.44s1.25-.5,2.03-.5c.82,0,1.52.18,2.1.55.58.37,1.02.91,1.32,1.62.3.71.45,1.59.45,2.63v5.81h-2.75v-5.56c0-.86-.17-1.52-.5-1.98-.34-.46-.87-.69-1.61-.69-.48,0-.9.11-1.27.34-.37.23-.66.56-.87.98s-.32.94-.32,1.56v5.35h-2.77Z"/>
    <path class="cls-1" d="M400.99,370.54c-.82,0-1.5-.14-2.03-.42-.53-.28-.93-.65-1.18-1.13s-.38-.99-.38-1.57c0-.64.16-1.2.48-1.69.32-.49.81-.87,1.47-1.14.66-.27,1.48-.41,2.48-.41h2.56c0-.52-.07-.94-.21-1.27-.14-.33-.36-.58-.66-.74-.29-.16-.67-.24-1.12-.24-.53,0-.99.12-1.36.35-.38.24-.61.61-.71,1.13h-2.69c.08-.76.33-1.43.75-1.98.42-.56.97-.99,1.66-1.3.69-.31,1.47-.46,2.35-.46.98,0,1.83.16,2.54.49.71.33,1.26.81,1.64,1.44s.57,1.4.57,2.31v6.37h-2.32l-.29-1.61h-.06c-.19.31-.41.57-.66.8-.25.23-.51.42-.8.57-.29.15-.6.27-.95.35s-.71.13-1.1.13ZM401.86,368.37c.37,0,.7-.07.98-.2.29-.13.53-.31.73-.53.2-.22.36-.48.47-.78.12-.3.19-.61.24-.93h-2.13c-.42,0-.77.05-1.04.16-.27.1-.46.25-.58.44-.12.19-.18.41-.18.66s.06.47.18.65c.12.18.3.32.53.41.23.09.5.14.8.14Z"/>
    <path class="cls-1" d="M408.23,362.21v-2.28h6.3v2.28h-6.3ZM409.63,370.29v-11.15c0-.88.14-1.57.43-2.09.29-.52.7-.89,1.23-1.13.53-.24,1.16-.35,1.89-.35h1.15v2.36h-.72c-.44,0-.75.09-.93.26s-.28.48-.28.91v11.19h-2.77Z"/>
    <path class="cls-1" d="M418.9,370.54c-.82,0-1.5-.14-2.03-.42-.53-.28-.93-.65-1.18-1.13-.25-.47-.38-.99-.38-1.57,0-.64.16-1.2.48-1.69.32-.49.81-.87,1.47-1.14.66-.27,1.48-.41,2.48-.41h2.56c0-.52-.07-.94-.22-1.27s-.36-.58-.66-.74c-.29-.16-.67-.24-1.12-.24-.53,0-.99.12-1.36.35-.38.24-.61.61-.71,1.13h-2.69c.08-.76.33-1.43.75-1.98.42-.56.97-.99,1.66-1.3.69-.31,1.47-.46,2.35-.46.98,0,1.83.16,2.54.49s1.26.81,1.64,1.44c.38.63.57,1.4.57,2.31v6.37h-2.32l-.29-1.61h-.06c-.19.31-.41.57-.66.8-.25.23-.51.42-.8.57-.29.15-.6.27-.95.35-.35.08-.71.13-1.1.13ZM419.76,368.37c.37,0,.7-.07.98-.2.29-.13.53-.31.73-.53.2-.22.36-.48.47-.78.12-.3.2-.61.24-.93h-2.13c-.42,0-.77.05-1.04.16-.27.1-.46.25-.58.44-.12.19-.18.41-.18.66s.06.47.18.65.3.32.53.41c.23.09.5.14.8.14Z"/>
    <path class="cls-1" d="M430.69,370.54c-.85,0-1.57-.18-2.15-.54-.59-.36-1.04-.9-1.35-1.62-.32-.72-.47-1.6-.47-2.64v-5.81h2.77v5.56c0,.86.17,1.52.51,1.98s.88.69,1.62.69c.48,0,.9-.12,1.26-.34.36-.23.65-.56.85-.99.21-.43.31-.95.31-1.55v-5.35h2.77v10.36h-2.38l-.22-1.67h-.06c-.32.58-.76,1.05-1.33,1.4-.57.35-1.28.52-2.11.52Z"/>
    <path class="cls-1" d="M443.22,370.54c-.96,0-1.8-.23-2.52-.7-.72-.47-1.29-1.11-1.69-1.93-.4-.82-.6-1.76-.6-2.8s.2-1.98.6-2.8c.4-.82.97-1.47,1.71-1.93.74-.47,1.6-.7,2.58-.7.78,0,1.46.15,2.04.46.58.31,1.04.69,1.36,1.15v-5.72h2.77v14.72h-2.36l-.18-1.73h-.06c-.25.4-.55.75-.9,1.05s-.76.52-1.21.69c-.45.17-.96.25-1.54.25ZM443.98,368.18c.56,0,1.05-.13,1.47-.4.42-.26.74-.63.97-1.09.23-.46.35-1,.35-1.61s-.12-1.13-.35-1.59c-.23-.46-.56-.82-.97-1.09-.42-.26-.91-.4-1.47-.4s-1.03.13-1.45.4c-.42.26-.74.63-.97,1.09-.23.46-.35.99-.35,1.59s.12,1.15.35,1.61c.23.46.56.82.97,1.09.42.26.9.4,1.45.4Z"/>
    <path class="cls-1" d="M454.81,370.54c-.82,0-1.5-.14-2.03-.42-.53-.28-.93-.65-1.18-1.13s-.38-.99-.38-1.57c0-.64.16-1.2.48-1.69.32-.49.81-.87,1.47-1.14.66-.27,1.48-.41,2.48-.41h2.56c0-.52-.07-.94-.22-1.27-.14-.33-.36-.58-.66-.74-.3-.16-.67-.24-1.12-.24-.53,0-.99.12-1.36.35-.38.24-.61.61-.71,1.13h-2.69c.08-.76.33-1.43.75-1.98.42-.56.97-.99,1.66-1.3.69-.31,1.47-.46,2.35-.46.98,0,1.83.16,2.54.49.71.33,1.26.81,1.64,1.44s.57,1.4.57,2.31v6.37h-2.32l-.29-1.61h-.06c-.19.31-.41.57-.66.8-.24.23-.51.42-.8.57-.29.15-.6.27-.95.35s-.72.13-1.1.13ZM455.67,368.37c.37,0,.7-.07.98-.2.29-.13.53-.31.73-.53.2-.22.36-.48.47-.78.12-.3.19-.61.23-.93h-2.13c-.42,0-.77.05-1.04.16-.27.1-.46.25-.58.44-.12.19-.18.41-.18.66s.06.47.18.65c.12.18.3.32.53.41.23.09.5.14.8.14Z"/>
    <path class="cls-1" d="M467.44,374.83c-.97,0-1.82-.12-2.55-.37s-1.3-.6-1.7-1.07-.6-1.04-.6-1.72c0-.47.12-.92.37-1.34.24-.42.61-.8,1.09-1.14.48-.34,1.07-.64,1.76-.89l1.01,1.38c-.6.21-1.04.46-1.31.76-.28.3-.41.63-.41.99,0,.29.1.54.3.74s.48.35.83.46c.36.1.77.16,1.23.16s.83-.06,1.15-.17c.31-.11.56-.27.73-.47.17-.2.26-.44.26-.72,0-.36-.13-.65-.39-.87s-.77-.35-1.52-.41c-.7-.05-1.31-.14-1.85-.24-.53-.1-1-.23-1.4-.38-.4-.15-.75-.31-1.04-.49-.29-.18-.52-.36-.7-.54v-.48l2.19-2.32,1.7.63-2.3,2.53.76-1.27c.14.07.28.13.42.19s.33.11.55.17c.22.06.51.11.86.17s.79.1,1.32.15c.9.08,1.64.25,2.22.5.57.25,1,.59,1.27,1.02.27.43.41.96.41,1.59,0,.57-.17,1.12-.5,1.64-.33.52-.84.95-1.53,1.29-.68.34-1.56.51-2.62.51ZM467.46,367.22c-.86,0-1.6-.17-2.22-.5-.62-.33-1.1-.79-1.44-1.36-.34-.57-.5-1.2-.5-1.9s.17-1.33.5-1.9c.33-.57.81-1.03,1.44-1.37.62-.34,1.36-.51,2.22-.51s1.6.17,2.22.51,1.1.8,1.43,1.37c.33.57.49,1.2.49,1.9s-.16,1.33-.49,1.9c-.33.57-.8,1.02-1.43,1.36s-1.36.5-2.22.5ZM467.44,365.15c.53,0,.97-.14,1.3-.43.33-.29.5-.71.5-1.26s-.17-.97-.5-1.25c-.34-.28-.76-.42-1.28-.42s-.97.14-1.31.42c-.34.28-.51.7-.51,1.25s.17.98.51,1.26.77.43,1.29.43ZM469.12,361.86l-.45-1.92h4.27v1.57l-3.81.36Z"/>
    <path class="cls-1" d="M479.41,370.54c-1.04,0-1.96-.22-2.76-.67-.8-.44-1.43-1.07-1.88-1.88-.45-.81-.68-1.73-.68-2.78s.22-2.04.67-2.87c.44-.83,1.07-1.48,1.87-1.95.8-.47,1.73-.71,2.8-.71s1.9.22,2.67.67c.76.45,1.37,1.06,1.8,1.83.44.77.66,1.65.66,2.62v.47c0,.17-.01.35-.04.53h-8.45v-1.73h5.68c-.04-.65-.28-1.18-.71-1.57-.43-.39-.97-.58-1.61-.58-.48,0-.92.11-1.31.32-.4.22-.71.54-.94.98-.23.44-.35.99-.35,1.66v.6c0,.57.11,1.06.33,1.47.22.41.52.73.91.95.39.22.83.33,1.32.33s.93-.12,1.27-.34c.34-.23.6-.53.78-.89h2.83c-.2.66-.53,1.25-.98,1.79-.45.54-1.01.96-1.66,1.27-.66.31-1.39.47-2.21.47Z"/>
    <path class="cls-2" d="M490.98,365.43v-2.36h8.65v2.36h-8.65Z"/>
    <path class="cls-1" d="M506.5,370.29v-14.62h5.41c1.16,0,2.12.2,2.88.6.76.4,1.32.94,1.69,1.62s.55,1.45.55,2.32c0,.79-.18,1.53-.53,2.21-.36.68-.91,1.24-1.67,1.66s-1.73.64-2.92.64h-2.65v5.58h-2.77ZM509.27,362.44h2.46c.89,0,1.52-.2,1.91-.61.38-.4.57-.95.57-1.63s-.19-1.26-.57-1.65-1.02-.58-1.91-.58h-2.46v4.47Z"/>
    <path class="cls-1" d="M518.54,370.29v-14.72h2.77v14.72h-2.77Z"/>
    <path class="cls-1" d="M526.64,370.54c-.82,0-1.5-.14-2.03-.42-.53-.28-.93-.65-1.18-1.13s-.38-.99-.38-1.57c0-.64.16-1.2.48-1.69.32-.49.81-.87,1.47-1.14.66-.27,1.48-.41,2.48-.41h2.56c0-.52-.07-.94-.22-1.27-.14-.33-.36-.58-.66-.74-.3-.16-.67-.24-1.12-.24-.53,0-.99.12-1.36.35-.38.24-.61.61-.71,1.13h-2.69c.08-.76.33-1.43.75-1.98.42-.56.97-.99,1.66-1.3.69-.31,1.47-.46,2.35-.46.98,0,1.83.16,2.54.49.71.33,1.26.81,1.64,1.44s.57,1.4.57,2.31v6.37h-2.32l-.29-1.61h-.06c-.19.31-.41.57-.66.8-.24.23-.51.42-.8.57-.29.15-.6.27-.95.35s-.72.13-1.1.13ZM527.5,368.37c.37,0,.7-.07.98-.2.29-.13.53-.31.73-.53.2-.22.36-.48.47-.78.12-.3.19-.61.23-.93h-2.13c-.42,0-.77.05-1.04.16-.27.1-.46.25-.58.44-.12.19-.18.41-.18.66s.06.47.18.65c.12.18.3.32.53.41.23.09.5.14.8.14Z"/>
    <path class="cls-1" d="M534.58,370.29v-10.36h2.38l.23,1.69h.06c.33-.6.78-1.07,1.35-1.42.57-.35,1.28-.52,2.11-.52s1.57.18,2.15.55c.59.37,1.04.91,1.34,1.62.31.71.46,1.59.46,2.63v5.81h-2.75v-5.56c0-.86-.17-1.52-.51-1.98-.34-.46-.89-.69-1.64-.69-.47,0-.88.11-1.25.34-.37.23-.66.56-.86.98-.2.42-.31.94-.31,1.56v5.35h-2.77Z"/>
    <path class="cls-1" d="M555.72,370.54c-1.04,0-1.96-.22-2.76-.67-.8-.44-1.43-1.07-1.88-1.88-.45-.81-.68-1.73-.68-2.78s.22-2.04.67-2.87c.44-.83,1.07-1.48,1.87-1.95.8-.47,1.73-.71,2.8-.71s1.9.22,2.67.67c.76.45,1.37,1.06,1.8,1.83.44.77.66,1.65.66,2.62v.47c0,.17-.01.35-.04.53h-8.45v-1.73h5.68c-.04-.65-.28-1.18-.71-1.57-.43-.39-.97-.58-1.61-.58-.48,0-.92.11-1.31.32-.4.22-.71.54-.94.98-.23.44-.35.99-.35,1.66v.6c0,.57.11,1.06.33,1.47.22.41.52.73.91.95.39.22.83.33,1.32.33s.93-.12,1.27-.34c.34-.23.6-.53.78-.89h2.83c-.2.66-.53,1.25-.98,1.79-.45.54-1.01.96-1.66,1.27-.66.31-1.39.47-2.21.47ZM553.28,359.04v-2.11l4.61-2.38h.06v2.23l-4.68,2.26Z"/>
    <path class="cls-1" d="M567.39,370.54c-1.08,0-2.02-.23-2.82-.7-.8-.47-1.42-1.11-1.87-1.92-.44-.81-.67-1.75-.67-2.81s.23-1.99.69-2.81c.46-.81,1.09-1.45,1.89-1.92.8-.47,1.73-.7,2.78-.7,1.31,0,2.42.35,3.32,1.04.9.7,1.47,1.66,1.7,2.88h-2.93c-.11-.49-.36-.87-.75-1.15-.39-.28-.84-.42-1.36-.42-.48,0-.91.12-1.28.37s-.67.59-.89,1.05-.33,1.01-.33,1.65c0,.47.06.9.18,1.26.12.37.3.69.52.95.23.26.49.47.79.6.3.14.64.21,1,.21s.68-.06.96-.18c.29-.12.53-.29.74-.52.21-.23.34-.5.41-.82h2.93c-.23,1.2-.8,2.15-1.7,2.86-.9.71-2.01,1.06-3.32,1.06Z"/>
    <path class="cls-1" d="M574.08,370.29v-14.72h2.73v6.06h.06c.36-.63.82-1.11,1.39-1.44.57-.33,1.25-.5,2.03-.5.82,0,1.52.18,2.1.55.58.37,1.02.91,1.32,1.62.3.71.45,1.59.45,2.63v5.81h-2.75v-5.56c0-.86-.17-1.52-.5-1.98-.34-.46-.87-.69-1.61-.69-.48,0-.9.11-1.27.34-.37.23-.66.56-.87.98-.21.42-.32.94-.32,1.56v5.35h-2.77Z"/>
    <path class="cls-1" d="M589.29,370.54c-.82,0-1.5-.14-2.03-.42-.53-.28-.93-.65-1.18-1.13s-.38-.99-.38-1.57c0-.64.16-1.2.48-1.69.32-.49.81-.87,1.47-1.14.66-.27,1.48-.41,2.48-.41h2.56c0-.52-.07-.94-.22-1.27-.14-.33-.36-.58-.66-.74-.3-.16-.67-.24-1.12-.24-.53,0-.99.12-1.36.35-.38.24-.61.61-.71,1.13h-2.69c.08-.76.33-1.43.75-1.98.42-.56.97-.99,1.66-1.3.69-.31,1.47-.46,2.35-.46.98,0,1.83.16,2.54.49.71.33,1.26.81,1.64,1.44s.57,1.4.57,2.31v6.37h-2.32l-.29-1.61h-.06c-.19.31-.41.57-.66.8-.24.23-.51.42-.8.57-.29.15-.6.27-.95.35s-.72.13-1.1.13ZM590.15,368.37c.37,0,.7-.07.98-.2.29-.13.53-.31.73-.53.2-.22.36-.48.47-.78.12-.3.19-.61.23-.93h-2.13c-.42,0-.77.05-1.04.16-.27.1-.46.25-.58.44-.12.19-.18.41-.18.66s.06.47.18.65c.12.18.3.32.53.41.23.09.5.14.8.14Z"/>
    <path class="cls-1" d="M596.53,362.21v-2.28h6.3v2.28h-6.3ZM597.92,370.29v-11.15c0-.88.14-1.57.43-2.09.29-.52.7-.89,1.23-1.13.53-.24,1.16-.35,1.89-.35h1.15v2.36h-.72c-.44,0-.75.09-.93.26s-.28.48-.28.91v11.19h-2.77Z"/>
    <path class="cls-1" d="M607.19,370.54c-.82,0-1.5-.14-2.03-.42-.53-.28-.93-.65-1.18-1.13-.25-.47-.38-.99-.38-1.57,0-.64.16-1.2.48-1.69.32-.49.81-.87,1.47-1.14.66-.27,1.48-.41,2.48-.41h2.56c0-.52-.07-.94-.22-1.27-.14-.33-.36-.58-.66-.74-.3-.16-.67-.24-1.12-.24-.53,0-.99.12-1.36.35-.38.24-.61.61-.71,1.13h-2.69c.08-.76.33-1.43.75-1.98.42-.56.97-.99,1.66-1.3.69-.31,1.47-.46,2.35-.46.98,0,1.83.16,2.54.49.71.33,1.26.81,1.64,1.44s.57,1.4.57,2.31v6.37h-2.32l-.29-1.61h-.06c-.19.31-.41.57-.66.8-.24.23-.51.42-.8.57-.29.15-.6.27-.95.35s-.72.13-1.1.13ZM608.06,368.37c.37,0,.7-.07.98-.2.29-.13.53-.31.73-.53.2-.22.36-.48.47-.78.12-.3.19-.61.23-.93h-2.13c-.42,0-.77.05-1.04.16-.27.1-.46.25-.58.44-.12.19-.18.41-.18.66s.06.47.18.65c.12.18.3.32.53.41.23.09.5.14.8.14Z"/>
    <path class="cls-1" d="M618.99,370.54c-.85,0-1.57-.18-2.15-.54-.59-.36-1.04-.9-1.35-1.62-.31-.72-.47-1.6-.47-2.64v-5.81h2.77v5.56c0,.86.17,1.52.51,1.98.34.46.88.69,1.62.69.48,0,.9-.12,1.26-.34.36-.23.65-.56.85-.99.21-.43.31-.95.31-1.55v-5.35h2.77v10.36h-2.38l-.23-1.67h-.06c-.31.58-.76,1.05-1.33,1.4-.57.35-1.28.52-2.11.52Z"/>
    <path class="cls-1" d="M631.51,370.54c-.96,0-1.8-.23-2.52-.7-.73-.47-1.29-1.11-1.69-1.93-.4-.82-.61-1.76-.61-2.8s.2-1.98.61-2.8c.4-.82.97-1.47,1.71-1.93s1.6-.7,2.58-.7c.78,0,1.46.15,2.04.46.58.31,1.04.69,1.36,1.15v-5.72h2.77v14.72h-2.36l-.18-1.73h-.06c-.25.4-.55.75-.9,1.05s-.76.52-1.21.69c-.45.17-.96.25-1.54.25ZM632.27,368.18c.56,0,1.05-.13,1.47-.4.42-.26.74-.63.97-1.09.23-.46.35-1,.35-1.61s-.12-1.13-.35-1.59c-.23-.46-.56-.82-.97-1.09-.42-.26-.91-.4-1.47-.4s-1.03.13-1.45.4c-.42.26-.74.63-.97,1.09-.23.46-.35.99-.35,1.59s.12,1.15.35,1.61c.23.46.56.82.97,1.09.42.26.9.4,1.45.4Z"/>
    <path class="cls-1" d="M643.1,370.54c-.82,0-1.5-.14-2.03-.42-.53-.28-.93-.65-1.18-1.13s-.38-.99-.38-1.57c0-.64.16-1.2.48-1.69.32-.49.81-.87,1.47-1.14.66-.27,1.48-.41,2.48-.41h2.56c0-.52-.07-.94-.22-1.27-.14-.33-.36-.58-.66-.74-.3-.16-.67-.24-1.12-.24-.53,0-.99.12-1.36.35-.38.24-.61.61-.71,1.13h-2.69c.08-.76.33-1.43.75-1.98.42-.56.97-.99,1.66-1.3.69-.31,1.47-.46,2.35-.46.98,0,1.83.16,2.54.49.71.33,1.26.81,1.64,1.44s.57,1.4.57,2.31v6.37h-2.32l-.29-1.61h-.06c-.19.31-.41.57-.66.8-.24.23-.51.42-.8.57-.29.15-.6.27-.95.35s-.72.13-1.1.13ZM643.96,368.37c.37,0,.7-.07.98-.2.29-.13.53-.31.73-.53.2-.22.36-.48.47-.78.12-.3.19-.61.23-.93h-2.13c-.42,0-.77.05-1.04.16-.27.1-.46.25-.58.44-.12.19-.18.41-.18.66s.06.47.18.65c.12.18.3.32.53.41.23.09.5.14.8.14Z"/>
    <path class="cls-1" d="M655.73,374.83c-.97,0-1.82-.12-2.55-.37s-1.3-.6-1.7-1.07-.6-1.04-.6-1.72c0-.47.12-.92.37-1.34.24-.42.61-.8,1.09-1.14.48-.34,1.07-.64,1.76-.89l1.01,1.38c-.6.21-1.04.46-1.31.76-.28.3-.41.63-.41.99,0,.29.1.54.3.74s.48.35.83.46c.36.1.77.16,1.23.16s.83-.06,1.15-.17c.31-.11.56-.27.73-.47.17-.2.26-.44.26-.72,0-.36-.13-.65-.39-.87s-.77-.35-1.52-.41c-.7-.05-1.31-.14-1.85-.24-.53-.1-1-.23-1.4-.38-.4-.15-.75-.31-1.04-.49-.29-.18-.52-.36-.7-.54v-.48l2.19-2.32,1.7.63-2.3,2.53.76-1.27c.14.07.28.13.42.19s.33.11.55.17c.22.06.51.11.86.17s.79.1,1.32.15c.9.08,1.64.25,2.22.5.57.25,1,.59,1.27,1.02.27.43.41.96.41,1.59,0,.57-.17,1.12-.5,1.64-.33.52-.84.95-1.53,1.29-.68.34-1.56.51-2.62.51ZM655.75,367.22c-.86,0-1.6-.17-2.22-.5-.62-.33-1.1-.79-1.44-1.36-.34-.57-.5-1.2-.5-1.9s.17-1.33.5-1.9c.33-.57.81-1.03,1.44-1.37.62-.34,1.36-.51,2.22-.51s1.6.17,2.22.51c.62.34,1.1.8,1.43,1.37.33.57.49,1.2.49,1.9s-.16,1.33-.49,1.9c-.33.57-.8,1.02-1.43,1.36s-1.36.5-2.22.5ZM655.73,365.15c.53,0,.97-.14,1.3-.43.33-.29.5-.71.5-1.26s-.17-.97-.5-1.25c-.34-.28-.76-.42-1.28-.42s-.97.14-1.31.42c-.34.28-.51.7-.51,1.25s.17.98.51,1.26.77.43,1.29.43ZM657.41,361.86l-.45-1.92h4.27v1.57l-3.81.36Z"/>
    <path class="cls-1" d="M667.71,370.54c-1.04,0-1.96-.22-2.76-.67-.8-.44-1.43-1.07-1.88-1.88-.45-.81-.68-1.73-.68-2.78s.22-2.04.67-2.87c.44-.83,1.07-1.48,1.87-1.95.8-.47,1.73-.71,2.8-.71s1.9.22,2.67.67c.76.45,1.37,1.06,1.8,1.83.44.77.66,1.65.66,2.62v.47c0,.17-.01.35-.04.53h-8.45v-1.73h5.68c-.04-.65-.28-1.18-.71-1.57-.43-.39-.97-.58-1.61-.58-.48,0-.92.11-1.31.32-.4.22-.71.54-.94.98-.23.44-.35.99-.35,1.66v.6c0,.57.11,1.06.33,1.47.22.41.52.73.91.95.39.22.83.33,1.32.33s.93-.12,1.27-.34c.34-.23.6-.53.78-.89h2.83c-.2.66-.53,1.25-.98,1.79-.45.54-1.01.96-1.66,1.27-.66.31-1.39.47-2.21.47Z"/>
    <path class="cls-2" d="M679.28,365.43v-2.36h8.65v2.36h-8.65Z"/>
    <path class="cls-1" d="M694.8,370.29v-14.62h3.28l6.03,10.65h.06v-10.65h2.77v14.62h-3.26l-6.05-10.63h-.06v10.63h-2.77Z"/>
    <path class="cls-1" d="M713.85,370.54c-.98,0-1.87-.23-2.67-.69-.79-.46-1.42-1.1-1.88-1.92-.46-.82-.69-1.76-.69-2.82s.23-2.01.7-2.83c.46-.81,1.09-1.45,1.89-1.91s1.67-.69,2.65-.69,1.87.23,2.67.69c.79.46,1.42,1.1,1.88,1.91s.69,1.76.69,2.83-.23,2.02-.7,2.83c-.47.81-1.09,1.45-1.88,1.91s-1.67.69-2.66.69ZM713.83,368.16c.45,0,.86-.12,1.22-.34.36-.23.66-.57.88-1.02.22-.45.34-1.01.34-1.68s-.11-1.25-.34-1.7c-.23-.45-.52-.79-.88-1.01-.36-.22-.75-.33-1.18-.33s-.84.11-1.21.33c-.37.22-.66.56-.88,1.01s-.33,1.02-.33,1.7.11,1.23.33,1.68.51.79.87,1.02c.36.23.76.34,1.18.34Z"/>
    <path class="cls-1" d="M724.88,370.29c-.73,0-1.36-.12-1.9-.34-.54-.23-.96-.61-1.26-1.15-.3-.54-.45-1.27-.45-2.2v-4.39h-1.74v-2.28h1.74l.31-2.82h2.46v2.82h2.71v2.28h-2.71v4.43c0,.49.1.83.31,1.01.21.19.55.28,1.05.28h1.29v2.36h-1.8Z"/>
    <path class="cls-1" d="M732.74,370.54c-1.04,0-1.96-.22-2.76-.67-.8-.44-1.43-1.07-1.88-1.88-.45-.81-.68-1.73-.68-2.78s.22-2.04.67-2.87c.44-.83,1.07-1.48,1.87-1.95.8-.47,1.73-.71,2.8-.71s1.9.22,2.67.67c.76.45,1.37,1.06,1.8,1.83.44.77.66,1.65.66,2.62v.47c0,.17-.01.35-.04.53h-8.45v-1.73h5.68c-.04-.65-.28-1.18-.71-1.57-.43-.39-.97-.58-1.61-.58-.48,0-.92.11-1.31.32-.4.22-.71.54-.94.98-.23.44-.35.99-.35,1.66v.6c0,.57.11,1.06.33,1.47.22.41.52.73.91.95.39.22.83.33,1.32.33s.93-.12,1.27-.34c.34-.23.6-.53.78-.89h2.83c-.2.66-.53,1.25-.98,1.79-.45.54-1.01.96-1.66,1.27-.66.31-1.39.47-2.21.47Z"/>
    <path class="cls-1" d="M748.14,370.54c-.96,0-1.8-.23-2.52-.7-.73-.47-1.29-1.11-1.69-1.93-.4-.82-.61-1.76-.61-2.8s.2-1.98.61-2.8c.4-.82.97-1.47,1.71-1.93s1.6-.7,2.58-.7c.78,0,1.46.15,2.04.46.58.31,1.04.69,1.36,1.15v-5.72h2.77v14.72h-2.36l-.18-1.73h-.06c-.25.4-.55.75-.9,1.05s-.76.52-1.21.69c-.45.17-.96.25-1.54.25ZM748.9,368.18c.56,0,1.05-.13,1.47-.4.42-.26.74-.63.97-1.09.23-.46.35-1,.35-1.61s-.12-1.13-.35-1.59c-.23-.46-.56-.82-.97-1.09-.42-.26-.91-.4-1.47-.4s-1.03.13-1.45.4c-.42.26-.74.63-.97,1.09-.23.46-.35.99-.35,1.59s.12,1.15.35,1.61c.23.46.56.82.97,1.09.42.26.9.4,1.45.4Z"/>
    <path class="cls-1" d="M761.37,370.54c-1.04,0-1.96-.22-2.76-.67-.8-.44-1.43-1.07-1.88-1.88-.45-.81-.68-1.73-.68-2.78s.22-2.04.67-2.87c.44-.83,1.07-1.48,1.87-1.95.8-.47,1.73-.71,2.8-.71s1.9.22,2.67.67c.76.45,1.37,1.06,1.8,1.83.44.77.66,1.65.66,2.62v.47c0,.17-.01.35-.04.53h-8.45v-1.73h5.68c-.04-.65-.28-1.18-.71-1.57-.43-.39-.97-.58-1.61-.58-.48,0-.92.11-1.31.32-.4.22-.71.54-.94.98-.23.44-.35.99-.35,1.66v.6c0,.57.11,1.06.33,1.47.22.41.52.73.91.95.39.22.83.33,1.32.33s.93-.12,1.27-.34c.34-.23.6-.53.78-.89h2.83c-.2.66-.53,1.25-.98,1.79-.45.54-1.01.96-1.66,1.27-.66.31-1.39.47-2.21.47Z"/>
    <path class="cls-1" d="M777.3,370.54c-1.08,0-2.02-.23-2.82-.7-.8-.47-1.42-1.11-1.87-1.92-.44-.81-.67-1.75-.67-2.81s.23-1.99.69-2.81c.46-.81,1.09-1.45,1.89-1.92.8-.47,1.73-.7,2.78-.7,1.31,0,2.42.35,3.32,1.04.9.7,1.47,1.66,1.7,2.88h-2.93c-.11-.49-.36-.87-.75-1.15-.39-.28-.84-.42-1.36-.42-.48,0-.91.12-1.28.37s-.67.59-.89,1.05-.33,1.01-.33,1.65c0,.47.06.9.18,1.26.12.37.3.69.52.95.23.26.49.47.79.6.3.14.64.21,1,.21s.68-.06.96-.18c.29-.12.53-.29.74-.52.21-.23.34-.5.41-.82h2.93c-.23,1.2-.8,2.15-1.7,2.86-.9.71-2.01,1.06-3.32,1.06Z"/>
    <path class="cls-1" d="M787.27,370.54c-.82,0-1.5-.14-2.03-.42-.53-.28-.93-.65-1.18-1.13s-.38-.99-.38-1.57c0-.64.16-1.2.48-1.69.32-.49.81-.87,1.47-1.14.66-.27,1.48-.41,2.48-.41h2.56c0-.52-.07-.94-.22-1.27-.14-.33-.36-.58-.66-.74-.3-.16-.67-.24-1.12-.24-.53,0-.99.12-1.36.35-.38.24-.61.61-.71,1.13h-2.69c.08-.76.33-1.43.75-1.98.42-.56.97-.99,1.66-1.3.69-.31,1.47-.46,2.35-.46.98,0,1.83.16,2.54.49.71.33,1.26.81,1.64,1.44s.57,1.4.57,2.31v6.37h-2.32l-.29-1.61h-.06c-.19.31-.41.57-.66.8-.24.23-.51.42-.8.57-.29.15-.6.27-.95.35s-.72.13-1.1.13ZM788.13,368.37c.37,0,.7-.07.98-.2.29-.13.53-.31.73-.53.2-.22.36-.48.47-.78.12-.3.19-.61.23-.93h-2.13c-.42,0-.77.05-1.04.16-.27.1-.46.25-.58.44-.12.19-.18.41-.18.66s.06.47.18.65c.12.18.3.32.53.41.23.09.5.14.8.14Z"/>
    <path class="cls-1" d="M795.28,370.29v-14.72h2.77v14.72h-2.77Z"/>
    <path class="cls-1" d="M805.07,370.54c-1.08,0-2.02-.23-2.82-.7-.8-.47-1.42-1.11-1.87-1.92-.44-.81-.67-1.75-.67-2.81s.23-1.99.69-2.81c.46-.81,1.09-1.45,1.89-1.92.8-.47,1.73-.7,2.78-.7,1.31,0,2.42.35,3.32,1.04.9.7,1.47,1.66,1.7,2.88h-2.93c-.11-.49-.36-.87-.75-1.15-.39-.28-.84-.42-1.36-.42-.48,0-.91.12-1.28.37s-.67.59-.89,1.05-.33,1.01-.33,1.65c0,.47.06.9.18,1.26.12.37.3.69.52.95.23.26.49.47.79.6.3.14.64.21,1,.21s.68-.06.96-.18c.29-.12.53-.29.74-.52.21-.23.34-.5.41-.82h2.93c-.23,1.2-.8,2.15-1.7,2.86-.9.71-2.01,1.06-3.32,1.06Z"/>
    <path class="cls-1" d="M815.53,370.54c-.85,0-1.57-.18-2.15-.54-.59-.36-1.04-.9-1.35-1.62-.31-.72-.47-1.6-.47-2.64v-5.81h2.77v5.56c0,.86.17,1.52.51,1.98.34.46.88.69,1.62.69.48,0,.9-.12,1.26-.34.36-.23.65-.56.85-.99.21-.43.31-.95.31-1.55v-5.35h2.77v10.36h-2.38l-.23-1.67h-.06c-.31.58-.76,1.05-1.33,1.4-.57.35-1.28.52-2.11.52Z"/>
    <path class="cls-1" d="M823.63,370.29v-14.72h2.77v14.72h-2.77Z"/>
    <path class="cls-2" d="M833.3,365.43v-2.36h8.65v2.36h-8.65Z"/>
    <path class="cls-1" d="M852.21,370.29v-12.34h-4.2v-2.28h11.16v2.28h-4.2v12.34h-2.75Z"/>
    <path class="cls-1" d="M859.35,370.29v-10.36h2.38l.25,2.19h.06c.29-.67.61-1.18.97-1.52.36-.35.77-.59,1.23-.72s.97-.2,1.55-.2v2.99h-.74c-.47,0-.88.05-1.24.16-.36.11-.67.27-.92.5-.25.23-.44.53-.57.9s-.19.83-.19,1.37v4.7h-2.77Z"/>
    <path class="cls-1" d="M870.3,370.54c-.82,0-1.5-.14-2.03-.42-.53-.28-.93-.65-1.18-1.13s-.38-.99-.38-1.57c0-.64.16-1.2.48-1.69.32-.49.81-.87,1.47-1.14.66-.27,1.48-.41,2.48-.41h2.56c0-.52-.07-.94-.22-1.27-.14-.33-.36-.58-.66-.74-.3-.16-.67-.24-1.12-.24-.53,0-.99.12-1.36.35-.38.24-.61.61-.71,1.13h-2.69c.08-.76.33-1.43.75-1.98.42-.56.97-.99,1.66-1.3.69-.31,1.47-.46,2.35-.46.98,0,1.83.16,2.54.49.71.33,1.26.81,1.64,1.44s.57,1.4.57,2.31v6.37h-2.32l-.29-1.61h-.06c-.19.31-.41.57-.66.8-.24.23-.51.42-.8.57-.29.15-.6.27-.95.35-.35.08-.72.13-1.1.13ZM871.16,368.37c.37,0,.7-.07.98-.2.29-.13.53-.31.73-.53.2-.22.36-.48.47-.78.12-.3.19-.61.23-.93h-2.13c-.42,0-.77.05-1.04.16-.27.1-.46.25-.58.44-.12.19-.18.41-.18.66s.06.47.18.65c.12.18.3.32.53.41.23.09.5.14.8.14Z"/>
    <path class="cls-1" d="M878.24,370.29v-10.36h2.38l.23,1.69h.06c.33-.6.78-1.07,1.35-1.42.57-.35,1.28-.52,2.11-.52s1.57.18,2.15.55c.59.37,1.04.91,1.34,1.62.31.71.46,1.59.46,2.63v5.81h-2.75v-5.56c0-.86-.17-1.52-.51-1.98-.34-.46-.89-.69-1.64-.69-.47,0-.88.11-1.25.34-.37.23-.66.56-.86.98-.2.42-.31.94-.31,1.56v5.35h-2.77Z"/>
    <path class="cls-1" d="M894.37,370.54c-.9,0-1.7-.15-2.4-.46-.7-.31-1.25-.73-1.66-1.26-.41-.54-.65-1.15-.72-1.83h2.75c.07.25.19.49.35.71s.39.4.67.53c.28.13.61.2.97.2s.67-.05.91-.17c.24-.11.41-.25.52-.42s.16-.34.16-.52c0-.28-.09-.49-.26-.64-.17-.15-.42-.27-.74-.38-.32-.1-.69-.22-1.12-.34-.45-.11-.91-.24-1.36-.39-.46-.15-.88-.32-1.26-.53s-.69-.49-.92-.84c-.23-.35-.35-.77-.35-1.27,0-.61.16-1.16.49-1.65.33-.49.8-.88,1.43-1.17.62-.29,1.37-.44,2.24-.44,1.23,0,2.21.29,2.94.86.73.57,1.16,1.36,1.28,2.36h-2.6c-.07-.35-.24-.62-.52-.8-.28-.19-.65-.28-1.1-.28-.48,0-.84.09-1.1.27-.25.18-.38.4-.38.67,0,.2.08.36.26.5.17.14.41.26.73.37.32.11.7.22,1.15.35.72.18,1.38.38,1.98.59s1.07.52,1.44.9.54.94.54,1.66c.01.65-.16,1.24-.51,1.75s-.85.92-1.5,1.22c-.64.3-1.42.45-2.32.45Z"/>
    <path class="cls-1" d="M900.26,374.57v-14.64h2.36l.18,1.73h.06c.26-.4.56-.75.91-1.04.35-.29.75-.52,1.21-.69s.97-.25,1.53-.25c.96,0,1.8.23,2.52.7.72.47,1.29,1.11,1.69,1.93.4.82.6,1.75.6,2.8s-.2,1.98-.6,2.8c-.4.82-.97,1.47-1.7,1.93-.73.47-1.59.7-2.57.7-.79,0-1.48-.15-2.05-.46-.57-.31-1.03-.69-1.37-1.15v5.64h-2.77ZM905.76,368.2c.56,0,1.05-.13,1.47-.4.42-.26.74-.63.96-1.09.22-.46.34-.99.34-1.59s-.11-1.15-.34-1.61c-.23-.46-.55-.82-.96-1.09s-.91-.4-1.47-.4-1.03.13-1.46.4c-.42.26-.75.63-.98,1.09s-.35.99-.35,1.59.12,1.15.35,1.61.56.82.98,1.09c.42.26.91.4,1.46.4Z"/>
    <path class="cls-1" d="M917.83,370.54c-.98,0-1.87-.23-2.67-.69-.79-.46-1.42-1.1-1.88-1.92-.46-.82-.69-1.76-.69-2.82s.23-2.01.7-2.83c.46-.81,1.09-1.45,1.89-1.91.79-.46,1.67-.69,2.65-.69s1.87.23,2.67.69c.79.46,1.42,1.1,1.88,1.91s.69,1.76.69,2.83-.23,2.02-.7,2.83c-.47.81-1.09,1.45-1.88,1.91s-1.67.69-2.66.69ZM917.81,368.16c.45,0,.86-.12,1.22-.34.36-.23.66-.57.88-1.02.22-.45.34-1.01.34-1.68s-.11-1.25-.34-1.7c-.23-.45-.52-.79-.88-1.01-.36-.22-.75-.33-1.18-.33s-.84.11-1.21.33c-.37.22-.66.56-.88,1.01s-.33,1.02-.33,1.7.11,1.23.33,1.68.51.79.87,1.02c.36.23.76.34,1.18.34Z"/>
    <path class="cls-1" d="M924.64,370.29v-10.36h2.38l.25,2.19h.06c.29-.67.61-1.18.97-1.52.36-.35.77-.59,1.23-.72s.97-.2,1.55-.2v2.99h-.74c-.47,0-.88.05-1.24.16-.36.11-.67.27-.92.5-.25.23-.44.53-.57.9s-.19.83-.19,1.37v4.7h-2.77Z"/>
    <path class="cls-1" d="M936.87,370.29c-.73,0-1.36-.12-1.9-.34-.54-.23-.96-.61-1.26-1.15-.3-.54-.45-1.27-.45-2.2v-4.39h-1.74v-2.28h1.74l.31-2.82h2.46v2.82h2.71v2.28h-2.71v4.43c0,.49.1.83.31,1.01.21.19.55.28,1.05.28h1.29v2.36h-1.8Z"/>
  </g>
  <g>
    <path class="cls-2" d="M9.04,322.56v-40.38l-9.04,2.07v-9.12l14.1-6.21h6.82v53.64h-11.88Z"/>
    <path class="cls-2" d="M51.8,323.48c-5.06,0-9.39-1.17-12.99-3.52-3.6-2.35-6.37-5.61-8.31-9.77-1.94-4.16-2.91-8.98-2.91-14.44s.97-10.28,2.91-14.44c1.94-4.16,4.71-7.42,8.31-9.77,3.6-2.35,7.93-3.52,12.99-3.52s9.31,1.18,12.91,3.52c3.6,2.35,6.36,5.61,8.28,9.77,1.92,4.16,2.87,8.98,2.87,14.44s-.96,10.28-2.87,14.44c-1.92,4.16-4.67,7.42-8.28,9.77-3.6,2.35-7.91,3.52-12.91,3.52ZM51.72,313.13c2.5,0,4.69-.71,6.55-2.15,1.86-1.43,3.32-3.43,4.37-6.02,1.05-2.58,1.57-5.66,1.57-9.23s-.52-6.65-1.57-9.23c-1.05-2.58-2.5-4.57-4.37-5.98-1.87-1.4-4.05-2.11-6.55-2.11s-4.61.7-6.47,2.11c-1.87,1.41-3.32,3.4-4.37,5.98-1.05,2.58-1.57,5.66-1.57,9.23s.52,6.65,1.57,9.23c1.05,2.58,2.5,4.59,4.37,6.02,1.86,1.43,4.02,2.15,6.47,2.15Z"/>
    <path class="cls-2" d="M105.82,323.48c-5.06,0-9.39-1.17-12.99-3.52-3.6-2.35-6.37-5.61-8.31-9.77-1.94-4.16-2.91-8.98-2.91-14.44s.97-10.28,2.91-14.44c1.94-4.16,4.71-7.42,8.31-9.77,3.6-2.35,7.93-3.52,12.99-3.52s9.31,1.18,12.91,3.52c3.6,2.35,6.36,5.61,8.28,9.77,1.92,4.16,2.87,8.98,2.87,14.44s-.96,10.28-2.87,14.44c-1.92,4.16-4.67,7.42-8.28,9.77-3.6,2.35-7.91,3.52-12.91,3.52ZM105.74,313.13c2.5,0,4.69-.71,6.55-2.15,1.86-1.43,3.32-3.43,4.37-6.02,1.05-2.58,1.57-5.66,1.57-9.23s-.52-6.65-1.57-9.23c-1.05-2.58-2.5-4.57-4.37-5.98-1.87-1.4-4.05-2.11-6.55-2.11s-4.61.7-6.47,2.11c-1.87,1.41-3.32,3.4-4.37,5.98-1.05,2.58-1.57,5.66-1.57,9.23s.52,6.65,1.57,9.23c1.05,2.58,2.5,4.59,4.37,6.02,1.86,1.43,4.02,2.15,6.47,2.15Z"/>
    <path class="cls-1" d="M149.57,295.97c-2.55,0-4.87-.56-6.93-1.69-2.07-1.12-3.72-2.73-4.94-4.83-1.23-2.09-1.84-4.57-1.84-7.43s.61-5.48,1.84-7.55c1.23-2.07,2.87-3.66,4.94-4.79,2.07-1.12,4.38-1.69,6.93-1.69s4.84.56,6.86,1.69c2.02,1.12,3.64,2.72,4.87,4.79s1.84,4.59,1.84,7.55-.61,5.34-1.84,7.43c-1.23,2.1-2.85,3.7-4.87,4.83-2.02,1.12-4.3,1.69-6.86,1.69ZM149.49,288.23c.92,0,1.74-.24,2.45-.73.71-.49,1.28-1.19,1.69-2.11.41-.92.61-2.04.61-3.37,0-1.43-.2-2.61-.61-3.53-.41-.92-.97-1.62-1.69-2.11-.72-.48-1.53-.73-2.45-.73s-1.74.24-2.45.73c-.72.49-1.28,1.19-1.69,2.11-.41.92-.61,2.1-.61,3.53,0,1.33.2,2.45.61,3.37.41.92.97,1.62,1.69,2.11.72.49,1.53.73,2.45.73ZM147.5,322.56l29.81-53.64h11.11l-29.81,53.64h-11.11ZM186.73,323.48c-2.55,0-4.87-.56-6.93-1.69-2.07-1.12-3.7-2.73-4.9-4.83-1.2-2.09-1.8-4.57-1.8-7.43s.6-5.48,1.8-7.55c1.2-2.07,2.84-3.66,4.9-4.79,2.07-1.12,4.38-1.69,6.93-1.69s4.85.56,6.9,1.69c2.04,1.12,3.66,2.72,4.87,4.79,1.2,2.07,1.8,4.59,1.8,7.55s-.6,5.34-1.8,7.43c-1.2,2.1-2.82,3.7-4.87,4.83-2.04,1.12-4.34,1.69-6.9,1.69ZM186.66,315.74c.92,0,1.74-.24,2.45-.73.71-.48,1.28-1.19,1.69-2.11.41-.92.61-2.04.61-3.37,0-1.43-.19-2.61-.57-3.52s-.93-1.62-1.65-2.11c-.72-.49-1.56-.73-2.53-.73-.92,0-1.74.24-2.45.73-.72.49-1.28,1.19-1.69,2.11-.41.92-.61,2.07-.61,3.45s.2,2.53.61,3.45c.41.92.97,1.62,1.69,2.11.71.49,1.53.73,2.45.73Z"/>
    <path class="cls-2" d="M213.78,322.56v-40.38l-9.04,2.07v-9.12l14.1-6.21h6.82v53.64h-11.88Z"/>
    <path class="cls-2" d="M256.54,323.48c-5.06,0-9.39-1.17-12.99-3.52-3.6-2.35-6.37-5.61-8.31-9.77-1.94-4.16-2.91-8.98-2.91-14.44s.97-10.28,2.91-14.44c1.94-4.16,4.71-7.42,8.31-9.77,3.6-2.35,7.93-3.52,12.99-3.52s9.31,1.18,12.91,3.52c3.6,2.35,6.36,5.61,8.28,9.77,1.92,4.16,2.87,8.98,2.87,14.44s-.96,10.28-2.87,14.44c-1.92,4.16-4.67,7.42-8.28,9.77-3.6,2.35-7.91,3.52-12.91,3.52ZM256.46,313.13c2.5,0,4.69-.71,6.55-2.15,1.86-1.43,3.32-3.43,4.37-6.02,1.05-2.58,1.57-5.66,1.57-9.23s-.52-6.65-1.57-9.23c-1.05-2.58-2.5-4.57-4.37-5.98-1.87-1.4-4.05-2.11-6.55-2.11s-4.61.7-6.47,2.11c-1.87,1.41-3.32,3.4-4.37,5.98-1.05,2.58-1.57,5.66-1.57,9.23s.52,6.65,1.57,9.23c1.05,2.58,2.5,4.59,4.37,6.02,1.86,1.43,4.02,2.15,6.47,2.15Z"/>
    <path class="cls-2" d="M310.56,323.48c-5.06,0-9.39-1.17-12.99-3.52-3.6-2.35-6.37-5.61-8.31-9.77-1.94-4.16-2.91-8.98-2.91-14.44s.97-10.28,2.91-14.44c1.94-4.16,4.71-7.42,8.31-9.77,3.6-2.35,7.93-3.52,12.99-3.52s9.31,1.18,12.91,3.52c3.6,2.35,6.36,5.61,8.28,9.77,1.92,4.16,2.87,8.98,2.87,14.44s-.96,10.28-2.87,14.44c-1.92,4.16-4.67,7.42-8.28,9.77-3.6,2.35-7.91,3.52-12.91,3.52ZM310.48,313.13c2.5,0,4.69-.71,6.55-2.15,1.86-1.43,3.32-3.43,4.37-6.02,1.05-2.58,1.57-5.66,1.57-9.23s-.52-6.65-1.57-9.23c-1.05-2.58-2.5-4.57-4.37-5.98-1.87-1.4-4.05-2.11-6.55-2.11s-4.61.7-6.47,2.11c-1.87,1.41-3.32,3.4-4.37,5.98-1.05,2.58-1.57,5.66-1.57,9.23s.52,6.65,1.57,9.23c1.05,2.58,2.5,4.59,4.37,6.02,1.86,1.43,4.02,2.15,6.47,2.15Z"/>
    <path class="cls-1" d="M357.15,322.56v-53.64h35.94v9.27h-24.44v12.64h22.14v8.89h-22.14v13.56h24.44v9.27h-35.94ZM366.19,265.62v-8.35l17.7-8.58h.23v8.89l-17.93,8.05Z"/>
    <path class="cls-1" d="M424.81,323.48c-5.42,0-10.08-1.16-13.98-3.49-3.91-2.32-6.92-5.57-9.04-9.73-2.12-4.16-3.18-8.95-3.18-14.37s1.06-10.36,3.18-14.52c2.12-4.16,5.13-7.43,9.04-9.81,3.91-2.38,8.57-3.56,13.98-3.56,6.64,0,12.08,1.66,16.32,4.98,4.24,3.32,6.87,8,7.89,14.02h-12.64c-.56-2.71-1.84-4.81-3.83-6.32-1.99-1.51-4.6-2.26-7.82-2.26s-5.67.72-7.82,2.15c-2.15,1.43-3.78,3.44-4.9,6.02-1.12,2.58-1.69,5.68-1.69,9.31s.56,6.58,1.69,9.16c1.12,2.58,2.76,4.56,4.9,5.94,2.15,1.38,4.75,2.07,7.82,2.07,3.22,0,5.81-.66,7.78-1.99,1.97-1.33,3.28-3.27,3.95-5.82h12.57c-.97,5.67-3.59,10.13-7.85,13.37-4.27,3.24-9.72,4.87-16.36,4.87Z"/>
    <path class="cls-1" d="M455.69,322.56v-53.64h11.49v53.64h-11.49ZM465.72,299.8v-9.27h25.44v9.27h-25.44ZM489.32,322.56v-53.64h11.49v53.64h-11.49Z"/>
    <path class="cls-1" d="M505.34,322.56l17.32-53.64h17.55l17.32,53.64h-12.18l-13.79-45.59h-.23l-14.02,45.59h-11.95ZM513.84,308.38l2.99-8.89h28.2l2.91,8.89h-34.1Z"/>
    <path class="cls-1" d="M561.73,322.56v-53.64h35.63v9.27h-24.14v13.03h19v8.97h-19v22.37h-11.49Z"/>
    <path class="cls-1" d="M593.46,322.56l17.32-53.64h17.55l17.32,53.64h-12.18l-13.79-45.59h-.23l-14.02,45.59h-11.95ZM601.96,308.38l2.99-8.89h28.2l2.91,8.89h-34.1Z"/>
    <path class="cls-1" d="M669.16,323.48c-4.04,0-7.7-.8-11-2.41s-5.9-4.02-7.82-7.24c-1.92-3.22-2.87-7.28-2.87-12.18v-32.72h11.49v32.8c0,2.4.41,4.44,1.23,6.13.82,1.69,2,2.95,3.56,3.79,1.56.84,3.44,1.26,5.63,1.26s4.07-.42,5.63-1.26c1.56-.84,2.75-2.11,3.56-3.79.82-1.69,1.23-3.73,1.23-6.13v-32.8h11.49v32.72c0,4.9-1,8.97-2.99,12.18-1.99,3.22-4.67,5.63-8.05,7.24s-7.08,2.41-11.11,2.41Z"/>
    <path class="cls-1" d="M698.59,322.56v-53.64h19.31c6.18,0,11.31,1.11,15.4,3.33,4.09,2.22,7.11,5.34,9.08,9.35,1.97,4.01,2.95,8.72,2.95,14.14s-.98,10.05-2.95,14.06c-1.97,4.01-4.98,7.14-9.04,9.39-4.06,2.25-9.23,3.37-15.52,3.37h-19.23ZM710.08,312.67h7.13c4.14,0,7.41-.68,9.81-2.03,2.4-1.35,4.1-3.29,5.1-5.82,1-2.53,1.49-5.56,1.49-9.08s-.5-6.63-1.49-9.16c-1-2.53-2.7-4.47-5.1-5.82-2.4-1.35-5.67-2.03-9.81-2.03h-7.13v33.95Z"/>
    <path class="cls-1" d="M745.64,322.56l17.32-53.64h17.55l17.32,53.64h-12.18l-13.79-45.59h-.23l-14.02,45.59h-11.95ZM754.14,308.38l2.99-8.89h28.2l2.91,8.89h-34.1Z"/>
    <path class="cls-1" d="M822.49,323.48c-4.75,0-8.94-1.14-12.57-3.41-3.63-2.27-6.47-5.45-8.54-9.54-2.07-4.09-3.1-8.86-3.1-14.33s1.08-10.39,3.26-14.64c2.17-4.24,5.3-7.56,9.39-9.96,4.09-2.4,8.94-3.6,14.56-3.6,6.44,0,11.76,1.53,15.98,4.6,4.21,3.06,6.93,7.31,8.16,12.72h-12.8c-.77-2.14-2.11-3.8-4.02-4.98-1.92-1.17-4.36-1.76-7.32-1.76-3.37,0-6.21.73-8.51,2.18-2.3,1.46-4.04,3.5-5.21,6.13-1.18,2.63-1.76,5.73-1.76,9.31s.59,6.79,1.76,9.35c1.18,2.55,2.89,4.48,5.13,5.78,2.25,1.3,4.9,1.95,7.97,1.95,4.39,0,7.73-1.15,10-3.45,2.27-2.3,3.66-5.18,4.18-8.66h-12.49v-8.58h23.98v29.96h-10.57l-.84-7.97h-.23c-1.12,1.89-2.48,3.51-4.06,4.87-1.58,1.35-3.41,2.36-5.48,3.03-2.07.66-4.36,1-6.86,1Z"/>
    <path class="cls-1" d="M858.04,322.56v-53.64h35.94v9.27h-24.44v12.64h22.14v8.89h-22.14v13.56h24.44v9.27h-35.94Z"/>
    <path class="cls-1" d="M919.5,323.48c-3.83,0-7.29-.65-10.38-1.95-3.09-1.3-5.53-3.23-7.32-5.78-1.79-2.55-2.76-5.7-2.91-9.43h12.26c.05,1.48.42,2.78,1.11,3.91.69,1.12,1.65,2.01,2.87,2.64,1.23.64,2.68.96,4.37.96,1.38,0,2.59-.2,3.64-.61,1.05-.41,1.88-1.03,2.49-1.88.61-.84.92-1.9.92-3.18,0-1.38-.36-2.55-1.07-3.53-.72-.97-1.7-1.8-2.95-2.49-1.25-.69-2.68-1.31-4.29-1.88-1.61-.56-3.31-1.12-5.1-1.69-4.19-1.43-7.43-3.32-9.73-5.67-2.3-2.35-3.45-5.49-3.45-9.43,0-3.27.8-6.05,2.41-8.35,1.61-2.3,3.82-4.06,6.63-5.29,2.81-1.23,6-1.84,9.58-1.84s6.91.63,9.69,1.88c2.78,1.25,5.01,3.07,6.67,5.44,1.66,2.38,2.54,5.2,2.64,8.47h-12.41c0-1.17-.31-2.23-.92-3.18-.61-.94-1.42-1.69-2.41-2.22-1-.54-2.16-.8-3.49-.8-1.12-.05-2.17.11-3.14.5-.97.38-1.74.96-2.3,1.72-.56.77-.84,1.74-.84,2.91s.28,2.17.84,2.99c.56.82,1.37,1.52,2.41,2.11,1.05.59,2.27,1.15,3.68,1.69,1.4.54,2.95,1.09,4.64,1.65,2.71.92,5.21,2.01,7.51,3.26,2.3,1.25,4.14,2.89,5.52,4.9,1.38,2.02,2.07,4.69,2.07,8.01,0,2.91-.74,5.59-2.22,8.05-1.48,2.45-3.64,4.42-6.48,5.9-2.83,1.48-6.35,2.22-10.54,2.22Z"/>
  </g>
</svg>