<?xml version="1.0" encoding="UTF-8"?>
<svg id="Layer_1" data-name="Layer 1" xmlns="http://www.w3.org/2000/svg" viewBox="0 0 962.46 367.82">
  <defs>
    <style>
      .cls-1 {
        <!-- fill: #063763; -->
        fill:#FFF;
      }

      .cls-2 {
        fill: #b7201e;
      }
    </style>
  </defs>
  <g>
    <path class="cls-1" d="M1.35,320.98v-72.09h48.3v12.46H16.8v16.99h29.76v11.95h-29.76v18.23h32.85v12.46H1.35Z"/>
    <path class="cls-1" d="M92.28,322.22c-7.28,0-13.54-1.56-18.79-4.69-5.25-3.12-9.3-7.48-12.15-13.08-2.85-5.59-4.27-12.03-4.27-19.31s1.42-13.92,4.27-19.52c2.85-5.59,6.9-9.99,12.15-13.18,5.25-3.19,11.52-4.79,18.79-4.79,8.92,0,16.24,2.23,21.94,6.69,5.7,4.46,9.23,10.75,10.61,18.85h-16.99c-.76-3.64-2.47-6.47-5.15-8.5-2.68-2.02-6.18-3.04-10.5-3.04s-7.62.96-10.5,2.88c-2.88,1.92-5.08,4.62-6.59,8.08-1.51,3.47-2.27,7.64-2.27,12.51s.75,8.84,2.27,12.31c1.51,3.47,3.71,6.13,6.59,7.98,2.88,1.85,6.38,2.78,10.5,2.78,4.33,0,7.81-.89,10.45-2.68,2.64-1.78,4.41-4.39,5.3-7.83h16.89c-1.3,7.62-4.82,13.61-10.56,17.97-5.73,4.36-13.06,6.54-21.99,6.54Z"/>
    <path class="cls-1" d="M133.78,320.98v-72.09h15.45v72.09h-15.45ZM147.27,290.4v-12.46h34.19v12.46h-34.19ZM178.99,320.98v-72.09h15.45v72.09h-15.45Z"/>
    <path class="cls-1" d="M200.51,320.98l23.27-72.09h23.58l23.27,72.09h-16.37l-18.54-61.27h-.31l-18.85,61.27h-16.07ZM211.94,301.93l4.02-11.95h37.9l3.91,11.95h-45.83Z"/>
    <path class="cls-1" d="M276.31,320.98v-72.09h47.89v12.46h-32.44v17.51h25.54v12.05h-25.54v30.07h-15.45Z"/>
    <path class="cls-1" d="M318.94,320.98l23.27-72.09h23.58l23.27,72.09h-16.37l-18.54-61.27h-.31l-18.85,61.27h-16.07ZM330.37,301.93l4.02-11.95h37.9l3.91,11.95h-45.83Z"/>
    <path class="cls-1" d="M420.69,322.22c-5.42,0-10.35-1.08-14.78-3.24-4.43-2.16-7.93-5.41-10.5-9.73-2.57-4.33-3.86-9.78-3.86-16.37v-43.97h15.45v44.08c0,3.23.55,5.97,1.65,8.24,1.1,2.27,2.69,3.97,4.79,5.1,2.09,1.13,4.62,1.7,7.57,1.7s5.47-.57,7.57-1.7c2.09-1.13,3.69-2.83,4.79-5.1,1.1-2.27,1.65-5.01,1.65-8.24v-44.08h15.45v43.97c0,6.59-1.34,12.05-4.02,16.37-2.68,4.33-6.28,7.57-10.81,9.73-4.53,2.16-9.51,3.24-14.93,3.24Z"/>
    <path class="cls-1" d="M460.23,320.98v-72.09h25.95c8.3,0,15.21,1.49,20.7,4.48,5.49,2.99,9.56,7.17,12.2,12.56,2.64,5.39,3.96,11.72,3.96,19s-1.32,13.51-3.96,18.9c-2.65,5.39-6.69,9.6-12.15,12.61-5.46,3.02-12.41,4.53-20.85,4.53h-25.85ZM475.68,307.7h9.58c5.56,0,9.95-.91,13.18-2.73,3.23-1.82,5.51-4.43,6.85-7.83,1.34-3.4,2.01-7.47,2.01-12.2s-.67-8.91-2.01-12.31c-1.34-3.4-3.62-6.01-6.85-7.83-3.23-1.82-7.62-2.73-13.18-2.73h-9.58v45.62Z"/>
    <path class="cls-1" d="M523.46,320.98l23.27-72.09h23.58l23.27,72.09h-16.37l-18.54-61.27h-.31l-18.85,61.27h-16.06ZM534.89,301.93l4.02-11.95h37.9l3.91,11.95h-45.83Z"/>
    <path class="cls-1" d="M626.75,322.22c-6.39,0-12.02-1.53-16.89-4.58-4.87-3.05-8.7-7.33-11.48-12.82-2.78-5.49-4.17-11.91-4.17-19.26s1.46-13.97,4.38-19.67c2.92-5.7,7.12-10.16,12.61-13.39,5.49-3.23,12.01-4.84,19.57-4.84,8.65,0,15.81,2.06,21.47,6.18,5.66,4.12,9.32,9.82,10.97,17.09h-17.2c-1.03-2.88-2.83-5.11-5.41-6.69-2.57-1.58-5.85-2.37-9.83-2.37-4.53,0-8.34.98-11.43,2.94s-5.43,4.7-7,8.24c-1.58,3.54-2.37,7.71-2.37,12.51s.79,9.13,2.37,12.56c1.58,3.43,3.88,6.02,6.9,7.77,3.02,1.75,6.59,2.63,10.71,2.63,5.9,0,10.38-1.55,13.44-4.63,3.05-3.09,4.92-6.97,5.61-11.64h-16.79v-11.53h32.23v40.27h-14.21l-1.13-10.71h-.31c-1.51,2.54-3.33,4.72-5.46,6.54-2.13,1.82-4.58,3.18-7.36,4.07-2.78.89-5.85,1.34-9.22,1.34Z"/>
    <path class="cls-1" d="M674.53,320.98v-72.09h48.3v12.46h-32.85v16.99h29.76v11.95h-29.76v18.23h32.85v12.46h-48.3Z"/>
    <path class="cls-1" d="M757.12,322.22c-5.15,0-9.8-.88-13.96-2.63-4.15-1.75-7.43-4.34-9.83-7.78-2.4-3.43-3.71-7.65-3.91-12.67h16.48c.07,1.99.57,3.74,1.49,5.25.93,1.51,2.21,2.69,3.86,3.55,1.65.86,3.6,1.29,5.87,1.29,1.85,0,3.48-.27,4.89-.82,1.41-.55,2.52-1.39,3.35-2.52.82-1.13,1.24-2.56,1.24-4.27,0-1.85-.48-3.43-1.44-4.74-.96-1.3-2.28-2.42-3.96-3.35-1.68-.93-3.6-1.77-5.77-2.52-2.16-.76-4.45-1.51-6.85-2.27-5.63-1.92-9.99-4.46-13.08-7.62-3.09-3.16-4.64-7.38-4.64-12.67,0-4.39,1.08-8.14,3.24-11.22,2.16-3.09,5.13-5.46,8.91-7.11,3.78-1.65,8.07-2.47,12.87-2.47s9.28.84,13.03,2.52c3.74,1.68,6.73,4.12,8.96,7.31,2.23,3.19,3.42,6.99,3.55,11.38h-16.68c0-1.58-.41-3-1.24-4.27-.82-1.27-1.9-2.27-3.24-2.99-1.34-.72-2.9-1.08-4.69-1.08-1.51-.07-2.92.15-4.22.67-1.3.51-2.33,1.29-3.09,2.32-.76,1.03-1.13,2.33-1.13,3.91s.38,2.92,1.13,4.02c.75,1.1,1.84,2.04,3.24,2.83,1.41.79,3.05,1.54,4.94,2.27s3.97,1.46,6.23,2.21c3.64,1.24,7,2.7,10.09,4.38,3.09,1.68,5.56,3.88,7.42,6.59,1.85,2.71,2.78,6.3,2.78,10.76,0,3.91-1,7.52-2.99,10.81-1.99,3.3-4.89,5.94-8.7,7.93-3.81,1.99-8.53,2.99-14.16,2.99Z"/>
    <path class="cls-2" d="M800.06,320.98v-54.27l-12.15,2.78v-12.25l18.95-8.34h9.16v72.09h-15.96Z"/>
    <path class="cls-2" d="M857.53,322.22c-6.8,0-12.62-1.58-17.46-4.74-4.84-3.16-8.57-7.53-11.17-13.13-2.61-5.59-3.91-12.06-3.91-19.41s1.3-13.82,3.91-19.41c2.61-5.59,6.33-9.97,11.17-13.13,4.84-3.16,10.66-4.74,17.46-4.74s12.51,1.58,17.35,4.74c4.84,3.16,8.55,7.54,11.12,13.13,2.57,5.6,3.86,12.07,3.86,19.41s-1.29,13.82-3.86,19.41c-2.57,5.6-6.28,9.97-11.12,13.13-4.84,3.16-10.62,4.74-17.35,4.74ZM857.42,308.32c3.36,0,6.3-.96,8.8-2.88,2.51-1.92,4.46-4.62,5.87-8.08,1.41-3.47,2.11-7.6,2.11-12.41s-.7-8.94-2.11-12.41c-1.41-3.47-3.36-6.14-5.87-8.03-2.51-1.89-5.44-2.83-8.8-2.83s-6.2.94-8.7,2.83c-2.51,1.89-4.46,4.57-5.87,8.03-1.41,3.47-2.11,7.61-2.11,12.41s.7,8.94,2.11,12.41c1.41,3.47,3.36,6.16,5.87,8.08,2.5,1.92,5.41,2.88,8.7,2.88Z"/>
    <path class="cls-2" d="M930.13,322.22c-6.8,0-12.62-1.58-17.46-4.74-4.84-3.16-8.57-7.53-11.17-13.13-2.61-5.59-3.91-12.06-3.91-19.41s1.3-13.82,3.91-19.41c2.61-5.59,6.33-9.97,11.17-13.13,4.84-3.16,10.66-4.74,17.46-4.74s12.51,1.58,17.35,4.74c4.84,3.16,8.55,7.54,11.12,13.13,2.57,5.6,3.86,12.07,3.86,19.41s-1.29,13.82-3.86,19.41c-2.57,5.6-6.28,9.97-11.12,13.13-4.84,3.16-10.62,4.74-17.35,4.74ZM930.03,308.32c3.36,0,6.3-.96,8.8-2.88,2.51-1.92,4.46-4.62,5.87-8.08,1.41-3.47,2.11-7.6,2.11-12.41s-.7-8.94-2.11-12.41c-1.41-3.47-3.36-6.14-5.87-8.03-2.51-1.89-5.44-2.83-8.8-2.83s-6.2.94-8.7,2.83c-2.51,1.89-4.46,4.57-5.87,8.03-1.41,3.47-2.11,7.61-2.11,12.41s.7,8.94,2.11,12.41c1.41,3.47,3.36,6.16,5.87,8.08,2.5,1.92,5.41,2.88,8.7,2.88Z"/>
  </g>
  <g>
    <path class="cls-2" d="M438.77,64.36c.81,0,1.47-.66,1.47-1.47v-5.23c0-.81-.66-1.47-1.47-1.47h-3.53v-30.59c0-.81.66-1.47,1.47-1.47h2.06c.81,0,1.47-.66,1.47-1.47v-5.23c0-.81-.66-1.47-1.47-1.47h-2.06c-.81,0-1.47-.66-1.47-1.47V1.47c0-.81-.66-1.47-1.47-1.47h-4.77c-.81,0-1.47.66-1.47,1.47v13.04c0,.81-.66,1.47-1.47,1.47h-109.77c-.81,0-1.47-.66-1.47-1.47V1.47c0-.81-.66-1.47-1.47-1.47h-4.77c-.81,0-1.47.66-1.47,1.47v13.04c0,.81-.66,1.47-1.47,1.47h-2.06c-.81,0-1.47.66-1.47,1.47v5.23c0,.81.66,1.47,1.47,1.47h2.06c.81,0,1.47.66,1.47,1.47v30.59h-3.53c-.81,0-1.47.66-1.47,1.47v5.23c0,.81.66,1.47,1.47,1.47h3.53v37.02h-3.53c-.81,0-1.47.66-1.47,1.47v5.23c0,.81.66,1.47,1.47,1.47h3.53v49.04h-3.53c-.81,0-1.47.66-1.47,1.47v5.23c0,.81.66,1.47,1.47,1.47h3.53v49.04h-3.53c-.81,0-1.47.66-1.47,1.47v5.23c0,.81.66,1.47,1.47,1.47h14.76c.81,0,1.47-.66,1.47-1.47v-5.23c0-.81-.66-1.47-1.47-1.47h-3.53v-7.58l23.45-16.77v-10.03l-23.45,16.76v-31.42h3.53c.81,0,1.47-.66,1.47-1.47v-5.23c0-.81-.66-1.47-1.47-1.47h-3.53v-49.04h112.7v106.24h-3.53c-.81,0-1.47.66-1.47,1.47v5.23c0,.81.66,1.47,1.47,1.47h14.76c.81,0,1.47-.66,1.47-1.47v-5.23c0-.81-.66-1.47-1.47-1.47h-3.53v-106.24h3.53c.81,0,1.47-.66,1.47-1.47v-5.23c0-.81-.66-1.47-1.47-1.47h-3.53v-37.02h3.53ZM415.76,24.14l-45.83,32.77-45.83-32.77h91.67ZM318.36,56.2h-3.53v-28.64l48.07,34.37-48.07,34.37v-31.94h3.53c.81,0,1.47-.66,1.47-1.47v-5.23c0-.81-.66-1.47-1.47-1.47ZM369.92,66.95l48.16,34.44h-96.32l48.16-34.44ZM427.53,98.11l-50.6-36.18,50.6-36.18v30.45h-3.53c-.81,0-1.47.66-1.47,1.47v5.23c0,.81.66,1.47,1.47,1.47h3.53v33.75Z"/>
    <g>
      <path class="cls-1" d="M656.91,184.71c-.59-3.71-4.5-4.27-7.65-3.87-.68-8.55.92-18.48,0-26.86-.55-5.03-3.7-8.73-8.19-10.73-9.19-4.09-21.26-5.19-30.65-9.24-7.37-10.74-12.67-24.12-20.08-34.66-3.76-5.36-8.43-8.21-15-9.04l-51.58.06c-.45.09-.55.44-.76.78-1.5,2.43-.25,14.35-.28,17.91-.14,21.35-.55,42.74-.32,64.1h-7.67l-.43-35.83-.08-6.11h-192.58c-1.33,0-3.93,2.56-4.24,3.94-.93,4.08,1.98,6.22,5.55,7.11.6,7.75-.91,16.92-.03,24.5.14,1.19.35,2.46,1.28,3.32h21.74v23.27c0,1.34,4.29,2.23,5.45,2.26,4.35.12,9.19-.64,13.76-.5.86.03,1.51.18,2.27.54,4.14-27.46,40.59-37.13,56.39-13.16,1.43,2.17,2.43,4.3,3.11,6.4.66,2.05,1.02,4.08,1.19,6.11h31.73c4.64-.03,9.29-.03,13.93,0,12.93.07,25.86.29,38.76.46,1.77.03,9.36-1.06,10.18.16.27,3.19.53,5.11,4.1,5.61l46.76.05c-.47-13.07,8.4-26.93,20.96-30.95,5.85-1.87,14.19-1.89,20.07-.11,12.76,3.89,21.46,17.9,20.35,31.06,5.75-.5,12.55.66,18.17.01,2.37-.28,3.57-1.48,3.84-3.84.3-2.58.35-10.3-.04-12.77ZM372.04,159.36h-40.42v-17.39h40.42v17.39ZM435.46,141.97h69.05v17.39h-69.05v-17.39ZM380.73,159.36v-17.39h46.55v17.39h-46.55ZM556.68,136.34h-11c-1.69,0-2.64-1.78-2.82-3.31-.64-5.4-.64-20.71,0-26.11.1-.85,1.01-3.31,1.8-3.31h11.25l.77.77v31.97ZM562.56,136.34l-.77-.77v-31.97h14.07c2.52,0,4.33,2.29,5.59,4.13,3.75,5.48,7.88,13.57,11.12,19.56,1.59,2.93,3.24,5.96,4.52,9.04h-34.53Z"/>
      <path class="cls-1" d="M398.14,175.38c-13.38,0-24.21,10.84-24.21,24.21s10.84,24.21,24.21,24.21,24.21-10.84,24.21-24.21-10.84-24.21-24.21-24.21ZM398.1,210.24c-5.84,0-10.58-4.74-10.58-10.58s4.74-10.58,10.58-10.58,10.58,4.74,10.58,10.58-4.74,10.58-10.58,10.58Z"/>
      <path class="cls-1" d="M604.57,175.39c-13.38,0-24.22,10.84-24.22,24.22s10.84,24.22,24.22,24.22,24.23-10.84,24.23-24.22-10.85-24.22-24.23-24.22ZM604.72,210.29c-5.87,0-10.63-4.76-10.63-10.62s4.76-10.63,10.63-10.63,10.62,4.76,10.62,10.63-4.76,10.62-10.62,10.62Z"/>
    </g>
    <path class="cls-1" d="M454.38,223.46c-.55-.15-2.07-2.03-2.19-2.82-.92-6.49,10.39-9.21,10.57-9.97-.16-7.61.11-15.23-.01-22.84-.41-25.26-.37-51.11-1.91-76.07l1.88-21.39c-7.4,2.43-16.17-.56-15.42-9.52.57-6.89,11.29-29.79,16.72-34.07,5.35-4.23,9.55-2.99,14.82-4.99,5.07-1.93.03-6.47-.94-9.61-.76-2.45-1.22-11.05-1.63-11.68-.18-.27-2.2-.56-2.97-1.05-3.33-2.16.9-2.95,1.85-4.26,1.79-2.46,1.46-5.71,5.22-8.39,4.25-3.03,12.39-2.54,16.1,1.24,2.77,2.82,2.18,6.04,3.54,8.84.75,1.53,2.8,2.1,2.34,4.15l-3.68.65c.23,3.74-.56,7.41-1.76,10.93-.57,1.68-2.42,2.74-1.9,4.68.16.57,2.99,3.99,3.65,4.45,6.52,4.56,13.6,1.83,16.88,12.21,2.12,6.73-1.03,24.94-4.41,31.25-8.13,15.22-22.8,6.91-34.77,2.97-.61-.2-1.99-.85-1.86.32,9.77,4.16,22.07,10.8,32.18,4.34-1.98,6.07.72,13.2.02,18.9-1.69,13.81,1.51,30.74,3.08,45.16,1.75,16.05,4.31,32.2,5.57,48.29.31,3.92-.43,9.02.04,12.35.16,1.16,1.14,2.11,1.16,3.12.07,4.54-7.49,2.83-10.14,2.76-1.99-.05-8.96.75-9.53-.99-1.13-4.81,1.53-7.55,3.32-11.43l-17.02-74.84-3.2,81.89c-.12,3.01-2.59,5.39-5.6,5.39h-19.99ZM463.98,64.99l-1.79,10.12.94.93c5.34.54,10.6-1.16,15.96-.48,4.07.52,12.26,4.97,15.83,3.34,3.66-1.67,2.37-10.94,3.1-14.53-2.04.99-3.24,11.69-4.07,11.8l-28.73-3.14-1.23-8.04Z"/>
  </g>
  <g>
    <path class="cls-1" d="M0,363.17v-14.99h5.13c1.71,0,3.12.31,4.24.93,1.11.62,1.94,1.49,2.48,2.61.54,1.12.81,2.44.81,3.95s-.27,2.83-.81,3.95-1.37,1.99-2.48,2.61c-1.11.62-2.53.93-4.24.93H0ZM2.84,360.69h2.12c1.22,0,2.18-.2,2.87-.6.69-.4,1.19-.97,1.48-1.72.29-.75.44-1.64.44-2.69s-.15-1.96-.44-2.71c-.29-.75-.79-1.32-1.48-1.72-.69-.4-1.65-.6-2.87-.6h-2.12v10.04Z"/>
    <path class="cls-1" d="M19.55,363.43c-1.07,0-2.01-.23-2.83-.69-.82-.46-1.46-1.1-1.92-1.93s-.69-1.78-.69-2.85.23-2.09.68-2.95c.46-.85,1.09-1.52,1.91-2,.82-.48,1.78-.73,2.87-.73s1.95.23,2.73.69c.78.46,1.4,1.08,1.85,1.87.45.79.67,1.69.67,2.69v.48c0,.18-.01.36-.04.55h-8.66v-1.78h5.82c-.04-.67-.28-1.21-.72-1.61-.44-.4-.99-.6-1.65-.6-.49,0-.94.11-1.35.33-.41.22-.73.56-.97,1.01-.24.45-.36,1.02-.36,1.7v.62c0,.59.11,1.09.34,1.51s.54.75.94.97c.4.23.85.34,1.36.34s.95-.12,1.3-.35c.35-.24.62-.54.8-.91h2.9c-.21.67-.55,1.28-1.01,1.83-.46.55-1.03.98-1.7,1.31-.67.32-1.43.48-2.27.48ZM17.05,351.63v-2.16l4.73-2.44h.06v2.29l-4.79,2.31Z"/>
    <path class="cls-1" d="M26.34,363.17v-10.62h2.48l.25,1.69h.06c.32-.64.77-1.13,1.33-1.46.57-.33,1.23-.49,1.99-.49.52,0,1,.07,1.43.21.43.14.82.36,1.16.66.34.3.62.69.84,1.16h.06c.39-.64.89-1.14,1.48-1.5s1.32-.54,2.18-.54,1.56.19,2.16.57c.6.38,1.05.93,1.38,1.66.32.73.48,1.63.48,2.7v5.95h-2.82v-5.7c0-.88-.17-1.56-.5-2.03-.34-.47-.87-.71-1.6-.71-.46,0-.87.11-1.21.32-.34.21-.61.53-.81.94-.2.41-.29.93-.29,1.54v5.63h-2.82v-5.7c0-.88-.17-1.56-.5-2.03s-.87-.71-1.6-.71c-.42,0-.81.12-1.16.35-.35.23-.63.57-.83,1.01-.2.44-.3.97-.3,1.59v5.48h-2.84Z"/>
    <path class="cls-1" d="M50.48,363.43c-1.01,0-1.92-.23-2.73-.71-.81-.47-1.45-1.13-1.92-1.97-.47-.84-.7-1.81-.7-2.89s.24-2.07.71-2.9c.48-.84,1.12-1.49,1.93-1.96.81-.47,1.72-.71,2.71-.71s1.92.24,2.73.71,1.45,1.12,1.92,1.96.7,1.8.7,2.9-.24,2.07-.72,2.9c-.48.83-1.12,1.49-1.92,1.96s-1.71.71-2.72.71ZM50.46,360.99c.46,0,.88-.12,1.25-.35.37-.24.67-.59.9-1.05.23-.46.35-1.04.35-1.72s-.12-1.28-.35-1.75c-.23-.46-.53-.81-.9-1.04-.37-.23-.78-.34-1.21-.34s-.86.11-1.24.34c-.38.23-.68.57-.9,1.04-.22.46-.34,1.05-.34,1.75s.11,1.26.34,1.72c.22.46.52.81.89,1.05.37.23.77.35,1.21.35Z"/>
    <path class="cls-1" d="M57.46,363.17v-10.62h2.44l.23,1.73h.06c.34-.61.8-1.1,1.39-1.46.59-.36,1.31-.54,2.17-.54s1.6.19,2.21.57c.6.38,1.06.93,1.38,1.66.32.73.47,1.63.47,2.7v5.95h-2.82v-5.7c0-.88-.17-1.56-.53-2.03s-.91-.71-1.68-.71c-.48,0-.9.12-1.28.35-.38.23-.67.57-.88,1.01s-.32.97-.32,1.59v5.48h-2.84Z"/>
    <path class="cls-1" d="M74.39,363.17c-.74,0-1.39-.12-1.95-.35-.55-.24-.98-.63-1.29-1.18-.31-.55-.46-1.3-.46-2.26v-4.5h-1.79v-2.33h1.79l.32-2.89h2.52v2.89h2.78v2.33h-2.78v4.54c0,.5.1.85.32,1.04.21.19.57.29,1.07.29h1.32v2.42h-1.85Z"/>
    <path class="cls-1" d="M81.03,363.43c-.84,0-1.54-.14-2.08-.43-.55-.28-.95-.67-1.21-1.16-.26-.49-.39-1.02-.39-1.61,0-.66.16-1.23.49-1.73.33-.5.83-.89,1.5-1.17.67-.28,1.52-.42,2.54-.42h2.63c0-.53-.07-.96-.22-1.31-.15-.34-.37-.59-.67-.76-.3-.16-.68-.25-1.15-.25-.55,0-1.01.12-1.4.36-.39.24-.63.63-.73,1.16h-2.75c.08-.78.34-1.46.77-2.03.43-.57,1-1.01,1.7-1.33.71-.31,1.51-.47,2.41-.47,1.01,0,1.88.17,2.61.5.73.34,1.29.83,1.68,1.48.39.65.59,1.44.59,2.37v6.53h-2.38l-.29-1.65h-.06c-.2.31-.42.59-.67.83-.25.23-.53.43-.82.59-.29.16-.62.28-.98.36-.36.09-.73.13-1.12.13ZM81.92,361.2c.38,0,.71-.07,1.01-.2s.54-.32.75-.55c.2-.23.36-.5.48-.8.12-.31.2-.62.24-.95h-2.19c-.43,0-.79.05-1.06.16-.27.11-.47.26-.6.45-.13.19-.19.42-.19.67s.06.48.19.66c.13.19.31.32.55.42s.51.14.82.14Z"/>
    <path class="cls-1" d="M93.98,367.82c-1,0-1.87-.13-2.62-.37-.75-.25-1.33-.61-1.75-1.09-.41-.48-.62-1.07-.62-1.77,0-.49.13-.94.38-1.37s.62-.82,1.11-1.17c.49-.35,1.09-.65,1.81-.91l1.03,1.41c-.62.21-1.07.47-1.35.78s-.42.65-.42,1.02c0,.3.1.55.3.76s.49.36.85.47c.36.11.78.16,1.26.16s.85-.06,1.18-.17c.32-.12.57-.28.75-.48.18-.21.26-.45.26-.74,0-.37-.13-.67-.4-.89s-.79-.36-1.56-.42c-.71-.06-1.35-.14-1.89-.25-.55-.11-1.03-.23-1.44-.39-.41-.15-.77-.32-1.06-.5-.29-.19-.53-.37-.71-.56v-.49l2.25-2.38,1.75.64-2.35,2.59.78-1.31c.14.07.28.14.43.19.15.06.34.11.57.17.23.06.53.11.88.17s.81.11,1.36.15c.92.09,1.68.26,2.27.51.59.26,1.02.61,1.3,1.05.28.44.42.98.42,1.63,0,.59-.17,1.15-.52,1.68-.34.54-.87.98-1.57,1.33-.7.35-1.6.53-2.69.53ZM94.01,360.02c-.88,0-1.64-.17-2.28-.51s-1.13-.81-1.47-1.39c-.34-.58-.52-1.23-.52-1.95s.17-1.36.52-1.95c.34-.59.83-1.05,1.47-1.4s1.4-.53,2.28-.53,1.64.18,2.28.53,1.12.82,1.46,1.4c.34.58.5,1.23.5,1.95s-.17,1.36-.5,1.95c-.34.59-.82,1.05-1.46,1.39s-1.4.51-2.28.51ZM93.98,357.9c.55,0,.99-.15,1.34-.44.34-.29.52-.72.52-1.3s-.17-1-.52-1.28c-.34-.28-.78-.43-1.31-.43s-1,.14-1.35.43c-.35.29-.53.71-.53,1.28s.18,1,.53,1.3c.35.29.79.44,1.32.44ZM95.71,354.52l-.46-1.97h4.37v1.61l-3.91.36Z"/>
    <path class="cls-1" d="M106.26,363.43c-1.07,0-2.01-.23-2.83-.69-.82-.46-1.46-1.1-1.92-1.93s-.69-1.78-.69-2.85.23-2.09.68-2.95c.46-.85,1.09-1.52,1.91-2,.82-.48,1.78-.73,2.87-.73s1.95.23,2.73.69c.78.46,1.4,1.08,1.85,1.87.45.79.67,1.69.67,2.69v.48c0,.18-.01.36-.04.55h-8.66v-1.78h5.82c-.04-.67-.28-1.21-.72-1.61-.44-.4-.99-.6-1.65-.6-.49,0-.94.11-1.35.33-.41.22-.73.56-.97,1.01-.24.45-.36,1.02-.36,1.7v.62c0,.59.11,1.09.34,1.51s.54.75.94.97c.4.23.85.34,1.36.34s.95-.12,1.3-.35c.35-.24.62-.54.8-.91h2.9c-.21.67-.55,1.28-1.01,1.83-.46.55-1.03.98-1.7,1.31-.67.32-1.43.48-2.27.48Z"/>
    <path class="cls-1" d="M122.56,363.43c-1.07,0-2.01-.23-2.83-.69-.82-.46-1.46-1.1-1.92-1.93s-.69-1.78-.69-2.85.23-2.09.68-2.95c.46-.85,1.09-1.52,1.91-2,.82-.48,1.78-.73,2.87-.73s1.95.23,2.73.69c.78.46,1.4,1.08,1.85,1.87.45.79.67,1.69.67,2.69v.48c0,.18-.01.36-.04.55h-8.66v-1.78h5.82c-.04-.67-.28-1.21-.72-1.61-.44-.4-.99-.6-1.65-.6-.49,0-.94.11-1.35.33-.41.22-.73.56-.97,1.01-.24.45-.36,1.02-.36,1.7v.62c0,.59.11,1.09.34,1.51s.54.75.94.97c.4.23.85.34,1.36.34s.95-.12,1.3-.35c.35-.24.62-.54.8-.91h2.9c-.21.67-.55,1.28-1.01,1.83-.46.55-1.03.98-1.7,1.31-.67.32-1.43.48-2.27.48ZM120.06,351.63v-2.16l4.73-2.44h.06v2.29l-4.79,2.31Z"/>
    <path class="cls-1" d="M134.52,363.43c-1.11,0-2.07-.24-2.89-.72-.82-.48-1.46-1.13-1.91-1.97-.46-.84-.68-1.8-.68-2.88s.23-2.04.7-2.88c.47-.83,1.11-1.49,1.93-1.97s1.77-.72,2.85-.72c1.35,0,2.48.36,3.41,1.07.92.71,1.51,1.7,1.75,2.96h-3.01c-.11-.5-.37-.89-.77-1.18-.4-.28-.87-.43-1.4-.43-.49,0-.93.13-1.31.37-.39.25-.69.61-.92,1.08-.22.47-.34,1.04-.34,1.69,0,.49.06.92.19,1.3s.3.7.54.97c.23.27.5.48.81.62.31.14.65.21,1.03.21s.69-.06.99-.18c.29-.12.55-.3.76-.54.21-.23.35-.52.42-.84h3.01c-.24,1.23-.82,2.2-1.75,2.93-.93.73-2.06,1.09-3.41,1.09Z"/>
    <path class="cls-1" d="M141.37,363.17v-15.1h2.8v6.21h.06c.36-.64.84-1.14,1.43-1.48.59-.34,1.28-.51,2.08-.51.84,0,1.56.19,2.15.57.6.38,1.05.93,1.36,1.66.31.73.46,1.63.46,2.7v5.95h-2.82v-5.7c0-.88-.17-1.56-.51-2.03-.34-.47-.89-.71-1.65-.71-.49,0-.93.12-1.3.35-.38.23-.68.57-.89,1.01-.22.44-.33.97-.33,1.59v5.48h-2.84Z"/>
    <path class="cls-1" d="M156.98,363.43c-.84,0-1.54-.14-2.08-.43-.55-.28-.95-.67-1.21-1.16-.26-.49-.39-1.02-.39-1.61,0-.66.16-1.23.49-1.73.33-.5.83-.89,1.5-1.17.67-.28,1.52-.42,2.54-.42h2.63c0-.53-.07-.96-.22-1.31-.15-.34-.37-.59-.67-.76-.3-.16-.68-.25-1.15-.25-.55,0-1.01.12-1.4.36-.39.24-.63.63-.73,1.16h-2.75c.08-.78.34-1.46.77-2.03.43-.57,1-1.01,1.7-1.33.71-.31,1.51-.47,2.41-.47,1.01,0,1.88.17,2.61.5.73.34,1.29.83,1.68,1.48.39.65.59,1.44.59,2.37v6.53h-2.38l-.29-1.65h-.06c-.2.31-.42.59-.67.83-.25.23-.53.43-.82.59-.29.16-.62.28-.98.36-.36.09-.73.13-1.12.13ZM157.86,361.2c.38,0,.71-.07,1.01-.2s.54-.32.75-.55c.2-.23.36-.5.48-.8.12-.31.2-.62.24-.95h-2.19c-.43,0-.79.05-1.06.16-.27.11-.47.26-.6.45-.13.19-.19.42-.19.67s.06.48.19.66c.13.19.31.32.55.42s.51.14.82.14Z"/>
    <path class="cls-1" d="M164.4,354.88v-2.33h6.45v2.33h-6.45ZM165.83,363.17v-11.43c0-.9.15-1.61.44-2.14.29-.53.71-.91,1.26-1.16.55-.24,1.19-.36,1.93-.36h1.18v2.42h-.74c-.45,0-.77.09-.96.27-.19.18-.28.49-.28.93v11.48h-2.84Z"/>
    <path class="cls-1" d="M175.33,363.43c-.84,0-1.54-.14-2.08-.43-.55-.28-.95-.67-1.21-1.16-.26-.49-.39-1.02-.39-1.61,0-.66.16-1.23.49-1.73.33-.5.83-.89,1.5-1.17.67-.28,1.52-.42,2.54-.42h2.63c0-.53-.07-.96-.22-1.31-.15-.34-.37-.59-.67-.76-.3-.16-.68-.25-1.15-.25-.55,0-1.01.12-1.4.36-.39.24-.63.63-.73,1.16h-2.75c.08-.78.34-1.46.77-2.03.43-.57,1-1.01,1.7-1.33.71-.31,1.51-.47,2.41-.47,1.01,0,1.88.17,2.61.5.73.34,1.29.83,1.68,1.48.39.65.59,1.44.59,2.37v6.53h-2.38l-.29-1.65h-.06c-.2.31-.42.59-.67.83-.25.23-.53.43-.82.59-.29.16-.62.28-.98.36-.36.09-.73.13-1.12.13ZM176.21,361.2c.38,0,.71-.07,1.01-.2s.54-.32.75-.55c.2-.23.36-.5.48-.8.12-.31.2-.62.24-.95h-2.19c-.43,0-.79.05-1.06.16-.27.11-.47.26-.6.45-.13.19-.19.42-.19.67s.06.48.19.66c.13.19.31.32.55.42s.51.14.82.14Z"/>
    <path class="cls-1" d="M187.42,363.43c-.87,0-1.6-.18-2.21-.56-.6-.37-1.07-.92-1.39-1.66s-.48-1.64-.48-2.71v-5.95h2.84v5.7c0,.89.17,1.56.53,2.03.35.47.9.71,1.66.71.49,0,.92-.12,1.29-.35.37-.24.66-.58.87-1.02.21-.44.32-.97.32-1.59v-5.48h2.84v10.62h-2.44l-.23-1.71h-.06c-.32.6-.78,1.08-1.37,1.43-.59.36-1.31.53-2.17.53Z"/>
    <path class="cls-1" d="M200.27,363.43c-.98,0-1.84-.24-2.59-.72-.74-.48-1.32-1.14-1.73-1.98-.41-.84-.62-1.8-.62-2.87s.21-2.03.62-2.87c.41-.84,1-1.5,1.76-1.98.76-.48,1.64-.72,2.65-.72.8,0,1.5.16,2.09.47.6.31,1.06.71,1.4,1.18v-5.87h2.84v15.1h-2.42l-.19-1.78h-.06c-.25.41-.56.77-.93,1.07s-.78.53-1.24.71-.99.26-1.58.26ZM201.05,361.01c.57,0,1.08-.13,1.5-.41s.76-.64,1-1.11c.24-.47.36-1.02.36-1.65s-.12-1.16-.36-1.63c-.24-.47-.57-.84-1-1.11-.43-.27-.93-.41-1.5-.41s-1.06.14-1.48.41c-.43.27-.76.64-1,1.11-.24.47-.36,1.01-.36,1.63s.12,1.18.36,1.65c.24.47.57.84,1,1.11s.92.41,1.48.41Z"/>
    <path class="cls-1" d="M212.15,363.43c-.84,0-1.54-.14-2.08-.43-.55-.28-.95-.67-1.21-1.16-.26-.49-.39-1.02-.39-1.61,0-.66.16-1.23.49-1.73.33-.5.83-.89,1.5-1.17.67-.28,1.52-.42,2.54-.42h2.63c0-.53-.07-.96-.22-1.31-.15-.34-.37-.59-.67-.76-.3-.16-.68-.25-1.15-.25-.55,0-1.01.12-1.4.36-.39.24-.63.63-.73,1.16h-2.75c.08-.78.34-1.46.77-2.03.43-.57,1-1.01,1.7-1.33.71-.31,1.51-.47,2.41-.47,1.01,0,1.88.17,2.61.5.73.34,1.29.83,1.68,1.48.39.65.59,1.44.59,2.37v6.53h-2.38l-.29-1.65h-.06c-.2.31-.42.59-.67.83-.25.23-.53.43-.82.59-.29.16-.62.28-.98.36-.36.09-.73.13-1.12.13ZM213.03,361.2c.38,0,.71-.07,1.01-.2s.54-.32.75-.55c.2-.23.36-.5.48-.8.12-.31.2-.62.24-.95h-2.19c-.43,0-.79.05-1.06.16-.27.11-.47.26-.6.45-.13.19-.19.42-.19.67s.06.48.19.66c.13.19.31.32.55.42s.51.14.82.14Z"/>
    <path class="cls-1" d="M225.1,367.82c-1,0-1.87-.13-2.62-.37-.75-.25-1.33-.61-1.75-1.09-.41-.48-.62-1.07-.62-1.77,0-.49.13-.94.38-1.37s.62-.82,1.11-1.17c.49-.35,1.09-.65,1.81-.91l1.03,1.41c-.62.21-1.07.47-1.35.78s-.42.65-.42,1.02c0,.3.1.55.3.76s.49.36.85.47c.36.11.78.16,1.26.16s.85-.06,1.18-.17c.32-.12.57-.28.75-.48.18-.21.26-.45.26-.74,0-.37-.13-.67-.4-.89s-.79-.36-1.56-.42c-.71-.06-1.35-.14-1.89-.25-.55-.11-1.03-.23-1.44-.39-.41-.15-.77-.32-1.06-.5-.29-.19-.53-.37-.71-.56v-.49l2.25-2.38,1.75.64-2.35,2.59.78-1.31c.14.07.28.14.43.19.15.06.34.11.57.17.23.06.53.11.88.17s.81.11,1.36.15c.92.09,1.68.26,2.27.51.59.26,1.02.61,1.3,1.05.28.44.42.98.42,1.63,0,.59-.17,1.15-.52,1.68-.34.54-.87.98-1.57,1.33-.7.35-1.6.53-2.69.53ZM225.12,360.02c-.88,0-1.64-.17-2.28-.51s-1.13-.81-1.47-1.39c-.34-.58-.52-1.23-.52-1.95s.17-1.36.52-1.95c.34-.59.83-1.05,1.47-1.4s1.4-.53,2.28-.53,1.64.18,2.28.53,1.12.82,1.46,1.4c.34.58.5,1.23.5,1.95s-.17,1.36-.5,1.95c-.34.59-.82,1.05-1.46,1.39s-1.4.51-2.28.51ZM225.1,357.9c.55,0,.99-.15,1.34-.44.34-.29.52-.72.52-1.3s-.17-1-.52-1.28c-.34-.28-.78-.43-1.31-.43s-1,.14-1.35.43c-.35.29-.53.71-.53,1.28s.18,1,.53,1.3c.35.29.79.44,1.32.44ZM226.82,354.52l-.46-1.97h4.37v1.61l-3.91.36Z"/>
    <path class="cls-1" d="M237.38,363.43c-1.07,0-2.01-.23-2.83-.69-.82-.46-1.46-1.1-1.92-1.93s-.69-1.78-.69-2.85.23-2.09.68-2.95c.46-.85,1.09-1.52,1.91-2,.82-.48,1.78-.73,2.87-.73s1.95.23,2.73.69c.78.46,1.4,1.08,1.85,1.87.45.79.67,1.69.67,2.69v.48c0,.18-.01.36-.04.55h-8.66v-1.78h5.82c-.04-.67-.28-1.21-.72-1.61-.44-.4-.99-.6-1.65-.6-.49,0-.94.11-1.35.33-.41.22-.73.56-.97,1.01-.24.45-.36,1.02-.36,1.7v.62c0,.59.11,1.09.34,1.51s.54.75.94.97c.4.23.85.34,1.36.34s.95-.12,1.3-.35c.35-.24.62-.54.8-.91h2.9c-.21.67-.55,1.28-1.01,1.83-.46.55-1.03.98-1.7,1.31-.67.32-1.43.48-2.27.48Z"/>
    <path class="cls-2" d="M249.24,358.18v-2.42h8.87v2.42h-8.87Z"/>
    <path class="cls-1" d="M265.15,363.17v-14.99h3.66l4.29,9.79h.06l4.25-9.79h3.64v14.99h-2.84v-10.36h-.06l-3.68,8.22h-2.75l-3.66-8.22h-.06v10.36h-2.84Z"/>
    <path class="cls-1" d="M288.11,363.43c-1.01,0-1.92-.23-2.73-.71-.81-.47-1.45-1.13-1.92-1.97-.47-.84-.7-1.81-.7-2.89s.24-2.07.71-2.9c.48-.84,1.12-1.49,1.93-1.96.81-.47,1.72-.71,2.71-.71s1.92.24,2.73.71,1.45,1.12,1.92,1.96.7,1.8.7,2.9-.24,2.07-.72,2.9c-.48.83-1.12,1.49-1.92,1.96s-1.71.71-2.72.71ZM288.09,360.99c.46,0,.88-.12,1.25-.35.37-.24.67-.59.9-1.05.23-.46.35-1.04.35-1.72s-.12-1.28-.35-1.75c-.23-.46-.53-.81-.9-1.04-.37-.23-.78-.34-1.21-.34s-.86.11-1.24.34c-.38.23-.68.57-.9,1.04-.22.46-.34,1.05-.34,1.75s.11,1.26.34,1.72c.22.46.52.81.89,1.05.37.23.77.35,1.21.35Z"/>
    <path class="cls-1" d="M295.09,363.17v-10.62h2.44l.23,1.73h.06c.34-.61.8-1.1,1.39-1.46.59-.36,1.31-.54,2.17-.54s1.6.19,2.21.57c.6.38,1.06.93,1.38,1.66.32.73.47,1.63.47,2.7v5.95h-2.82v-5.7c0-.88-.17-1.56-.53-2.03s-.91-.71-1.68-.71c-.48,0-.9.12-1.28.35-.38.23-.67.57-.88,1.01s-.32.97-.32,1.59v5.48h-2.84Z"/>
    <path class="cls-1" d="M312.02,363.17c-.74,0-1.39-.12-1.95-.35-.55-.24-.98-.63-1.29-1.18-.31-.55-.46-1.3-.46-2.26v-4.5h-1.79v-2.33h1.79l.32-2.89h2.52v2.89h2.78v2.33h-2.78v4.54c0,.5.1.85.32,1.04.21.19.57.29,1.07.29h1.32v2.42h-1.85Z"/>
    <path class="cls-1" d="M318.66,363.43c-.84,0-1.54-.14-2.08-.43-.55-.28-.95-.67-1.21-1.16-.26-.49-.39-1.02-.39-1.61,0-.66.16-1.23.49-1.73.33-.5.83-.89,1.5-1.17.67-.28,1.52-.42,2.54-.42h2.63c0-.53-.07-.96-.22-1.31-.15-.34-.37-.59-.67-.76-.3-.16-.68-.25-1.15-.25-.55,0-1.01.12-1.4.36-.39.24-.63.63-.73,1.16h-2.75c.08-.78.34-1.46.77-2.03.43-.57,1-1.01,1.7-1.33.71-.31,1.51-.47,2.41-.47,1.01,0,1.88.17,2.61.5.73.34,1.29.83,1.68,1.48.39.65.59,1.44.59,2.37v6.53h-2.38l-.29-1.65h-.06c-.2.31-.42.59-.67.83-.25.23-.53.43-.82.59-.29.16-.62.28-.98.36-.36.09-.73.13-1.12.13ZM319.55,361.2c.38,0,.71-.07,1.01-.2s.54-.32.75-.55c.2-.23.36-.5.48-.8.12-.31.2-.62.24-.95h-2.19c-.43,0-.79.05-1.06.16-.27.11-.47.26-.6.45-.13.19-.19.42-.19.67s.06.48.19.66c.13.19.31.32.55.42s.51.14.82.14Z"/>
    <path class="cls-1" d="M331.61,367.82c-1,0-1.87-.13-2.62-.37-.75-.25-1.33-.61-1.75-1.09-.41-.48-.62-1.07-.62-1.77,0-.49.13-.94.38-1.37s.62-.82,1.11-1.17c.49-.35,1.09-.65,1.81-.91l1.03,1.41c-.62.21-1.07.47-1.35.78s-.42.65-.42,1.02c0,.3.1.55.3.76s.49.36.85.47c.36.11.78.16,1.26.16s.85-.06,1.18-.17c.32-.12.57-.28.75-.48.18-.21.26-.45.26-.74,0-.37-.13-.67-.4-.89s-.79-.36-1.56-.42c-.71-.06-1.35-.14-1.89-.25-.55-.11-1.03-.23-1.44-.39-.41-.15-.77-.32-1.06-.5-.29-.19-.53-.37-.71-.56v-.49l2.25-2.38,1.75.64-2.35,2.59.78-1.31c.14.07.28.14.43.19.15.06.34.11.57.17.23.06.53.11.88.17s.81.11,1.36.15c.92.09,1.68.26,2.27.51.59.26,1.02.61,1.3,1.05.28.44.42.98.42,1.63,0,.59-.17,1.15-.52,1.68-.34.54-.87.98-1.57,1.33-.7.35-1.6.53-2.69.53ZM331.63,360.02c-.88,0-1.64-.17-2.28-.51s-1.13-.81-1.47-1.39c-.34-.58-.52-1.23-.52-1.95s.17-1.36.52-1.95c.34-.59.83-1.05,1.47-1.4s1.4-.53,2.28-.53,1.64.18,2.28.53,1.12.82,1.46,1.4c.34.58.5,1.23.5,1.95s-.17,1.36-.5,1.95c-.34.59-.82,1.05-1.46,1.39s-1.4.51-2.28.51ZM331.61,357.9c.55,0,.99-.15,1.34-.44.34-.29.52-.72.52-1.3s-.17-1-.52-1.28c-.34-.28-.78-.43-1.31-.43s-1,.14-1.35.43c-.35.29-.53.71-.53,1.28s.18,1,.53,1.3c.35.29.79.44,1.32.44ZM333.34,354.52l-.46-1.97h4.37v1.61l-3.91.36Z"/>
    <path class="cls-1" d="M343.89,363.43c-1.07,0-2.01-.23-2.83-.69-.82-.46-1.46-1.1-1.92-1.93s-.69-1.78-.69-2.85.23-2.09.68-2.95c.46-.85,1.09-1.52,1.91-2,.82-.48,1.78-.73,2.87-.73s1.95.23,2.73.69c.78.46,1.4,1.08,1.85,1.87.45.79.67,1.69.67,2.69v.48c0,.18-.01.36-.04.55h-8.66v-1.78h5.82c-.04-.67-.28-1.21-.72-1.61-.44-.4-.99-.6-1.65-.6-.49,0-.94.11-1.35.33-.41.22-.73.56-.97,1.01-.24.45-.36,1.02-.36,1.7v.62c0,.59.11,1.09.34,1.51s.54.75.94.97c.4.23.85.34,1.36.34s.95-.12,1.3-.35c.35-.24.62-.54.8-.91h2.9c-.21.67-.55,1.28-1.01,1.83-.46.55-1.03.98-1.7,1.31-.67.32-1.43.48-2.27.48Z"/>
    <path class="cls-2" d="M355.75,358.18v-2.42h8.87v2.42h-8.87Z"/>
    <path class="cls-1" d="M376.71,363.43c-1.06,0-2.01-.23-2.83-.69-.82-.46-1.46-1.1-1.92-1.93-.46-.83-.69-1.78-.69-2.85s.23-2.09.68-2.95c.45-.85,1.09-1.52,1.91-2,.82-.48,1.78-.73,2.87-.73,1.04,0,1.95.23,2.73.69.79.46,1.4,1.08,1.85,1.87.45.79.67,1.69.67,2.69v.48c0,.18-.01.36-.04.55h-8.66v-1.78h5.82c-.04-.67-.28-1.21-.72-1.61-.44-.4-.99-.6-1.65-.6-.49,0-.94.11-1.35.33s-.73.56-.97,1.01c-.24.45-.36,1.02-.36,1.7v.62c0,.59.11,1.09.34,1.51s.54.75.94.97c.4.23.85.34,1.36.34s.95-.12,1.3-.35c.35-.24.62-.54.8-.91h2.9c-.21.67-.55,1.28-1.01,1.83-.46.55-1.03.98-1.7,1.31-.67.32-1.43.48-2.27.48ZM374.21,351.63v-2.16l4.73-2.44h.06v2.29l-4.79,2.31Z"/>
    <path class="cls-1" d="M388.68,363.43c-1.11,0-2.07-.24-2.89-.72-.82-.48-1.46-1.13-1.91-1.97-.46-.84-.68-1.8-.68-2.88s.23-2.04.7-2.88c.47-.83,1.11-1.49,1.93-1.97.82-.48,1.77-.72,2.85-.72,1.34,0,2.48.36,3.41,1.07.93.71,1.51,1.7,1.75,2.96h-3.01c-.11-.5-.37-.89-.77-1.18-.4-.28-.87-.43-1.4-.43-.49,0-.93.13-1.31.37-.39.25-.69.61-.92,1.08s-.34,1.04-.34,1.69c0,.49.06.92.19,1.3.13.38.31.7.54.97.23.27.5.48.81.62.31.14.65.21,1.03.21s.69-.06.99-.18.55-.3.76-.54c.21-.23.35-.52.42-.84h3.01c-.24,1.23-.82,2.2-1.75,2.93-.93.73-2.06,1.09-3.41,1.09Z"/>
    <path class="cls-1" d="M395.53,363.17v-15.1h2.8v6.21h.06c.36-.64.84-1.14,1.43-1.48s1.28-.51,2.08-.51c.84,0,1.56.19,2.16.57.59.38,1.05.93,1.36,1.66.31.73.46,1.63.46,2.7v5.95h-2.82v-5.7c0-.88-.17-1.56-.51-2.03-.34-.47-.89-.71-1.65-.71-.49,0-.93.12-1.3.35-.38.23-.68.57-.89,1.01s-.33.97-.33,1.59v5.48h-2.84Z"/>
    <path class="cls-1" d="M411.13,363.43c-.84,0-1.54-.14-2.08-.43-.55-.28-.95-.67-1.21-1.16s-.39-1.02-.39-1.61c0-.66.16-1.23.49-1.73.33-.5.83-.89,1.5-1.17.67-.28,1.52-.42,2.54-.42h2.63c0-.53-.07-.96-.22-1.31-.15-.34-.37-.59-.67-.76-.3-.16-.68-.25-1.15-.25-.55,0-1.01.12-1.4.36-.39.24-.63.63-.73,1.16h-2.75c.08-.78.34-1.46.77-2.03.43-.57,1-1.01,1.7-1.33.71-.31,1.51-.47,2.41-.47,1.01,0,1.88.17,2.61.5.73.34,1.29.83,1.68,1.48s.59,1.44.59,2.37v6.53h-2.38l-.3-1.65h-.06c-.2.31-.42.59-.67.83-.25.23-.53.43-.82.59-.29.16-.62.28-.98.36s-.73.13-1.12.13ZM412.02,361.2c.38,0,.71-.07,1.01-.2.29-.14.54-.32.75-.55.2-.23.36-.5.48-.8.12-.31.2-.62.24-.95h-2.19c-.44,0-.79.05-1.06.16-.27.11-.47.26-.6.45-.13.19-.19.42-.19.67s.06.48.19.66c.13.19.31.32.55.42.24.09.51.14.82.14Z"/>
    <path class="cls-1" d="M418.56,354.88v-2.33h6.45v2.33h-6.45ZM419.98,363.17v-11.43c0-.9.15-1.61.44-2.14.3-.53.71-.91,1.26-1.16.55-.24,1.19-.36,1.93-.36h1.18v2.42h-.74c-.45,0-.77.09-.96.27s-.28.49-.28.93v11.48h-2.84Z"/>
    <path class="cls-1" d="M429.49,363.43c-.84,0-1.54-.14-2.08-.43-.55-.28-.95-.67-1.21-1.16-.26-.49-.39-1.02-.39-1.61,0-.66.17-1.23.49-1.73.33-.5.83-.89,1.5-1.17.67-.28,1.52-.42,2.54-.42h2.63c0-.53-.07-.96-.22-1.31s-.37-.59-.67-.76c-.3-.16-.68-.25-1.15-.25-.55,0-1.01.12-1.4.36-.39.24-.63.63-.72,1.16h-2.75c.08-.78.34-1.46.77-2.03.43-.57,1-1.01,1.7-1.33.71-.31,1.51-.47,2.41-.47,1.01,0,1.88.17,2.61.5s1.29.83,1.68,1.48c.39.65.59,1.44.59,2.37v6.53h-2.38l-.29-1.65h-.06c-.2.31-.42.59-.67.83-.25.23-.53.43-.82.59-.3.16-.62.28-.98.36-.36.09-.73.13-1.12.13ZM430.37,361.2c.38,0,.71-.07,1.01-.2.3-.14.54-.32.75-.55.2-.23.36-.5.48-.8.12-.31.2-.62.24-.95h-2.19c-.43,0-.79.05-1.06.16-.27.11-.47.26-.6.45-.13.19-.19.42-.19.67s.06.48.19.66.31.32.55.42c.24.09.51.14.82.14Z"/>
    <path class="cls-1" d="M441.58,363.43c-.87,0-1.6-.18-2.21-.56-.6-.37-1.07-.92-1.39-1.66-.32-.74-.48-1.64-.48-2.71v-5.95h2.84v5.7c0,.89.18,1.56.53,2.03s.9.71,1.66.71c.49,0,.92-.12,1.29-.35.37-.24.66-.58.87-1.02.21-.44.32-.97.32-1.59v-5.48h2.84v10.62h-2.44l-.23-1.71h-.06c-.32.6-.78,1.08-1.37,1.43-.59.36-1.31.53-2.17.53Z"/>
    <path class="cls-1" d="M454.42,363.43c-.98,0-1.84-.24-2.59-.72-.74-.48-1.32-1.14-1.73-1.98-.41-.84-.62-1.8-.62-2.87s.21-2.03.62-2.87c.41-.84,1-1.5,1.76-1.98.76-.48,1.64-.72,2.65-.72.8,0,1.5.16,2.09.47.6.31,1.06.71,1.4,1.18v-5.87h2.84v15.1h-2.42l-.19-1.78h-.06c-.25.41-.56.77-.93,1.07s-.78.53-1.24.71c-.46.17-.99.26-1.58.26ZM455.2,361.01c.57,0,1.08-.13,1.5-.41.43-.27.76-.64,1-1.11.24-.47.36-1.02.36-1.65s-.12-1.16-.36-1.63c-.24-.47-.57-.84-1-1.11-.43-.27-.93-.41-1.5-.41s-1.06.14-1.48.41c-.43.27-.76.64-1,1.11-.24.47-.36,1.01-.36,1.63s.12,1.18.36,1.65c.24.47.57.84,1,1.11.43.27.92.41,1.48.41Z"/>
    <path class="cls-1" d="M466.3,363.43c-.84,0-1.54-.14-2.08-.43-.55-.28-.95-.67-1.21-1.16s-.39-1.02-.39-1.61c0-.66.17-1.23.49-1.73.33-.5.83-.89,1.5-1.17.67-.28,1.52-.42,2.55-.42h2.63c0-.53-.07-.96-.22-1.31-.15-.34-.37-.59-.67-.76-.3-.16-.68-.25-1.15-.25-.55,0-1.01.12-1.4.36-.39.24-.63.63-.72,1.16h-2.75c.08-.78.34-1.46.77-2.03.43-.57,1-1.01,1.7-1.33.71-.31,1.51-.47,2.41-.47,1.01,0,1.88.17,2.61.5.73.34,1.29.83,1.68,1.48s.59,1.44.59,2.37v6.53h-2.38l-.29-1.65h-.06c-.2.31-.42.59-.67.83-.25.23-.53.43-.82.59-.29.16-.62.28-.98.36s-.73.13-1.12.13ZM467.19,361.2c.38,0,.71-.07,1.01-.2.29-.14.54-.32.75-.55.2-.23.36-.5.48-.8.12-.31.2-.62.24-.95h-2.19c-.43,0-.79.05-1.06.16-.27.11-.47.26-.6.45-.13.19-.19.42-.19.67s.06.48.19.66c.13.19.31.32.55.42.24.09.51.14.82.14Z"/>
    <path class="cls-1" d="M479.26,367.82c-1,0-1.87-.13-2.62-.37s-1.33-.61-1.75-1.09-.62-1.07-.62-1.77c0-.49.13-.94.38-1.37.25-.43.62-.82,1.11-1.17.49-.35,1.09-.65,1.81-.91l1.03,1.41c-.62.21-1.07.47-1.34.78-.28.31-.42.65-.42,1.02,0,.3.1.55.3.76s.49.36.85.47c.36.11.79.16,1.26.16s.85-.06,1.18-.17c.32-.12.57-.28.75-.48.17-.21.26-.45.26-.74,0-.37-.13-.67-.4-.89s-.79-.36-1.56-.42c-.71-.06-1.34-.14-1.89-.25-.55-.11-1.03-.23-1.44-.39-.41-.15-.77-.32-1.06-.5-.3-.19-.53-.37-.72-.56v-.49l2.25-2.38,1.75.64-2.35,2.59.78-1.31c.14.07.28.14.43.19s.34.11.57.17c.23.06.53.11.88.17s.81.11,1.36.15c.93.09,1.68.26,2.27.51.59.26,1.02.61,1.3,1.05.28.44.42.98.42,1.63,0,.59-.17,1.15-.52,1.68-.34.54-.87.98-1.57,1.33-.7.35-1.6.53-2.69.53ZM479.28,360.02c-.88,0-1.64-.17-2.28-.51-.64-.34-1.13-.81-1.47-1.39-.34-.58-.52-1.23-.52-1.95s.17-1.36.52-1.95c.34-.59.83-1.05,1.47-1.4.64-.35,1.4-.53,2.28-.53s1.64.18,2.28.53,1.12.82,1.46,1.4c.34.58.5,1.23.5,1.95s-.17,1.36-.5,1.95c-.34.59-.82,1.05-1.46,1.39s-1.4.51-2.28.51ZM479.26,357.9c.55,0,.99-.15,1.33-.44.34-.29.52-.72.52-1.3s-.17-1-.52-1.28c-.34-.28-.78-.43-1.31-.43s-1,.14-1.35.43c-.35.29-.53.71-.53,1.28s.18,1,.53,1.3.79.44,1.33.44ZM480.98,354.52l-.46-1.97h4.37v1.61l-3.91.36Z"/>
    <path class="cls-1" d="M491.53,363.43c-1.07,0-2.01-.23-2.83-.69-.82-.46-1.46-1.1-1.93-1.93-.46-.83-.69-1.78-.69-2.85s.23-2.09.68-2.95c.46-.85,1.09-1.52,1.91-2,.82-.48,1.78-.73,2.87-.73s1.95.23,2.73.69c.78.46,1.4,1.08,1.85,1.87.45.79.67,1.69.67,2.69v.48c0,.18-.01.36-.04.55h-8.66v-1.78h5.82c-.04-.67-.28-1.21-.73-1.61-.44-.4-.99-.6-1.65-.6-.49,0-.94.11-1.34.33-.41.22-.73.56-.97,1.01-.24.45-.36,1.02-.36,1.7v.62c0,.59.11,1.09.34,1.51.22.42.54.75.93.97.4.23.85.34,1.36.34s.95-.12,1.3-.35c.35-.24.62-.54.8-.91h2.9c-.21.67-.55,1.28-1.01,1.83-.46.55-1.03.98-1.7,1.31-.67.32-1.43.48-2.27.48Z"/>
    <path class="cls-2" d="M503.39,358.18v-2.42h8.87v2.42h-8.87Z"/>
    <path class="cls-1" d="M519.31,363.17v-14.99h5.55c1.19,0,2.18.2,2.95.61.78.41,1.36.96,1.73,1.66s.57,1.49.57,2.38c0,.81-.18,1.57-.55,2.27-.36.7-.94,1.27-1.71,1.7s-1.78.65-3,.65h-2.71v5.72h-2.84ZM522.15,355.12h2.52c.91,0,1.56-.21,1.95-.62.39-.41.59-.97.59-1.67s-.2-1.29-.59-1.69-1.04-.6-1.95-.6h-2.52v4.58Z"/>
    <path class="cls-1" d="M531.65,363.17v-15.1h2.84v15.1h-2.84Z"/>
    <path class="cls-1" d="M539.96,363.43c-.84,0-1.54-.14-2.08-.43-.55-.28-.95-.67-1.21-1.16s-.39-1.02-.39-1.61c0-.66.17-1.23.49-1.73.33-.5.83-.89,1.5-1.17.67-.28,1.52-.42,2.55-.42h2.63c0-.53-.07-.96-.22-1.31-.15-.34-.37-.59-.67-.76-.3-.16-.68-.25-1.15-.25-.55,0-1.01.12-1.4.36-.39.24-.63.63-.72,1.16h-2.75c.08-.78.34-1.46.77-2.03.43-.57,1-1.01,1.7-1.33.71-.31,1.51-.47,2.41-.47,1.01,0,1.88.17,2.61.5.73.34,1.29.83,1.68,1.48s.59,1.44.59,2.37v6.53h-2.38l-.29-1.65h-.06c-.2.31-.42.59-.67.83-.25.23-.53.43-.82.59-.29.16-.62.28-.98.36s-.73.13-1.12.13ZM540.84,361.2c.38,0,.71-.07,1.01-.2.29-.14.54-.32.75-.55.2-.23.36-.5.48-.8.12-.31.2-.62.24-.95h-2.19c-.43,0-.79.05-1.06.16-.27.11-.47.26-.6.45-.13.19-.19.42-.19.67s.06.48.19.66c.13.19.31.32.55.42.24.09.51.14.82.14Z"/>
    <path class="cls-1" d="M548.09,363.17v-10.62h2.44l.23,1.73h.06c.34-.61.8-1.1,1.39-1.46.59-.36,1.31-.54,2.16-.54s1.6.19,2.21.57c.6.38,1.06.93,1.38,1.66.31.73.47,1.63.47,2.7v5.95h-2.82v-5.7c0-.88-.18-1.56-.53-2.03-.35-.47-.91-.71-1.68-.71-.48,0-.9.12-1.28.35-.38.23-.67.57-.88,1.01-.21.44-.31.97-.31,1.59v5.48h-2.84Z"/>
    <path class="cls-1" d="M569.77,363.43c-1.07,0-2.01-.23-2.83-.69-.82-.46-1.46-1.1-1.93-1.93-.46-.83-.69-1.78-.69-2.85s.23-2.09.68-2.95c.46-.85,1.09-1.52,1.91-2,.82-.48,1.78-.73,2.87-.73s1.95.23,2.73.69c.78.46,1.4,1.08,1.85,1.87.45.79.67,1.69.67,2.69v.48c0,.18-.01.36-.04.55h-8.66v-1.78h5.82c-.04-.67-.28-1.21-.73-1.61-.44-.4-.99-.6-1.65-.6-.49,0-.94.11-1.34.33-.41.22-.73.56-.97,1.01-.24.45-.36,1.02-.36,1.7v.62c0,.59.11,1.09.34,1.51.22.42.54.75.93.97.4.23.85.34,1.36.34s.95-.12,1.3-.35c.35-.24.62-.54.8-.91h2.9c-.21.67-.55,1.28-1.01,1.83-.46.55-1.03.98-1.7,1.31-.67.32-1.43.48-2.27.48ZM567.27,351.63v-2.16l4.73-2.44h.06v2.29l-4.8,2.31Z"/>
    <path class="cls-1" d="M581.73,363.43c-1.11,0-2.07-.24-2.89-.72-.82-.48-1.46-1.13-1.91-1.97-.45-.84-.68-1.8-.68-2.88s.23-2.04.71-2.88c.47-.83,1.11-1.49,1.93-1.97.82-.48,1.77-.72,2.85-.72,1.34,0,2.48.36,3.41,1.07.92.71,1.51,1.7,1.75,2.96h-3.01c-.11-.5-.37-.89-.77-1.18-.4-.28-.87-.43-1.4-.43-.49,0-.93.13-1.31.37s-.69.61-.91,1.08-.34,1.04-.34,1.69c0,.49.06.92.19,1.3.13.38.31.7.54.97.23.27.5.48.81.62.31.14.65.21,1.03.21s.69-.06.99-.18c.29-.12.55-.3.76-.54.21-.23.35-.52.42-.84h3.01c-.24,1.23-.82,2.2-1.75,2.93-.93.73-2.06,1.09-3.41,1.09Z"/>
    <path class="cls-1" d="M588.59,363.17v-15.1h2.8v6.21h.06c.36-.64.84-1.14,1.43-1.48.59-.34,1.28-.51,2.08-.51.84,0,1.56.19,2.16.57.6.38,1.05.93,1.36,1.66.31.73.46,1.63.46,2.7v5.95h-2.82v-5.7c0-.88-.17-1.56-.52-2.03-.34-.47-.89-.71-1.65-.71-.49,0-.93.12-1.3.35-.38.23-.68.57-.89,1.01-.22.44-.32.97-.32,1.59v5.48h-2.84Z"/>
    <path class="cls-1" d="M604.19,363.43c-.84,0-1.54-.14-2.08-.43-.55-.28-.95-.67-1.21-1.16s-.39-1.02-.39-1.61c0-.66.17-1.23.49-1.73.33-.5.83-.89,1.5-1.17.67-.28,1.52-.42,2.55-.42h2.63c0-.53-.07-.96-.22-1.31-.15-.34-.37-.59-.67-.76-.3-.16-.68-.25-1.15-.25-.55,0-1.01.12-1.4.36-.39.24-.63.63-.72,1.16h-2.75c.08-.78.34-1.46.77-2.03.43-.57,1-1.01,1.7-1.33.71-.31,1.51-.47,2.41-.47,1.01,0,1.88.17,2.61.5.73.34,1.29.83,1.68,1.48s.59,1.44.59,2.37v6.53h-2.38l-.29-1.65h-.06c-.2.31-.42.59-.67.83-.25.23-.53.43-.82.59-.29.16-.62.28-.98.36s-.73.13-1.12.13ZM605.07,361.2c.38,0,.71-.07,1.01-.2.29-.14.54-.32.75-.55.2-.23.36-.5.48-.8.12-.31.2-.62.24-.95h-2.19c-.43,0-.79.05-1.06.16-.27.11-.47.26-.6.45-.13.19-.19.42-.19.67s.06.48.19.66c.13.19.31.32.55.42.24.09.51.14.82.14Z"/>
    <path class="cls-1" d="M611.61,354.88v-2.33h6.45v2.33h-6.45ZM613.04,363.17v-11.43c0-.9.15-1.61.44-2.14.3-.53.72-.91,1.26-1.16.55-.24,1.19-.36,1.93-.36h1.18v2.42h-.74c-.45,0-.77.09-.96.27s-.28.49-.28.93v11.48h-2.84Z"/>
    <path class="cls-1" d="M622.54,363.43c-.84,0-1.54-.14-2.08-.43-.55-.28-.95-.67-1.21-1.16-.26-.49-.39-1.02-.39-1.61,0-.66.17-1.23.49-1.73.33-.5.83-.89,1.5-1.17.67-.28,1.52-.42,2.55-.42h2.63c0-.53-.07-.96-.22-1.31-.15-.34-.37-.59-.67-.76-.3-.16-.68-.25-1.15-.25-.55,0-1.01.12-1.4.36-.39.24-.63.63-.72,1.16h-2.75c.08-.78.34-1.46.77-2.03.43-.57,1-1.01,1.7-1.33.71-.31,1.51-.47,2.41-.47,1.01,0,1.88.17,2.61.5.73.34,1.29.83,1.68,1.48s.59,1.44.59,2.37v6.53h-2.38l-.29-1.65h-.06c-.2.31-.42.59-.67.83-.25.23-.53.43-.82.59-.29.16-.62.28-.98.36s-.73.13-1.12.13ZM623.43,361.2c.38,0,.71-.07,1.01-.2.29-.14.54-.32.75-.55.2-.23.36-.5.48-.8.12-.31.2-.62.24-.95h-2.19c-.43,0-.79.05-1.06.16-.27.11-.47.26-.6.45-.13.19-.19.42-.19.67s.06.48.19.66c.13.19.31.32.55.42.24.09.51.14.82.14Z"/>
    <path class="cls-1" d="M634.63,363.43c-.87,0-1.61-.18-2.21-.56-.6-.37-1.06-.92-1.39-1.66-.32-.74-.48-1.64-.48-2.71v-5.95h2.84v5.7c0,.89.18,1.56.53,2.03.35.47.9.71,1.66.71.49,0,.92-.12,1.29-.35.37-.24.66-.58.87-1.02.21-.44.32-.97.32-1.59v-5.48h2.84v10.62h-2.44l-.23-1.71h-.06c-.32.6-.78,1.08-1.37,1.43-.59.36-1.31.53-2.17.53Z"/>
    <path class="cls-1" d="M647.48,363.43c-.98,0-1.84-.24-2.59-.72-.74-.48-1.32-1.14-1.73-1.98-.41-.84-.62-1.8-.62-2.87s.21-2.03.62-2.87c.41-.84,1-1.5,1.76-1.98s1.64-.72,2.65-.72c.8,0,1.5.16,2.09.47.6.31,1.06.71,1.4,1.18v-5.87h2.84v15.1h-2.42l-.19-1.78h-.06c-.25.41-.56.77-.92,1.07s-.78.53-1.24.71c-.46.17-.99.26-1.58.26ZM648.26,361.01c.57,0,1.08-.13,1.5-.41.43-.27.76-.64,1-1.11.24-.47.36-1.02.36-1.65s-.12-1.16-.36-1.63c-.24-.47-.57-.84-1-1.11-.43-.27-.93-.41-1.5-.41s-1.05.14-1.48.41c-.43.27-.76.64-1,1.11-.24.47-.36,1.01-.36,1.63s.12,1.18.36,1.65c.24.47.57.84,1,1.11.43.27.92.41,1.48.41Z"/>
    <path class="cls-1" d="M659.36,363.43c-.84,0-1.54-.14-2.08-.43-.55-.28-.95-.67-1.21-1.16s-.39-1.02-.39-1.61c0-.66.17-1.23.49-1.73.33-.5.83-.89,1.5-1.17.67-.28,1.52-.42,2.55-.42h2.63c0-.53-.07-.96-.22-1.31-.15-.34-.37-.59-.67-.76-.3-.16-.68-.25-1.15-.25-.55,0-1.01.12-1.4.36-.39.24-.63.63-.72,1.16h-2.75c.08-.78.34-1.46.77-2.03.43-.57,1-1.01,1.7-1.33.71-.31,1.51-.47,2.41-.47,1.01,0,1.88.17,2.61.5.73.34,1.29.83,1.68,1.48s.59,1.44.59,2.37v6.53h-2.38l-.29-1.65h-.06c-.2.31-.42.59-.67.83-.25.23-.53.43-.82.59-.29.16-.62.28-.98.36s-.73.13-1.12.13ZM660.24,361.2c.38,0,.71-.07,1.01-.2.29-.14.54-.32.75-.55.2-.23.36-.5.48-.8.12-.31.2-.62.24-.95h-2.19c-.43,0-.79.05-1.06.16-.27.11-.47.26-.6.45-.13.19-.19.42-.19.67s.06.48.19.66c.13.19.31.32.55.42.24.09.51.14.82.14Z"/>
    <path class="cls-1" d="M672.31,367.82c-1,0-1.87-.13-2.62-.37s-1.33-.61-1.75-1.09-.62-1.07-.62-1.77c0-.49.13-.94.38-1.37.25-.43.62-.82,1.11-1.17.49-.35,1.09-.65,1.81-.91l1.03,1.41c-.62.21-1.07.47-1.34.78-.28.31-.42.65-.42,1.02,0,.3.1.55.3.76s.49.36.85.47c.36.11.79.16,1.26.16s.85-.06,1.18-.17c.32-.12.57-.28.75-.48.17-.21.26-.45.26-.74,0-.37-.13-.67-.4-.89s-.79-.36-1.56-.42c-.71-.06-1.34-.14-1.89-.25-.55-.11-1.03-.23-1.44-.39-.41-.15-.77-.32-1.06-.5-.3-.19-.53-.37-.72-.56v-.49l2.25-2.38,1.75.64-2.35,2.59.78-1.31c.14.07.28.14.43.19s.34.11.57.17c.23.06.53.11.88.17s.81.11,1.36.15c.93.09,1.68.26,2.27.51.59.26,1.02.61,1.3,1.05.28.44.42.98.42,1.63,0,.59-.17,1.15-.52,1.68-.34.54-.87.98-1.57,1.33-.7.35-1.6.53-2.69.53ZM672.33,360.02c-.88,0-1.64-.17-2.28-.51-.64-.34-1.13-.81-1.47-1.39-.34-.58-.52-1.23-.52-1.95s.17-1.36.52-1.95c.34-.59.83-1.05,1.47-1.4.64-.35,1.4-.53,2.28-.53s1.64.18,2.28.53,1.12.82,1.46,1.4c.34.58.5,1.23.5,1.95s-.17,1.36-.5,1.95c-.34.59-.82,1.05-1.46,1.39s-1.4.51-2.28.51ZM672.31,357.9c.55,0,.99-.15,1.33-.44.34-.29.52-.72.52-1.3s-.17-1-.52-1.28c-.34-.28-.78-.43-1.31-.43s-1,.14-1.35.43c-.35.29-.53.71-.53,1.28s.18,1,.53,1.3.79.44,1.33.44ZM674.03,354.52l-.46-1.97h4.37v1.61l-3.91.36Z"/>
    <path class="cls-1" d="M684.59,363.43c-1.07,0-2.01-.23-2.83-.69-.82-.46-1.46-1.1-1.93-1.93-.46-.83-.69-1.78-.69-2.85s.23-2.09.68-2.95c.46-.85,1.09-1.52,1.91-2,.82-.48,1.78-.73,2.87-.73s1.95.23,2.73.69c.78.46,1.4,1.08,1.85,1.87.45.79.67,1.69.67,2.69v.48c0,.18-.01.36-.04.55h-8.66v-1.78h5.82c-.04-.67-.28-1.21-.73-1.61-.44-.4-.99-.6-1.65-.6-.49,0-.94.11-1.34.33-.41.22-.73.56-.97,1.01-.24.45-.36,1.02-.36,1.7v.62c0,.59.11,1.09.34,1.51.22.42.54.75.93.97.4.23.85.34,1.36.34s.95-.12,1.3-.35c.35-.24.62-.54.8-.91h2.9c-.21.67-.55,1.28-1.01,1.83-.46.55-1.03.98-1.7,1.31-.67.32-1.43.48-2.27.48Z"/>
    <path class="cls-2" d="M696.45,358.18v-2.42h8.87v2.42h-8.87Z"/>
    <path class="cls-1" d="M712.37,363.17v-14.99h3.36l6.18,10.92h.06v-10.92h2.84v14.99h-3.34l-6.2-10.9h-.06v10.9h-2.84Z"/>
    <path class="cls-1" d="M731.9,363.43c-1.01,0-1.92-.23-2.73-.71-.81-.47-1.45-1.13-1.92-1.97-.47-.84-.71-1.81-.71-2.89s.24-2.07.72-2.9c.48-.84,1.12-1.49,1.93-1.96s1.72-.71,2.71-.71,1.92.24,2.73.71c.81.47,1.45,1.12,1.92,1.96s.7,1.8.7,2.9-.24,2.07-.71,2.9c-.48.83-1.12,1.49-1.93,1.96s-1.71.71-2.72.71ZM731.88,360.99c.46,0,.88-.12,1.25-.35.37-.24.67-.59.9-1.05.23-.46.35-1.04.35-1.72s-.12-1.28-.35-1.75c-.23-.46-.53-.81-.9-1.04-.37-.23-.77-.34-1.21-.34s-.86.11-1.24.34c-.38.23-.68.57-.9,1.04s-.34,1.05-.34,1.75.11,1.26.34,1.72.52.81.89,1.05c.37.23.78.35,1.21.35Z"/>
    <path class="cls-1" d="M743.21,363.17c-.74,0-1.39-.12-1.95-.35-.55-.24-.98-.63-1.29-1.18-.31-.55-.46-1.3-.46-2.26v-4.5h-1.79v-2.33h1.79l.32-2.89h2.52v2.89h2.78v2.33h-2.78v4.54c0,.5.1.85.31,1.04.21.19.57.29,1.07.29h1.32v2.42h-1.85Z"/>
    <path class="cls-1" d="M751.26,363.43c-1.07,0-2.01-.23-2.83-.69-.82-.46-1.46-1.1-1.93-1.93-.46-.83-.69-1.78-.69-2.85s.23-2.09.68-2.95c.46-.85,1.09-1.52,1.91-2,.82-.48,1.78-.73,2.87-.73s1.95.23,2.73.69c.78.46,1.4,1.08,1.85,1.87.45.79.67,1.69.67,2.69v.48c0,.18-.01.36-.04.55h-8.66v-1.78h5.82c-.04-.67-.28-1.21-.73-1.61-.44-.4-.99-.6-1.65-.6-.49,0-.94.11-1.34.33-.41.22-.73.56-.97,1.01-.24.45-.36,1.02-.36,1.7v.62c0,.59.11,1.09.34,1.51.22.42.54.75.93.97.4.23.85.34,1.36.34s.95-.12,1.3-.35c.35-.24.62-.54.8-.91h2.9c-.21.67-.55,1.28-1.01,1.83-.46.55-1.03.98-1.7,1.31-.67.32-1.43.48-2.27.48Z"/>
    <path class="cls-1" d="M767.05,363.43c-.98,0-1.84-.24-2.59-.72-.74-.48-1.32-1.14-1.73-1.98-.41-.84-.62-1.8-.62-2.87s.21-2.03.62-2.87c.41-.84,1-1.5,1.76-1.98s1.64-.72,2.65-.72c.8,0,1.5.16,2.09.47.6.31,1.06.71,1.4,1.18v-5.87h2.84v15.1h-2.42l-.19-1.78h-.06c-.25.41-.56.77-.92,1.07s-.78.53-1.24.71c-.46.17-.99.26-1.58.26ZM767.83,361.01c.57,0,1.08-.13,1.5-.41.43-.27.76-.64,1-1.11.24-.47.36-1.02.36-1.65s-.12-1.16-.36-1.63c-.24-.47-.57-.84-1-1.11-.43-.27-.93-.41-1.5-.41s-1.05.14-1.48.41c-.43.27-.76.64-1,1.11-.24.47-.36,1.01-.36,1.63s.12,1.18.36,1.65c.24.47.57.84,1,1.11.43.27.92.41,1.48.41Z"/>
    <path class="cls-1" d="M780.61,363.43c-1.07,0-2.01-.23-2.83-.69-.82-.46-1.46-1.1-1.93-1.93-.46-.83-.69-1.78-.69-2.85s.23-2.09.68-2.95c.46-.85,1.09-1.52,1.91-2,.82-.48,1.78-.73,2.87-.73s1.95.23,2.73.69c.78.46,1.4,1.08,1.85,1.87.45.79.67,1.69.67,2.69v.48c0,.18-.01.36-.04.55h-8.66v-1.78h5.82c-.04-.67-.28-1.21-.73-1.61-.44-.4-.99-.6-1.65-.6-.49,0-.94.11-1.34.33-.41.22-.73.56-.97,1.01-.24.45-.36,1.02-.36,1.7v.62c0,.59.11,1.09.34,1.51.22.42.54.75.93.97.4.23.85.34,1.36.34s.95-.12,1.3-.35c.35-.24.62-.54.8-.91h2.9c-.21.67-.55,1.28-1.01,1.83-.46.55-1.03.98-1.7,1.31-.67.32-1.43.48-2.27.48Z"/>
    <path class="cls-1" d="M796.95,363.43c-1.11,0-2.07-.24-2.89-.72-.82-.48-1.46-1.13-1.91-1.97-.45-.84-.68-1.8-.68-2.88s.23-2.04.71-2.88c.47-.83,1.11-1.49,1.93-1.97.82-.48,1.77-.72,2.85-.72,1.34,0,2.48.36,3.41,1.07.92.71,1.51,1.7,1.75,2.96h-3.01c-.11-.5-.37-.89-.77-1.18-.4-.28-.87-.43-1.4-.43-.49,0-.93.13-1.31.37s-.69.61-.91,1.08-.34,1.04-.34,1.69c0,.49.06.92.19,1.3.13.38.31.7.54.97.23.27.5.48.81.62.31.14.65.21,1.03.21s.69-.06.99-.18c.29-.12.55-.3.76-.54.21-.23.35-.52.42-.84h3.01c-.24,1.23-.82,2.2-1.75,2.93-.93.73-2.06,1.09-3.41,1.09Z"/>
    <path class="cls-1" d="M807.17,363.43c-.84,0-1.54-.14-2.08-.43-.55-.28-.95-.67-1.21-1.16s-.39-1.02-.39-1.61c0-.66.17-1.23.49-1.73.33-.5.83-.89,1.5-1.17.67-.28,1.52-.42,2.55-.42h2.63c0-.53-.07-.96-.22-1.31-.15-.34-.37-.59-.67-.76-.3-.16-.68-.25-1.15-.25-.55,0-1.01.12-1.4.36-.39.24-.63.63-.72,1.16h-2.75c.08-.78.34-1.46.77-2.03.43-.57,1-1.01,1.7-1.33.71-.31,1.51-.47,2.41-.47,1.01,0,1.88.17,2.61.5.73.34,1.29.83,1.68,1.48s.59,1.44.59,2.37v6.53h-2.38l-.29-1.65h-.06c-.2.31-.42.59-.67.83-.25.23-.53.43-.82.59-.29.16-.62.28-.98.36s-.73.13-1.12.13ZM808.05,361.2c.38,0,.71-.07,1.01-.2.29-.14.54-.32.75-.55.2-.23.36-.5.48-.8.12-.31.2-.62.24-.95h-2.19c-.43,0-.79.05-1.06.16-.27.11-.47.26-.6.45-.13.19-.19.42-.19.67s.06.48.19.66c.13.19.31.32.55.42.24.09.51.14.82.14Z"/>
    <path class="cls-1" d="M815.39,363.17v-15.1h2.84v15.1h-2.84Z"/>
    <path class="cls-1" d="M825.42,363.43c-1.11,0-2.07-.24-2.89-.72-.82-.48-1.46-1.13-1.91-1.97-.45-.84-.68-1.8-.68-2.88s.23-2.04.71-2.88c.47-.83,1.11-1.49,1.93-1.97.82-.48,1.77-.72,2.85-.72,1.34,0,2.48.36,3.41,1.07.92.71,1.51,1.7,1.75,2.96h-3.01c-.11-.5-.37-.89-.77-1.18-.4-.28-.87-.43-1.4-.43-.49,0-.93.13-1.31.37s-.69.61-.91,1.08-.34,1.04-.34,1.69c0,.49.06.92.19,1.3.13.38.31.7.54.97.23.27.5.48.81.62.31.14.65.21,1.03.21s.69-.06.99-.18c.29-.12.55-.3.76-.54.21-.23.35-.52.42-.84h3.01c-.24,1.23-.82,2.2-1.75,2.93-.93.73-2.06,1.09-3.41,1.09Z"/>
    <path class="cls-1" d="M836.14,363.43c-.87,0-1.61-.18-2.21-.56-.6-.37-1.06-.92-1.39-1.66-.32-.74-.48-1.64-.48-2.71v-5.95h2.84v5.7c0,.89.18,1.56.53,2.03.35.47.9.71,1.66.71.49,0,.92-.12,1.29-.35.37-.24.66-.58.87-1.02.21-.44.32-.97.32-1.59v-5.48h2.84v10.62h-2.44l-.23-1.71h-.06c-.32.6-.78,1.08-1.37,1.43-.59.36-1.31.53-2.17.53Z"/>
    <path class="cls-1" d="M844.45,363.17v-15.1h2.84v15.1h-2.84Z"/>
    <path class="cls-2" d="M854.37,358.18v-2.42h8.87v2.42h-8.87Z"/>
    <path class="cls-1" d="M873.76,363.17v-12.65h-4.31v-2.33h11.44v2.33h-4.31v12.65h-2.82Z"/>
    <path class="cls-1" d="M881.07,363.17v-10.62h2.44l.25,2.25h.06c.29-.69.63-1.21,1-1.56.37-.36.79-.6,1.26-.74s1-.2,1.59-.2v3.06h-.76c-.48,0-.9.05-1.27.16-.37.11-.69.28-.95.51-.26.24-.46.54-.59.92s-.2.85-.2,1.4v4.82h-2.84Z"/>
    <path class="cls-1" d="M892.3,363.43c-.84,0-1.54-.14-2.08-.43-.55-.28-.95-.67-1.21-1.16s-.39-1.02-.39-1.61c0-.66.17-1.23.49-1.73.33-.5.83-.89,1.5-1.17.67-.28,1.52-.42,2.55-.42h2.63c0-.53-.07-.96-.22-1.31-.15-.34-.37-.59-.67-.76-.3-.16-.68-.25-1.15-.25-.55,0-1.01.12-1.4.36-.39.24-.63.63-.72,1.16h-2.75c.08-.78.34-1.46.77-2.03.43-.57,1-1.01,1.7-1.33.71-.31,1.51-.47,2.41-.47,1.01,0,1.88.17,2.61.5.73.34,1.29.83,1.68,1.48s.59,1.44.59,2.37v6.53h-2.38l-.29-1.65h-.06c-.2.31-.42.59-.67.83-.25.23-.53.43-.82.59-.29.16-.62.28-.98.36s-.73.13-1.12.13ZM893.18,361.2c.38,0,.71-.07,1.01-.2.29-.14.54-.32.75-.55.2-.23.36-.5.48-.8.12-.31.2-.62.24-.95h-2.19c-.43,0-.79.05-1.06.16-.27.11-.47.26-.6.45-.13.19-.19.42-.19.67s.06.48.19.66c.13.19.31.32.55.42.24.09.51.14.82.14Z"/>
    <path class="cls-1" d="M900.44,363.17v-10.62h2.44l.23,1.73h.06c.34-.61.8-1.1,1.39-1.46.59-.36,1.31-.54,2.16-.54s1.6.19,2.21.57c.6.38,1.06.93,1.38,1.66.31.73.47,1.63.47,2.7v5.95h-2.82v-5.7c0-.88-.18-1.56-.53-2.03-.35-.47-.91-.71-1.68-.71-.48,0-.9.12-1.28.35-.38.23-.67.57-.88,1.01-.21.44-.31.97-.31,1.59v5.48h-2.84Z"/>
    <path class="cls-1" d="M916.98,363.43c-.92,0-1.75-.16-2.46-.47-.71-.31-1.28-.75-1.7-1.29-.42-.55-.67-1.18-.74-1.87h2.82c.07.26.19.5.36.73s.4.41.68.55c.29.14.62.2,1,.2s.69-.06.94-.17c.25-.11.42-.26.54-.43s.17-.35.17-.53c0-.29-.09-.5-.26-.65-.18-.15-.43-.28-.76-.39-.33-.11-.71-.22-1.15-.35-.46-.11-.93-.25-1.4-.4-.47-.15-.9-.33-1.29-.55s-.71-.5-.95-.86c-.24-.36-.36-.79-.36-1.31,0-.63.17-1.19.5-1.69.34-.5.82-.9,1.46-1.2.64-.3,1.4-.45,2.3-.45,1.26,0,2.27.29,3.02.88.75.58,1.19,1.39,1.31,2.42h-2.67c-.07-.36-.25-.63-.54-.83-.29-.19-.66-.29-1.12-.29-.49,0-.87.09-1.12.28-.26.19-.39.41-.39.69,0,.2.09.37.26.51.17.14.42.27.75.37.32.11.71.22,1.18.35.74.18,1.42.39,2.03.61s1.1.53,1.47.92.56.96.56,1.7c.01.67-.16,1.27-.53,1.8s-.88.95-1.53,1.25c-.66.31-1.45.46-2.38.46Z"/>
    <path class="cls-1" d="M923.02,367.56v-15.01h2.42l.19,1.78h.06c.27-.41.58-.77.94-1.07.36-.3.77-.54,1.24-.71s.99-.26,1.57-.26c.98,0,1.84.24,2.59.72.74.48,1.32,1.14,1.73,1.98.41.84.62,1.8.62,2.87s-.21,2.03-.62,2.87c-.41.84-1,1.5-1.75,1.98-.75.48-1.63.72-2.64.72-.81,0-1.51-.16-2.1-.47-.59-.31-1.06-.71-1.41-1.18v5.78h-2.84ZM928.65,361.03c.57,0,1.07-.14,1.5-.41.43-.27.76-.64.99-1.11.23-.47.35-1.01.35-1.63s-.12-1.18-.35-1.65c-.23-.47-.56-.84-.99-1.11s-.93-.41-1.5-.41-1.06.14-1.49.41c-.44.27-.77.64-1.01,1.11s-.36,1.01-.36,1.63.12,1.18.36,1.65.57.84,1.01,1.11c.43.27.93.41,1.49.41Z"/>
    <path class="cls-1" d="M941.04,363.43c-1.01,0-1.92-.23-2.73-.71-.81-.47-1.45-1.13-1.92-1.97-.47-.84-.71-1.81-.71-2.89s.24-2.07.72-2.9c.48-.84,1.12-1.49,1.93-1.96s1.72-.71,2.71-.71,1.92.24,2.73.71c.81.47,1.45,1.12,1.92,1.96s.7,1.8.7,2.9-.24,2.07-.71,2.9c-.48.83-1.12,1.49-1.93,1.96s-1.71.71-2.72.71ZM941.02,360.99c.46,0,.88-.12,1.25-.35.37-.24.67-.59.9-1.05.23-.46.35-1.04.35-1.72s-.12-1.28-.35-1.75c-.23-.46-.53-.81-.9-1.04-.37-.23-.77-.34-1.21-.34s-.86.11-1.24.34c-.38.23-.68.57-.9,1.04s-.34,1.05-.34,1.75.11,1.26.34,1.72.52.81.89,1.05c.37.23.78.35,1.21.35Z"/>
    <path class="cls-1" d="M948.02,363.17v-10.62h2.44l.25,2.25h.06c.29-.69.63-1.21,1-1.56.37-.36.79-.6,1.26-.74s1-.2,1.59-.2v3.06h-.76c-.48,0-.9.05-1.27.16-.37.11-.69.28-.95.51-.26.24-.46.54-.59.92s-.2.85-.2,1.4v4.82h-2.84Z"/>
    <path class="cls-1" d="M960.55,363.17c-.74,0-1.39-.12-1.95-.35-.55-.24-.98-.63-1.29-1.18-.31-.55-.46-1.3-.46-2.26v-4.5h-1.79v-2.33h1.79l.32-2.89h2.52v2.89h2.78v2.33h-2.78v4.54c0,.5.1.85.31,1.04.21.19.57.29,1.07.29h1.32v2.42h-1.85Z"/>
  </g>
</svg>