<?xml version="1.0" standalone="no"?>
<!DOCTYPE svg PUBLIC "-//W3C//DTD SVG 20010904//EN"
 "http://www.w3.org/TR/2001/REC-SVG-20010904/DTD/svg10.dtd">
<svg version="1.0" xmlns="http://www.w3.org/2000/svg"
 width="512.000000pt" height="512.000000pt" viewBox="0 0 512.000000 512.000000" 
 preserveAspectRatio="xMidYMid meet">

<g transform="translate(0.000000,512.000000) scale(0.100000,-0.100000)"
fill="#ba1514" stroke="none">
<path d="M2513 4738 c-11 -13 -53 -92 -93 -175 -68 -142 -75 -153 -104 -158
-17 -3 -98 -14 -181 -25 -136 -18 -152 -22 -172 -45 -41 -47 -33 -61 114 -201
l137 -131 -33 -183 -33 -182 19 -27 c34 -45 60 -40 234 53 l160 86 157 -85
c87 -47 169 -85 183 -85 14 0 36 11 49 25 l23 25 -33 186 -34 186 137 131
c147 141 155 156 115 201 -21 23 -38 27 -178 46 -85 11 -167 23 -181 26 -22 4
-37 27 -99 157 -81 169 -101 197 -140 197 -15 0 -36 -10 -47 -22z"/>
<path d="M806 4008 c-8 -13 -47 -90 -87 -171 -40 -82 -77 -151 -83 -153 -6 -2
-90 -15 -186 -28 -151 -21 -177 -27 -192 -46 -36 -45 -26 -63 118 -203 l136
-132 -32 -182 c-31 -172 -32 -184 -16 -208 32 -49 53 -44 226 49 88 47 164 86
169 86 4 0 81 -39 171 -87 140 -75 165 -85 188 -77 52 18 54 43 22 225 -17 90
-30 172 -30 182 0 10 57 73 126 140 70 67 130 131 134 142 11 30 -8 72 -38 84
-15 5 -102 20 -194 32 l-166 22 -77 161 c-42 88 -84 167 -93 174 -27 21 -80
15 -96 -10z"/>
<path d="M4218 4018 c-9 -7 -51 -86 -93 -174 l-77 -161 -166 -22 c-92 -12
-179 -27 -194 -32 -33 -13 -54 -59 -39 -87 5 -10 67 -73 136 -140 90 -87 125
-127 125 -144 0 -12 -13 -95 -30 -182 -32 -176 -30 -202 21 -220 22 -7 42 -1
125 43 55 28 131 68 170 87 l70 37 160 -87 c89 -47 167 -86 176 -86 25 0 68
40 68 63 0 12 -14 98 -31 192 l-31 170 136 131 c145 139 155 158 118 204 -15
18 -42 25 -201 48 l-184 26 -78 158 c-42 88 -83 166 -89 174 -15 17 -70 18
-92 2z"/>
<path d="M2425 3263 c-369 -46 -690 -241 -890 -542 -198 -298 -258 -649 -171
-994 95 -375 368 -690 723 -836 260 -107 589 -120 851 -35 243 80 456 231 607
433 427 567 293 1372 -295 1771 -84 57 -248 134 -340 160 -149 41 -354 60
-485 43z m303 -398 c268 -56 482 -224 597 -470 53 -111 74 -192 82 -315 14
-233 -68 -456 -231 -627 -114 -121 -249 -201 -411 -244 -113 -30 -298 -30
-410 0 -162 43 -297 123 -411 244 -121 126 -198 283 -225 457 -14 89 -6 238
17 330 22 89 91 232 148 307 118 155 306 275 498 317 85 19 261 19 346 1z"/>
<path d="M2415 2714 c-38 -8 -113 -35 -165 -61 -79 -39 -109 -60 -180 -132
-140 -141 -203 -292 -203 -486 0 -121 19 -201 73 -310 85 -173 223 -292 410
-355 90 -30 269 -38 363 -16 257 60 455 256 524 516 22 85 22 243 0 330 -54
210 -213 393 -415 479 -116 49 -274 62 -407 35z m522 -449 c28 -20 37 -59 19
-93 -25 -46 -508 -520 -539 -527 -45 -12 -69 15 -160 172 -114 198 -113 193
-93 231 18 34 51 48 91 38 18 -5 40 -33 84 -109 33 -56 64 -109 69 -117 8 -12
54 29 229 203 187 185 223 217 249 217 16 0 39 -7 51 -15z"/>
<path d="M1395 903 c-66 -114 -135 -234 -154 -267 l-34 -59 44 6 c24 3 98 13
164 23 66 10 131 15 145 11 16 -4 61 -50 123 -127 54 -66 101 -120 106 -120 8
0 221 366 221 381 0 5 -26 21 -57 35 -93 40 -252 152 -344 241 -47 46 -88 83
-90 83 -3 0 -58 -93 -124 -207z"/>
<path d="M3540 1053 c-106 -108 -252 -212 -377 -270 -29 -14 -53 -28 -53 -33
0 -5 50 -94 111 -199 l111 -191 99 122 c54 67 109 128 122 135 20 10 51 8 178
-13 84 -13 159 -23 166 -22 13 3 -278 520 -295 525 -4 1 -32 -23 -62 -54z"/>
</g>
</svg>
