<?xml version="1.0" standalone="no"?>
<!DOCTYPE svg PUBLIC "-//W3C//DTD SVG 20010904//EN"
 "http://www.w3.org/TR/2001/REC-SVG-20010904/DTD/svg10.dtd">
<svg version="1.0" xmlns="http://www.w3.org/2000/svg"
 width="512.000000pt" height="512.000000pt" viewBox="0 0 512.000000 512.000000"
 preserveAspectRatio="xMidYMid meet">

<g transform="translate(0.000000,512.000000) scale(0.100000,-0.100000)"
fill="#FFF" stroke="none">
<path d="M534 5112 c-31 -20 -34 -54 -34 -386 l0 -336 -223 0 c-204 0 -225 -2
-240 -18 -23 -25 -21 -58 3 -82 19 -19 33 -20 240 -20 l220 0 0 -540 0 -540
-223 0 c-204 0 -225 -2 -240 -18 -23 -25 -21 -55 4 -78 19 -17 41 -19 240 -22
l219 -3 0 -515 0 -514 -223 0 c-204 0 -225 -2 -240 -18 -23 -25 -21 -55 4 -78
19 -17 41 -19 240 -22 l219 -3 0 -535 0 -534 -220 0 c-207 0 -221 -1 -240 -20
-25 -25 -26 -62 -2 -83 16 -15 48 -17 240 -17 l222 0 0 -336 c0 -332 3 -366
34 -386 20 -13 52 -8 69 10 15 16 17 60 19 363 l3 344 378 3 377 2 0 -348 c0
-325 1 -350 18 -365 25 -23 58 -21 82 3 19 19 20 33 20 365 l0 345 1060 0
1060 0 0 -345 c0 -332 1 -346 20 -365 25 -25 62 -26 83 -2 15 17 17 57 17 365
l0 347 378 -2 377 -3 3 -344 c2 -303 4 -347 19 -363 17 -18 49 -23 69 -10 31
20 34 54 34 386 l0 336 223 0 c204 0 225 2 240 18 23 25 21 58 -3 82 -19 19
-33 20 -240 20 l-220 0 0 534 0 535 219 3 c199 3 221 5 240 22 26 24 27 57 3
79 -16 15 -48 17 -240 17 l-222 0 0 514 0 515 219 3 c199 3 221 5 240 22 26
24 27 57 3 79 -16 15 -48 17 -240 17 l-222 0 0 540 0 540 220 0 c207 0 221 1
240 20 25 25 26 62 2 83 -16 15 -48 17 -240 17 l-222 0 0 336 c0 332 -3 366
-34 386 -20 13 -52 8 -69 -10 -15 -16 -17 -60 -19 -363 l-3 -344 -377 -3 -378
-2 0 348 c0 325 -1 350 -18 365 -25 23 -58 21 -82 -3 -19 -19 -20 -33 -20
-365 l0 -345 -1060 0 -1060 0 0 345 c0 332 -1 346 -20 365 -25 25 -62 26 -83
2 -15 -17 -17 -57 -17 -365 l0 -347 -377 2 -378 3 -3 344 c-2 303 -4 347 -19
363 -17 18 -49 23 -69 10z m844 -1379 l-3 -538 -375 0 -375 0 -3 538 -2 537
380 0 380 0 -2 -537z m2051 533 c-2 -2 -198 -107 -436 -234 l-431 -231 -409
218 c-224 120 -421 225 -438 234 -28 15 32 16 844 17 481 0 872 -2 870 -4z
m1071 -91 l0 -95 -380 0 -380 0 0 95 0 95 380 0 380 0 0 -95z m-2407 -260
c185 -99 333 -183 329 -186 -10 -9 -910 -489 -917 -489 -3 0 -5 223 -5 495 l0
496 128 -68 c71 -37 280 -149 465 -248z m1524 -671 c-2 -2 -212 107 -466 243
l-463 246 33 18 c19 10 228 121 464 247 l430 230 3 -491 c1 -269 1 -492 -1
-493z m878 631 l0 -80 -377 -3 -378 -2 0 85 0 85 378 -2 377 -3 0 -80z m5
-285 l0 -80 -380 0 -380 0 0 80 0 80 380 0 380 0 0 -80z m-1508 -155 c232
-124 427 -230 432 -235 7 -7 -292 -10 -864 -10 -572 0 -871 3 -864 10 15 15
847 459 862 459 7 1 202 -100 434 -224z m1506 -142 l-3 -98 -375 0 -375 0 -3
98 -3 97 381 0 381 0 -3 -97z m-3120 -305 l-3 -83 -375 0 -375 0 -3 83 -3 82
381 0 381 0 -3 -82z m1837 -26 c-115 -59 -310 -159 -431 -221 l-222 -113 -387
197 c-214 109 -406 208 -429 221 l-41 24 860 0 860 0 -210 -108z m1283 -404
l-3 -513 -375 0 -375 0 -3 513 -2 512 380 0 380 0 -2 -512z m-2532 240 c249
-128 454 -235 454 -238 0 -6 -902 -470 -913 -470 -4 0 -7 212 -7 470 0 259 3
470 6 470 3 0 210 -105 460 -232z m1654 -239 c0 -309 -3 -470 -10 -467 -24 8
-910 464 -910 468 0 6 901 469 913 470 4 0 7 -212 7 -471z m-2240 141 l0 -80
-380 0 -380 0 0 80 0 80 380 0 380 0 0 -80z m0 -280 l0 -80 -380 0 -380 0 0
80 0 80 380 0 380 0 0 -80z m1612 -148 c230 -117 420 -217 423 -222 4 -6 -314
-10 -856 -10 -611 0 -860 3 -852 11 17 17 847 439 858 436 6 -1 198 -98 427
-215z m-1617 -142 l0 -85 -375 0 -375 0 -3 74 c-2 41 -1 80 2 88 5 11 72 13
378 11 l373 -3 0 -85z m5 -745 l0 -535 -380 0 -380 0 0 535 0 535 380 0 380 0
0 -535z m2034 527 c-16 -15 -842 -452 -854 -452 -10 0 -772 403 -835 441 -29
18 -10 19 834 19 476 0 861 -4 855 -8z m1086 -87 l0 -95 -380 0 -380 0 0 95 0
95 380 0 380 0 0 -95z m-2531 -191 c254 -136 461 -248 459 -249 -3 -3 -829
-444 -895 -479 l-33 -17 0 496 c0 272 2 495 4 495 2 0 211 -111 465 -246z
m1651 -249 l0 -496 -118 63 c-651 347 -810 433 -806 437 7 7 909 490 917 490
4 1 7 -222 7 -494z m880 145 l0 -80 -380 0 -380 0 0 80 0 80 380 0 380 0 0
-80z m-5 -285 l0 -80 -377 -3 -378 -2 0 85 0 85 378 -2 377 -3 0 -80z m-1496
-160 l430 -230 -434 -3 c-239 -1 -630 -1 -869 0 l-435 3 432 232 c238 127 435
231 438 230 4 -1 201 -105 438 -232z m1501 -140 l0 -95 -380 0 -380 0 0 95 0
95 380 0 380 0 0 -95z"/>
</g>
</svg>
