<?xml version="1.0" standalone="no"?>
<!DOCTYPE svg PUBLIC "-//W3C//DTD SVG 20010904//EN"
 "http://www.w3.org/TR/2001/REC-SVG-20010904/DTD/svg10.dtd">
<svg version="1.0" xmlns="http://www.w3.org/2000/svg"
 width="512.000000pt" height="512.000000pt" viewBox="0 0 512.000000 512.000000"
 preserveAspectRatio="xMidYMid meet">

<g transform="translate(0.000000,512.000000) scale(0.100000,-0.100000)"
fill="#FFF" stroke="none">
<path d="M25 5095 c-24 -24 -25 -27 -25 -185 0 -158 1 -161 25 -185 18 -19 35
-25 70 -25 l45 0 0 -320 0 -320 -45 0 c-35 0 -52 -6 -70 -25 -24 -24 -25 -27
-25 -185 0 -158 1 -161 25 -185 18 -19 35 -25 70 -25 l45 0 -2 -1597 -3 -1598
-52 -5 c-80 -8 -82 -14 -83 -218 0 -170 0 -173 25 -197 l24 -25 294 0 c283 0
295 1 321 21 l26 20 0 178 c0 212 -3 221 -81 221 l-49 0 0 365 0 365 320 0
320 0 0 -365 0 -365 -45 0 c-32 0 -51 -6 -65 -20 -18 -18 -20 -33 -20 -195 0
-173 0 -176 25 -200 l24 -25 294 0 c283 0 295 1 321 21 l26 20 0 180 c0 166
-1 180 -20 199 -14 14 -33 20 -65 20 l-45 0 0 103 1 102 454 312 c250 172 458
314 464 315 5 2 219 -143 475 -322 l466 -325 0 -92 0 -93 -45 0 c-32 0 -51 -6
-65 -20 -19 -19 -20 -33 -20 -199 l0 -180 26 -20 c26 -20 38 -21 321 -21 l294
0 24 25 c25 24 25 27 25 200 0 162 -2 177 -20 195 -14 14 -33 20 -65 20 l-45
0 0 365 0 365 320 0 320 0 0 -365 0 -365 -49 0 c-78 0 -81 -9 -81 -221 l0
-178 26 -20 c26 -20 38 -21 321 -21 l294 0 24 25 c25 24 25 27 25 197 -1 204
-3 210 -83 218 l-52 5 -5 213 c-5 197 -7 215 -24 228 -29 21 -80 18 -102 -7
-17 -19 -19 -41 -22 -231 l-3 -209 -57 3 -57 3 -3 1598 -2 1597 60 0 60 0 2
-1245 3 -1244 22 -22 c27 -27 75 -29 103 -4 20 18 20 28 20 1267 l0 1248 45 0
c35 0 52 6 70 25 24 24 25 27 25 185 0 158 -1 161 -25 185 -18 19 -35 25 -70
25 l-45 0 0 320 0 320 45 0 c35 0 52 6 70 25 24 24 25 27 25 185 0 158 -1 161
-25 185 l-24 25 -2511 0 -2511 0 -24 -25z m4945 -185 l0 -60 -1970 0 -1971 0
-24 -25 c-31 -30 -32 -71 -3 -102 19 -21 30 -23 110 -23 l88 0 0 -320 0 -320
-320 0 -320 0 0 320 0 320 85 0 c78 0 88 2 110 25 14 13 25 36 25 50 0 14 -11
37 -25 50 l-24 25 -291 0 -290 0 0 60 0 60 2410 0 2410 0 0 -60z m-4560 -530
l0 -320 -60 0 -60 0 0 320 0 320 60 0 60 0 0 -320z m1070 0 l0 -321 -62 3 -63
3 -3 305 c-1 168 0 310 3 317 3 9 25 13 65 13 l60 0 0 -320z m2010 0 l0 -320
-198 0 c-214 0 -233 -4 -246 -55 -7 -29 15 -79 39 -89 9 -3 437 -6 951 -6
l934 0 0 -60 0 -60 -2410 0 -2410 0 0 60 0 60 1319 0 1318 0 27 21 c33 26 35
73 4 106 l-21 23 -584 0 -583 0 0 320 0 320 930 0 930 0 0 -320z m275 0 l0
-315 -62 -3 -63 -3 0 321 0 321 63 -3 62 -3 0 -315z m795 0 l0 -320 -320 0
-320 0 0 320 0 320 320 0 320 0 0 -320z m270 0 l0 -320 -60 0 -60 0 0 320 0
320 60 0 60 0 0 -320z m-4422 -2337 l-3 -1598 -57 -3 -58 -3 0 1601 0 1600 60
0 60 0 -2 -1597z m792 1402 l0 -195 -320 0 -320 0 0 195 0 195 320 0 320 0 0
-195z m280 -814 l0 -1010 26 -20 c40 -32 91 -24 110 16 5 10 11 82 14 161 l5
143 393 -275 393 -274 -143 -100 c-79 -54 -255 -176 -393 -271 l-250 -172 -5
248 c-3 136 -9 256 -14 266 -20 42 -81 49 -114 14 -22 -23 -22 -27 -24 -468
l-3 -444 -60 0 -60 0 -3 1585 c-1 872 0 1591 3 1598 3 8 26 12 65 12 l60 0 0
-1009z m1800 995 c-43 -39 -722 -497 -733 -493 -10 3 -710 489 -726 503 -2 2
328 4 734 4 626 0 737 -2 725 -14z m485 -1586 l0 -1595 -60 0 -60 0 -3 1598
-2 1598 62 -3 63 -3 0 -1595z m795 1405 l0 -195 -320 0 -320 0 0 195 0 195
320 0 320 0 0 -195z m-2533 -136 c213 -149 389 -272 391 -274 3 -2 -730 -511
-775 -538 -11 -7 -13 87 -13 538 0 300 2 545 5 545 2 0 179 -122 392 -271z
m1463 -284 l0 -556 -61 43 c-33 24 -212 149 -397 278 -185 129 -336 238 -337
242 0 7 775 546 788 547 4 1 7 -249 7 -554z m-2290 15 l0 -60 -320 0 -320 0 0
60 0 60 320 0 320 0 0 -60z m3360 0 l0 -60 -320 0 -320 0 0 60 0 60 320 0 320
0 0 -60z m-1630 -362 l361 -253 -370 -3 c-203 -1 -538 -1 -743 0 l-374 3 370
257 c204 141 376 255 383 253 6 -2 174 -118 373 -257z m-1730 -53 l0 -205
-320 0 -320 0 0 205 0 205 320 0 320 0 0 -205z m3360 0 l0 -205 -320 0 -320 0
0 205 0 205 320 0 320 0 0 -205z m-3360 -415 l0 -60 -320 0 -320 0 0 60 0 60
320 0 320 0 0 -60z m2290 0 l0 -60 -930 0 -930 0 0 60 0 60 930 0 930 0 0 -60z
m1070 0 l0 -60 -320 0 -320 0 0 60 0 60 320 0 320 0 0 -60z m-3360 -415 l0
-205 -320 0 -320 0 0 205 0 205 320 0 320 0 0 -205z m2110 191 c-8 -8 -170
-121 -360 -251 -190 -131 -356 -246 -370 -255 l-26 -18 -364 254 c-201 140
-372 261 -380 269 -12 13 81 15 750 15 655 0 762 -2 750 -14z m1250 -191 l0
-205 -320 0 -320 0 0 205 0 205 320 0 320 0 0 -205z m-1072 -710 l-3 -273
-397 276 c-219 153 -397 279 -397 282 -1 3 178 128 397 278 l397 273 3 -281
c1 -155 1 -404 0 -555z m-2288 295 l0 -60 -320 0 -320 0 0 60 0 60 320 0 320
0 0 -60z m3360 0 l0 -60 -320 0 -320 0 0 60 0 60 320 0 320 0 0 -60z m-4020
-1160 l0 -70 -195 0 -195 0 0 70 0 70 195 0 195 0 0 -70z m1070 0 l0 -70 -195
0 -195 0 0 70 0 70 195 0 195 0 0 -70z m2290 0 l0 -70 -195 0 -195 0 0 70 0
70 195 0 195 0 0 -70z m1070 0 l0 -70 -195 0 -195 0 0 70 0 70 195 0 195 0 0
-70z"/>
</g>
</svg>
