<?xml version="1.0" standalone="no"?>
<!DOCTYPE svg PUBLIC "-//W3C//DTD SVG 20010904//EN"
 "http://www.w3.org/TR/2001/REC-SVG-20010904/DTD/svg10.dtd">
<svg version="1.0" xmlns="http://www.w3.org/2000/svg"
 width="512.000000pt" height="512.000000pt" viewBox="0 0 512.000000 512.000000"
 preserveAspectRatio="xMidYMid meet">

<g transform="translate(0.000000,512.000000) scale(0.100000,-0.100000)"
fill="#fff" stroke="none">
<path d="M207 5100 l-27 -21 0 -2470 0 -2469 -40 0 c-30 0 -47 -7 -65 -25 -30
-29 -32 -55 -6 -86 19 -23 23 -24 174 -24 138 0 157 2 176 19 24 22 27 63 8
90 -8 11 -31 20 -60 23 l-47 6 0 443 0 444 565 0 565 0 0 -444 0 -443 -45 -5
c-56 -7 -75 -22 -75 -62 0 -65 27 -76 190 -76 163 0 190 11 190 76 0 40 -19
55 -75 62 l-45 5 0 116 0 116 485 485 485 485 485 -485 485 -485 0 -117 0
-118 -40 0 c-71 0 -107 -73 -60 -120 18 -18 33 -20 161 -20 173 0 199 10 199
76 0 40 -19 55 -75 62 l-45 5 0 443 0 444 565 0 565 0 0 -445 0 -445 -40 0
c-75 0 -109 -76 -54 -119 24 -19 40 -21 169 -21 121 0 146 3 163 18 57 47 22
122 -58 122 l-40 0 0 2469 0 2470 -27 21 c-19 15 -35 19 -53 15 -54 -13 -55
-19 -58 -255 l-3 -220 -565 0 -564 0 0 214 c0 193 -2 216 -18 237 -26 31 -78
31 -104 0 -16 -21 -18 -44 -18 -237 l0 -214 -970 0 -970 0 0 214 c0 193 -2
216 -18 237 -13 15 -30 22 -52 22 -22 0 -39 -7 -52 -22 -16 -21 -18 -44 -18
-237 l0 -214 -564 0 -565 0 -3 220 c-3 236 -4 242 -58 255 -18 4 -34 0 -53
-15z m1243 -875 l0 -285 -565 0 -565 0 0 285 0 285 565 0 565 0 0 -285z m1961
258 c-11 -16 -207 -215 -435 -443 l-416 -415 -435 435 c-239 239 -435 438
-435 442 0 5 392 8 871 8 l870 0 -20 -27z m1389 -258 l0 -285 -565 0 -565 0 0
285 0 285 565 0 565 0 0 -285z m-2805 -225 l400 -400 -403 0 -402 0 0 400 c0
220 1 400 3 400 1 0 182 -180 402 -400z m1535 0 l0 -400 -402 0 -403 0 400
400 c220 220 401 400 402 400 2 0 3 -180 3 -400z m-2080 -585 l0 -395 -565 0
-565 0 0 395 0 395 565 0 565 0 0 -395z m3350 0 l0 -395 -565 0 -565 0 0 395
0 395 565 0 565 0 0 -395z m-2410 42 c0 -1 -180 -182 -400 -402 l-400 -400 0
403 0 402 400 0 c220 0 400 -1 400 -3z m1140 -397 c0 -220 -1 -400 -3 -400 -1
0 -182 180 -402 400 l-400 400 403 0 402 0 0 -400z m-548 -47 c230 -230 418
-421 418 -425 0 -5 -378 -8 -840 -8 -462 0 -840 3 -840 7 0 9 832 843 840 843
3 0 193 -188 422 -417z m-1532 -528 l0 -395 -565 0 -565 0 0 395 0 395 565 0
565 0 0 -395z m3350 0 l0 -395 -565 0 -565 0 0 395 0 395 565 0 565 0 0 -395z
m-1790 -490 c-343 -343 -457 -452 -465 -442 -6 6 -208 211 -450 455 l-439 442
905 0 904 0 -455 -455z m-1015 -80 l397 -405 -401 0 -401 0 0 405 c0 223 2
405 4 405 2 0 182 -182 401 -405z m1535 0 l0 -405 -401 0 -401 0 397 405 c219
223 399 405 401 405 2 0 4 -182 4 -405z m-2080 -350 l0 -395 -565 0 -565 0 0
395 0 395 565 0 565 0 0 -395z m3350 0 l0 -395 -565 0 -565 0 0 395 0 395 565
0 565 0 0 -395z m-2578 -362 c-94 -98 -274 -281 -401 -408 l-231 -230 0 408 0
407 401 0 401 0 -170 -177z m1308 -230 l0 -408 -400 400 c-220 220 -400 403
-400 407 0 5 180 8 400 8 l400 0 0 -407z"/>
</g>
</svg>
