<?xml version="1.0" standalone="no"?>
<!DOCTYPE svg PUBLIC "-//W3C//DTD SVG 20010904//EN"
 "http://www.w3.org/TR/2001/REC-SVG-20010904/DTD/svg10.dtd">
<svg version="1.0" xmlns="http://www.w3.org/2000/svg"
 width="512.000000pt" height="512.000000pt" viewBox="0 0 512.000000 512.000000"
 preserveAspectRatio="xMidYMid meet">

<g transform="translate(0.000000,512.000000) scale(0.100000,-0.100000)"
fill="#ba1514" stroke="none">
<path d="M869 5031 l-29 -29 0 -746 0 -746 -106 0 -106 0 -34 -34 -34 -34 0
-131 c0 -196 13 -211 181 -211 l99 0 -2 -552 -3 -553 -95 -2 c-124 -4 -137 -7
-160 -46 -17 -28 -20 -50 -20 -164 0 -132 0 -133 29 -165 l29 -33 111 -3 111
-4 0 -549 c0 -516 -1 -549 -17 -549 -40 0 -96 -23 -129 -52 -59 -52 -68 -79
-69 -205 0 -104 2 -113 24 -137 l24 -26 369 0 369 0 25 25 c25 25 26 29 22
145 -3 113 -4 120 -33 161 -16 23 -45 49 -62 58 -18 9 -33 18 -33 21 0 3 107
112 238 243 l237 237 239 -239 238 -238 -44 -26 c-66 -39 -91 -91 -96 -204 -5
-105 0 -135 28 -163 19 -19 35 -20 390 -20 355 0 371 1 390 20 28 28 33 58 28
163 -5 113 -30 165 -96 204 l-44 26 233 233 c129 129 238 234 244 234 12 0
475 -461 475 -473 0 -4 -5 -7 -12 -7 -23 0 -81 -54 -99 -94 -14 -32 -19 -65
-19 -149 0 -101 1 -109 25 -132 l24 -25 369 0 369 0 21 23 c20 21 22 34 22
135 0 72 -5 124 -14 145 -25 60 -111 117 -178 117 -17 0 -18 33 -18 549 l0
549 110 4 c104 3 111 4 137 31 27 27 28 31 31 158 5 201 -7 217 -170 221
l-103 3 -3 553 -2 552 99 0 c170 0 184 18 179 218 l-3 134 -33 29 c-31 28 -35
29 -137 29 l-105 0 0 746 0 746 -29 29 -29 29 -137 0 c-206 0 -215 -9 -215
-205 l0 -125 -549 0 -549 0 -4 136 -3 136 -33 29 -32 29 -138 0 c-197 0 -212
-15 -212 -215 l0 -115 -550 0 -550 0 0 126 c0 196 -7 203 -208 204 l-144 0
-29 -29z m271 -801 l0 -720 -95 0 -95 0 0 720 0 720 94 0 95 0 1 -720z m1510
0 l0 -720 -90 0 -90 0 0 720 0 720 90 0 90 0 0 -720z m1520 0 l0 -720 -95 0
-95 0 0 720 1 720 95 0 94 0 0 -720z m-2138 148 l-232 -233 -232 233 -233 232
465 0 465 0 -233 -232z m1520 0 l-232 -233 -232 233 -233 232 465 0 465 0
-233 -232z m-2064 -81 l232 -232 -235 -235 -235 -235 0 468 c0 257 1 467 3
467 1 0 107 -105 235 -233z m862 -234 l0 -468 -230 230 c-126 126 -230 234
-230 240 0 8 449 465 457 465 2 0 3 -210 3 -467z m658 234 l232 -232 -235
-235 -235 -235 0 468 c0 257 1 467 3 467 1 0 107 -105 235 -233z m862 -234 l0
-468 -235 235 -235 235 232 232 c128 128 234 233 235 233 2 0 3 -210 3 -467z
m-1830 -318 l235 -235 -475 0 -475 0 235 235 c129 129 237 235 240 235 3 0
111 -106 240 -235z m1520 0 l235 -235 -475 0 -475 0 235 235 c129 129 237 235
240 235 3 0 111 -106 240 -235z m888 -442 l3 -93 -1888 3 -1888 2 -3 79 c-2
44 -1 85 2 92 4 11 344 13 1888 11 l1883 -2 3 -92z m-3313 -758 l0 -550 -92
-3 -93 -3 0 556 0 556 93 -3 92 -3 0 -550z m902 318 l-237 -238 -237 238 -238
237 475 0 475 0 -238 -237z m613 -318 l0 -555 -90 0 -90 0 0 555 0 555 90 0
90 0 0 -555z m907 318 l-237 -238 -237 238 -238 237 475 0 475 0 -238 -237z
m613 -318 l0 -556 -92 3 -93 3 -3 540 c-1 297 0 546 3 553 3 8 32 12 95 12
l90 0 0 -555z m-2682 232 l232 -232 -235 -235 -235 -235 0 468 c0 257 1 467 3
467 1 0 107 -105 235 -233z m862 -234 l0 -468 -235 235 -235 235 232 232 c128
128 234 233 235 233 2 0 3 -210 3 -467z m658 234 l232 -232 -235 -235 -235
-235 0 468 c0 257 1 467 3 467 1 0 107 -105 235 -233z m862 -234 l0 -468 -235
235 -235 235 232 232 c128 128 234 233 235 233 2 0 3 -210 3 -467z m-1830
-318 l235 -235 -475 0 -475 0 235 235 c129 129 237 235 240 235 3 0 111 -106
240 -235z m1520 0 l235 -235 -475 0 -475 0 235 235 c129 129 237 235 240 235
3 0 111 -106 240 -235z m890 -435 l0 -90 -1890 0 -1890 0 0 83 c0 46 3 87 7
90 3 4 854 7 1890 7 l1883 0 0 -90z m-3310 -760 l0 -550 -95 0 -95 0 0 550 0
550 95 0 95 0 0 -550z m1130 547 c0 -1 -105 -107 -233 -235 l-232 -232 -235
235 -235 235 468 0 c257 0 467 -1 467 -3z m380 -547 l0 -550 -90 0 -90 0 0
550 0 550 90 0 90 0 0 -550z m1130 547 c0 -1 -105 -107 -233 -235 l-232 -232
-235 235 -235 235 468 0 c257 0 467 -1 467 -3z m390 -547 l0 -550 -95 0 -95 0
0 550 0 550 95 0 95 0 0 -550z m-2683 -237 l-237 -238 0 475 0 475 237 -238
238 -237 -238 -237z m2383 235 l0 -473 -237 237 -238 238 235 235 c129 129
236 235 237 235 2 0 3 -213 3 -472z m-1520 0 l0 -463 -232 232 -233 233 230
230 c126 126 231 230 232 230 2 0 3 -208 3 -462z m652 -230 l-232 -233 0 465
0 465 232 -233 233 -232 -233 -232z m-1697 -444 c27 -11 45 -60 45 -124 l0
-60 -305 0 -305 0 0 70 c0 62 3 74 25 95 l24 25 250 0 c137 0 257 -3 266 -6z
m1532 -16 c20 -19 23 -31 23 -95 l0 -73 -300 0 -300 0 0 74 c0 69 2 76 26 95
25 20 39 21 277 21 244 0 251 -1 274 -22z m1518 -3 c22 -21 25 -33 25 -95 l0
-70 -305 0 -305 0 0 54 c0 62 13 103 38 122 13 10 78 13 270 14 l253 0 24 -25z"/>
</g>
</svg>
